<?xml version="1.0" encoding="utf-8" standalone="no"?>
<!DOCTYPE svg PUBLIC "-//W3C//DTD SVG 1.1//EN"
  "http://www.w3.org/Graphics/SVG/1.1/DTD/svg11.dtd">
<svg xmlns:xlink="http://www.w3.org/1999/xlink" width="720pt" height="360pt" viewBox="0 0 720 360" xmlns="http://www.w3.org/2000/svg" version="1.1">
 <metadata>
  <rdf:RDF xmlns:dc="http://purl.org/dc/elements/1.1/" xmlns:cc="http://creativecommons.org/ns#" xmlns:rdf="http://www.w3.org/1999/02/22-rdf-syntax-ns#">
   <cc:Work>
    <dc:type rdf:resource="http://purl.org/dc/dcmitype/StillImage"/>
    <dc:date>2024-09-30T18:59:25.374294</dc:date>
    <dc:format>image/svg+xml</dc:format>
    <dc:creator>
     <cc:Agent>
      <dc:title>Matplotlib v3.8.3, https://matplotlib.org/</dc:title>
     </cc:Agent>
    </dc:creator>
   </cc:Work>
  </rdf:RDF>
 </metadata>
 <defs>
  <style type="text/css">*{stroke-linejoin: round; stroke-linecap: butt}</style>
 </defs>
 <g id="figure_1">
  <g id="patch_1">
   <path d="M 0 360 
L 720 360 
L 720 0 
L 0 0 
z
" style="fill: #ffffff"/>
  </g>
  <g id="axes_1">
   <g id="patch_2">
    <path d="M 43.92 322.26 
L 340.29 322.26 
L 340.29 14.64 
L 43.92 14.64 
z
" style="fill: #ffffff"/>
   </g>
   <g id="matplotlib.axis_1">
    <g id="xtick_1">
     <g id="line2d_1">
      <defs>
       <path id="mb06bb507a7" d="M 0 0 
L 0 -3.5 
" style="stroke: #000000; stroke-width: 0.8"/>
      </defs>
      <g>
       <use xlink:href="#mb06bb507a7" x="43.92" y="322.26" style="stroke: #000000; stroke-width: 0.8"/>
      </g>
     </g>
     <g id="text_1">
      <!-- 0.0 -->
      <g transform="translate(35.968438 333.358437) scale(0.1 -0.1)">
       <defs>
        <path id="DejaVuSans-30" d="M 2034 4250 
Q 1547 4250 1301 3770 
Q 1056 3291 1056 2328 
Q 1056 1369 1301 889 
Q 1547 409 2034 409 
Q 2525 409 2770 889 
Q 3016 1369 3016 2328 
Q 3016 3291 2770 3770 
Q 2525 4250 2034 4250 
z
M 2034 4750 
Q 2819 4750 3233 4129 
Q 3647 3509 3647 2328 
Q 3647 1150 3233 529 
Q 2819 -91 2034 -91 
Q 1250 -91 836 529 
Q 422 1150 422 2328 
Q 422 3509 836 4129 
Q 1250 4750 2034 4750 
z
" transform="scale(0.015625)"/>
        <path id="DejaVuSans-2e" d="M 684 794 
L 1344 794 
L 1344 0 
L 684 0 
L 684 794 
z
" transform="scale(0.015625)"/>
       </defs>
       <use xlink:href="#DejaVuSans-30"/>
       <use xlink:href="#DejaVuSans-2e" x="63.623047"/>
       <use xlink:href="#DejaVuSans-30" x="95.410156"/>
      </g>
     </g>
    </g>
    <g id="xtick_2">
     <g id="line2d_2">
      <g>
       <use xlink:href="#mb06bb507a7" x="80.96625" y="322.26" style="stroke: #000000; stroke-width: 0.8"/>
      </g>
     </g>
     <g id="text_2">
      <!-- 2.5 -->
      <g transform="translate(73.014688 333.358437) scale(0.1 -0.1)">
       <defs>
        <path id="DejaVuSans-32" d="M 1228 531 
L 3431 531 
L 3431 0 
L 469 0 
L 469 531 
Q 828 903 1448 1529 
Q 2069 2156 2228 2338 
Q 2531 2678 2651 2914 
Q 2772 3150 2772 3378 
Q 2772 3750 2511 3984 
Q 2250 4219 1831 4219 
Q 1534 4219 1204 4116 
Q 875 4013 500 3803 
L 500 4441 
Q 881 4594 1212 4672 
Q 1544 4750 1819 4750 
Q 2544 4750 2975 4387 
Q 3406 4025 3406 3419 
Q 3406 3131 3298 2873 
Q 3191 2616 2906 2266 
Q 2828 2175 2409 1742 
Q 1991 1309 1228 531 
z
" transform="scale(0.015625)"/>
        <path id="DejaVuSans-35" d="M 691 4666 
L 3169 4666 
L 3169 4134 
L 1269 4134 
L 1269 2991 
Q 1406 3038 1543 3061 
Q 1681 3084 1819 3084 
Q 2600 3084 3056 2656 
Q 3513 2228 3513 1497 
Q 3513 744 3044 326 
Q 2575 -91 1722 -91 
Q 1428 -91 1123 -41 
Q 819 9 494 109 
L 494 744 
Q 775 591 1075 516 
Q 1375 441 1709 441 
Q 2250 441 2565 725 
Q 2881 1009 2881 1497 
Q 2881 1984 2565 2268 
Q 2250 2553 1709 2553 
Q 1456 2553 1204 2497 
Q 953 2441 691 2322 
L 691 4666 
z
" transform="scale(0.015625)"/>
       </defs>
       <use xlink:href="#DejaVuSans-32"/>
       <use xlink:href="#DejaVuSans-2e" x="63.623047"/>
       <use xlink:href="#DejaVuSans-35" x="95.410156"/>
      </g>
     </g>
    </g>
    <g id="xtick_3">
     <g id="line2d_3">
      <g>
       <use xlink:href="#mb06bb507a7" x="118.0125" y="322.26" style="stroke: #000000; stroke-width: 0.8"/>
      </g>
     </g>
     <g id="text_3">
      <!-- 5.0 -->
      <g transform="translate(110.060937 333.358437) scale(0.1 -0.1)">
       <use xlink:href="#DejaVuSans-35"/>
       <use xlink:href="#DejaVuSans-2e" x="63.623047"/>
       <use xlink:href="#DejaVuSans-30" x="95.410156"/>
      </g>
     </g>
    </g>
    <g id="xtick_4">
     <g id="line2d_4">
      <g>
       <use xlink:href="#mb06bb507a7" x="155.05875" y="322.26" style="stroke: #000000; stroke-width: 0.8"/>
      </g>
     </g>
     <g id="text_4">
      <!-- 7.5 -->
      <g transform="translate(147.107187 333.358437) scale(0.1 -0.1)">
       <defs>
        <path id="DejaVuSans-37" d="M 525 4666 
L 3525 4666 
L 3525 4397 
L 1831 0 
L 1172 0 
L 2766 4134 
L 525 4134 
L 525 4666 
z
" transform="scale(0.015625)"/>
       </defs>
       <use xlink:href="#DejaVuSans-37"/>
       <use xlink:href="#DejaVuSans-2e" x="63.623047"/>
       <use xlink:href="#DejaVuSans-35" x="95.410156"/>
      </g>
     </g>
    </g>
    <g id="xtick_5">
     <g id="line2d_5">
      <g>
       <use xlink:href="#mb06bb507a7" x="192.105" y="322.26" style="stroke: #000000; stroke-width: 0.8"/>
      </g>
     </g>
     <g id="text_5">
      <!-- 10.0 -->
      <g transform="translate(180.972187 333.358437) scale(0.1 -0.1)">
       <defs>
        <path id="DejaVuSans-31" d="M 794 531 
L 1825 531 
L 1825 4091 
L 703 3866 
L 703 4441 
L 1819 4666 
L 2450 4666 
L 2450 531 
L 3481 531 
L 3481 0 
L 794 0 
L 794 531 
z
" transform="scale(0.015625)"/>
       </defs>
       <use xlink:href="#DejaVuSans-31"/>
       <use xlink:href="#DejaVuSans-30" x="63.623047"/>
       <use xlink:href="#DejaVuSans-2e" x="127.246094"/>
       <use xlink:href="#DejaVuSans-30" x="159.033203"/>
      </g>
     </g>
    </g>
    <g id="xtick_6">
     <g id="line2d_6">
      <g>
       <use xlink:href="#mb06bb507a7" x="229.15125" y="322.26" style="stroke: #000000; stroke-width: 0.8"/>
      </g>
     </g>
     <g id="text_6">
      <!-- 12.5 -->
      <g transform="translate(218.018438 333.358437) scale(0.1 -0.1)">
       <use xlink:href="#DejaVuSans-31"/>
       <use xlink:href="#DejaVuSans-32" x="63.623047"/>
       <use xlink:href="#DejaVuSans-2e" x="127.246094"/>
       <use xlink:href="#DejaVuSans-35" x="159.033203"/>
      </g>
     </g>
    </g>
    <g id="xtick_7">
     <g id="line2d_7">
      <g>
       <use xlink:href="#mb06bb507a7" x="266.1975" y="322.26" style="stroke: #000000; stroke-width: 0.8"/>
      </g>
     </g>
     <g id="text_7">
      <!-- 15.0 -->
      <g transform="translate(255.064687 333.358437) scale(0.1 -0.1)">
       <use xlink:href="#DejaVuSans-31"/>
       <use xlink:href="#DejaVuSans-35" x="63.623047"/>
       <use xlink:href="#DejaVuSans-2e" x="127.246094"/>
       <use xlink:href="#DejaVuSans-30" x="159.033203"/>
      </g>
     </g>
    </g>
    <g id="xtick_8">
     <g id="line2d_8">
      <g>
       <use xlink:href="#mb06bb507a7" x="303.24375" y="322.26" style="stroke: #000000; stroke-width: 0.8"/>
      </g>
     </g>
     <g id="text_8">
      <!-- 17.5 -->
      <g transform="translate(292.110937 333.358437) scale(0.1 -0.1)">
       <use xlink:href="#DejaVuSans-31"/>
       <use xlink:href="#DejaVuSans-37" x="63.623047"/>
       <use xlink:href="#DejaVuSans-2e" x="127.246094"/>
       <use xlink:href="#DejaVuSans-35" x="159.033203"/>
      </g>
     </g>
    </g>
    <g id="xtick_9">
     <g id="line2d_9">
      <g>
       <use xlink:href="#mb06bb507a7" x="340.29" y="322.26" style="stroke: #000000; stroke-width: 0.8"/>
      </g>
     </g>
     <g id="text_9">
      <!-- 20.0 -->
      <g transform="translate(329.157187 333.358437) scale(0.1 -0.1)">
       <use xlink:href="#DejaVuSans-32"/>
       <use xlink:href="#DejaVuSans-30" x="63.623047"/>
       <use xlink:href="#DejaVuSans-2e" x="127.246094"/>
       <use xlink:href="#DejaVuSans-30" x="159.033203"/>
      </g>
     </g>
    </g>
    <g id="xtick_10">
     <g id="line2d_10">
      <defs>
       <path id="m0641a2cdc1" d="M 0 0 
L 0 -2 
" style="stroke: #000000; stroke-width: 0.6"/>
      </defs>
      <g>
       <use xlink:href="#m0641a2cdc1" x="51.32925" y="322.26" style="stroke: #000000; stroke-width: 0.6"/>
      </g>
     </g>
    </g>
    <g id="xtick_11">
     <g id="line2d_11">
      <g>
       <use xlink:href="#m0641a2cdc1" x="58.7385" y="322.26" style="stroke: #000000; stroke-width: 0.6"/>
      </g>
     </g>
    </g>
    <g id="xtick_12">
     <g id="line2d_12">
      <g>
       <use xlink:href="#m0641a2cdc1" x="66.14775" y="322.26" style="stroke: #000000; stroke-width: 0.6"/>
      </g>
     </g>
    </g>
    <g id="xtick_13">
     <g id="line2d_13">
      <g>
       <use xlink:href="#m0641a2cdc1" x="73.557" y="322.26" style="stroke: #000000; stroke-width: 0.6"/>
      </g>
     </g>
    </g>
    <g id="xtick_14">
     <g id="line2d_14">
      <g>
       <use xlink:href="#m0641a2cdc1" x="88.3755" y="322.26" style="stroke: #000000; stroke-width: 0.6"/>
      </g>
     </g>
    </g>
    <g id="xtick_15">
     <g id="line2d_15">
      <g>
       <use xlink:href="#m0641a2cdc1" x="95.78475" y="322.26" style="stroke: #000000; stroke-width: 0.6"/>
      </g>
     </g>
    </g>
    <g id="xtick_16">
     <g id="line2d_16">
      <g>
       <use xlink:href="#m0641a2cdc1" x="103.194" y="322.26" style="stroke: #000000; stroke-width: 0.6"/>
      </g>
     </g>
    </g>
    <g id="xtick_17">
     <g id="line2d_17">
      <g>
       <use xlink:href="#m0641a2cdc1" x="110.60325" y="322.26" style="stroke: #000000; stroke-width: 0.6"/>
      </g>
     </g>
    </g>
    <g id="xtick_18">
     <g id="line2d_18">
      <g>
       <use xlink:href="#m0641a2cdc1" x="125.42175" y="322.26" style="stroke: #000000; stroke-width: 0.6"/>
      </g>
     </g>
    </g>
    <g id="xtick_19">
     <g id="line2d_19">
      <g>
       <use xlink:href="#m0641a2cdc1" x="132.831" y="322.26" style="stroke: #000000; stroke-width: 0.6"/>
      </g>
     </g>
    </g>
    <g id="xtick_20">
     <g id="line2d_20">
      <g>
       <use xlink:href="#m0641a2cdc1" x="140.24025" y="322.26" style="stroke: #000000; stroke-width: 0.6"/>
      </g>
     </g>
    </g>
    <g id="xtick_21">
     <g id="line2d_21">
      <g>
       <use xlink:href="#m0641a2cdc1" x="147.6495" y="322.26" style="stroke: #000000; stroke-width: 0.6"/>
      </g>
     </g>
    </g>
    <g id="xtick_22">
     <g id="line2d_22">
      <g>
       <use xlink:href="#m0641a2cdc1" x="162.468" y="322.26" style="stroke: #000000; stroke-width: 0.6"/>
      </g>
     </g>
    </g>
    <g id="xtick_23">
     <g id="line2d_23">
      <g>
       <use xlink:href="#m0641a2cdc1" x="169.87725" y="322.26" style="stroke: #000000; stroke-width: 0.6"/>
      </g>
     </g>
    </g>
    <g id="xtick_24">
     <g id="line2d_24">
      <g>
       <use xlink:href="#m0641a2cdc1" x="177.2865" y="322.26" style="stroke: #000000; stroke-width: 0.6"/>
      </g>
     </g>
    </g>
    <g id="xtick_25">
     <g id="line2d_25">
      <g>
       <use xlink:href="#m0641a2cdc1" x="184.69575" y="322.26" style="stroke: #000000; stroke-width: 0.6"/>
      </g>
     </g>
    </g>
    <g id="xtick_26">
     <g id="line2d_26">
      <g>
       <use xlink:href="#m0641a2cdc1" x="199.51425" y="322.26" style="stroke: #000000; stroke-width: 0.6"/>
      </g>
     </g>
    </g>
    <g id="xtick_27">
     <g id="line2d_27">
      <g>
       <use xlink:href="#m0641a2cdc1" x="206.9235" y="322.26" style="stroke: #000000; stroke-width: 0.6"/>
      </g>
     </g>
    </g>
    <g id="xtick_28">
     <g id="line2d_28">
      <g>
       <use xlink:href="#m0641a2cdc1" x="214.33275" y="322.26" style="stroke: #000000; stroke-width: 0.6"/>
      </g>
     </g>
    </g>
    <g id="xtick_29">
     <g id="line2d_29">
      <g>
       <use xlink:href="#m0641a2cdc1" x="221.742" y="322.26" style="stroke: #000000; stroke-width: 0.6"/>
      </g>
     </g>
    </g>
    <g id="xtick_30">
     <g id="line2d_30">
      <g>
       <use xlink:href="#m0641a2cdc1" x="236.5605" y="322.26" style="stroke: #000000; stroke-width: 0.6"/>
      </g>
     </g>
    </g>
    <g id="xtick_31">
     <g id="line2d_31">
      <g>
       <use xlink:href="#m0641a2cdc1" x="243.96975" y="322.26" style="stroke: #000000; stroke-width: 0.6"/>
      </g>
     </g>
    </g>
    <g id="xtick_32">
     <g id="line2d_32">
      <g>
       <use xlink:href="#m0641a2cdc1" x="251.379" y="322.26" style="stroke: #000000; stroke-width: 0.6"/>
      </g>
     </g>
    </g>
    <g id="xtick_33">
     <g id="line2d_33">
      <g>
       <use xlink:href="#m0641a2cdc1" x="258.78825" y="322.26" style="stroke: #000000; stroke-width: 0.6"/>
      </g>
     </g>
    </g>
    <g id="xtick_34">
     <g id="line2d_34">
      <g>
       <use xlink:href="#m0641a2cdc1" x="273.60675" y="322.26" style="stroke: #000000; stroke-width: 0.6"/>
      </g>
     </g>
    </g>
    <g id="xtick_35">
     <g id="line2d_35">
      <g>
       <use xlink:href="#m0641a2cdc1" x="281.016" y="322.26" style="stroke: #000000; stroke-width: 0.6"/>
      </g>
     </g>
    </g>
    <g id="xtick_36">
     <g id="line2d_36">
      <g>
       <use xlink:href="#m0641a2cdc1" x="288.42525" y="322.26" style="stroke: #000000; stroke-width: 0.6"/>
      </g>
     </g>
    </g>
    <g id="xtick_37">
     <g id="line2d_37">
      <g>
       <use xlink:href="#m0641a2cdc1" x="295.8345" y="322.26" style="stroke: #000000; stroke-width: 0.6"/>
      </g>
     </g>
    </g>
    <g id="xtick_38">
     <g id="line2d_38">
      <g>
       <use xlink:href="#m0641a2cdc1" x="310.653" y="322.26" style="stroke: #000000; stroke-width: 0.6"/>
      </g>
     </g>
    </g>
    <g id="xtick_39">
     <g id="line2d_39">
      <g>
       <use xlink:href="#m0641a2cdc1" x="318.06225" y="322.26" style="stroke: #000000; stroke-width: 0.6"/>
      </g>
     </g>
    </g>
    <g id="xtick_40">
     <g id="line2d_40">
      <g>
       <use xlink:href="#m0641a2cdc1" x="325.4715" y="322.26" style="stroke: #000000; stroke-width: 0.6"/>
      </g>
     </g>
    </g>
    <g id="xtick_41">
     <g id="line2d_41">
      <g>
       <use xlink:href="#m0641a2cdc1" x="332.88075" y="322.26" style="stroke: #000000; stroke-width: 0.6"/>
      </g>
     </g>
    </g>
    <g id="text_10">
     <!-- Time (s) -->
     <g transform="translate(171.776094 347.036563) scale(0.1 -0.1)">
      <defs>
       <path id="DejaVuSans-54" d="M -19 4666 
L 3928 4666 
L 3928 4134 
L 2272 4134 
L 2272 0 
L 1638 0 
L 1638 4134 
L -19 4134 
L -19 4666 
z
" transform="scale(0.015625)"/>
       <path id="DejaVuSans-69" d="M 603 3500 
L 1178 3500 
L 1178 0 
L 603 0 
L 603 3500 
z
M 603 4863 
L 1178 4863 
L 1178 4134 
L 603 4134 
L 603 4863 
z
" transform="scale(0.015625)"/>
       <path id="DejaVuSans-6d" d="M 3328 2828 
Q 3544 3216 3844 3400 
Q 4144 3584 4550 3584 
Q 5097 3584 5394 3201 
Q 5691 2819 5691 2113 
L 5691 0 
L 5113 0 
L 5113 2094 
Q 5113 2597 4934 2840 
Q 4756 3084 4391 3084 
Q 3944 3084 3684 2787 
Q 3425 2491 3425 1978 
L 3425 0 
L 2847 0 
L 2847 2094 
Q 2847 2600 2669 2842 
Q 2491 3084 2119 3084 
Q 1678 3084 1418 2786 
Q 1159 2488 1159 1978 
L 1159 0 
L 581 0 
L 581 3500 
L 1159 3500 
L 1159 2956 
Q 1356 3278 1631 3431 
Q 1906 3584 2284 3584 
Q 2666 3584 2933 3390 
Q 3200 3197 3328 2828 
z
" transform="scale(0.015625)"/>
       <path id="DejaVuSans-65" d="M 3597 1894 
L 3597 1613 
L 953 1613 
Q 991 1019 1311 708 
Q 1631 397 2203 397 
Q 2534 397 2845 478 
Q 3156 559 3463 722 
L 3463 178 
Q 3153 47 2828 -22 
Q 2503 -91 2169 -91 
Q 1331 -91 842 396 
Q 353 884 353 1716 
Q 353 2575 817 3079 
Q 1281 3584 2069 3584 
Q 2775 3584 3186 3129 
Q 3597 2675 3597 1894 
z
M 3022 2063 
Q 3016 2534 2758 2815 
Q 2500 3097 2075 3097 
Q 1594 3097 1305 2825 
Q 1016 2553 972 2059 
L 3022 2063 
z
" transform="scale(0.015625)"/>
       <path id="DejaVuSans-20" transform="scale(0.015625)"/>
       <path id="DejaVuSans-28" d="M 1984 4856 
Q 1566 4138 1362 3434 
Q 1159 2731 1159 2009 
Q 1159 1288 1364 580 
Q 1569 -128 1984 -844 
L 1484 -844 
Q 1016 -109 783 600 
Q 550 1309 550 2009 
Q 550 2706 781 3412 
Q 1013 4119 1484 4856 
L 1984 4856 
z
" transform="scale(0.015625)"/>
       <path id="DejaVuSans-73" d="M 2834 3397 
L 2834 2853 
Q 2591 2978 2328 3040 
Q 2066 3103 1784 3103 
Q 1356 3103 1142 2972 
Q 928 2841 928 2578 
Q 928 2378 1081 2264 
Q 1234 2150 1697 2047 
L 1894 2003 
Q 2506 1872 2764 1633 
Q 3022 1394 3022 966 
Q 3022 478 2636 193 
Q 2250 -91 1575 -91 
Q 1294 -91 989 -36 
Q 684 19 347 128 
L 347 722 
Q 666 556 975 473 
Q 1284 391 1588 391 
Q 1994 391 2212 530 
Q 2431 669 2431 922 
Q 2431 1156 2273 1281 
Q 2116 1406 1581 1522 
L 1381 1569 
Q 847 1681 609 1914 
Q 372 2147 372 2553 
Q 372 3047 722 3315 
Q 1072 3584 1716 3584 
Q 2034 3584 2315 3537 
Q 2597 3491 2834 3397 
z
" transform="scale(0.015625)"/>
       <path id="DejaVuSans-29" d="M 513 4856 
L 1013 4856 
Q 1481 4119 1714 3412 
Q 1947 2706 1947 2009 
Q 1947 1309 1714 600 
Q 1481 -109 1013 -844 
L 513 -844 
Q 928 -128 1133 580 
Q 1338 1288 1338 2009 
Q 1338 2731 1133 3434 
Q 928 4138 513 4856 
z
" transform="scale(0.015625)"/>
      </defs>
      <use xlink:href="#DejaVuSans-54"/>
      <use xlink:href="#DejaVuSans-69" x="57.958984"/>
      <use xlink:href="#DejaVuSans-6d" x="85.742188"/>
      <use xlink:href="#DejaVuSans-65" x="183.154297"/>
      <use xlink:href="#DejaVuSans-20" x="244.677734"/>
      <use xlink:href="#DejaVuSans-28" x="276.464844"/>
      <use xlink:href="#DejaVuSans-73" x="315.478516"/>
      <use xlink:href="#DejaVuSans-29" x="367.578125"/>
     </g>
    </g>
   </g>
   <g id="matplotlib.axis_2">
    <g id="ytick_1">
     <g id="line2d_42">
      <defs>
       <path id="m84fc5750c7" d="M 0 0 
L 3.5 0 
" style="stroke: #000000; stroke-width: 0.8"/>
      </defs>
      <g>
       <use xlink:href="#m84fc5750c7" x="43.92" y="322.26" style="stroke: #000000; stroke-width: 0.8"/>
      </g>
     </g>
     <g id="text_11">
      <!-- 0.0 -->
      <g transform="translate(24.516875 326.059219) scale(0.1 -0.1)">
       <use xlink:href="#DejaVuSans-30"/>
       <use xlink:href="#DejaVuSans-2e" x="63.623047"/>
       <use xlink:href="#DejaVuSans-30" x="95.410156"/>
      </g>
     </g>
    </g>
    <g id="ytick_2">
     <g id="line2d_43">
      <g>
       <use xlink:href="#m84fc5750c7" x="43.92" y="270.99" style="stroke: #000000; stroke-width: 0.8"/>
      </g>
     </g>
     <g id="text_12">
      <!-- 0.1 -->
      <g transform="translate(24.516875 274.789219) scale(0.1 -0.1)">
       <use xlink:href="#DejaVuSans-30"/>
       <use xlink:href="#DejaVuSans-2e" x="63.623047"/>
       <use xlink:href="#DejaVuSans-31" x="95.410156"/>
      </g>
     </g>
    </g>
    <g id="ytick_3">
     <g id="line2d_44">
      <g>
       <use xlink:href="#m84fc5750c7" x="43.92" y="219.72" style="stroke: #000000; stroke-width: 0.8"/>
      </g>
     </g>
     <g id="text_13">
      <!-- 0.2 -->
      <g transform="translate(24.516875 223.519219) scale(0.1 -0.1)">
       <use xlink:href="#DejaVuSans-30"/>
       <use xlink:href="#DejaVuSans-2e" x="63.623047"/>
       <use xlink:href="#DejaVuSans-32" x="95.410156"/>
      </g>
     </g>
    </g>
    <g id="ytick_4">
     <g id="line2d_45">
      <g>
       <use xlink:href="#m84fc5750c7" x="43.92" y="168.45" style="stroke: #000000; stroke-width: 0.8"/>
      </g>
     </g>
     <g id="text_14">
      <!-- 0.3 -->
      <g transform="translate(24.516875 172.249219) scale(0.1 -0.1)">
       <defs>
        <path id="DejaVuSans-33" d="M 2597 2516 
Q 3050 2419 3304 2112 
Q 3559 1806 3559 1356 
Q 3559 666 3084 287 
Q 2609 -91 1734 -91 
Q 1441 -91 1130 -33 
Q 819 25 488 141 
L 488 750 
Q 750 597 1062 519 
Q 1375 441 1716 441 
Q 2309 441 2620 675 
Q 2931 909 2931 1356 
Q 2931 1769 2642 2001 
Q 2353 2234 1838 2234 
L 1294 2234 
L 1294 2753 
L 1863 2753 
Q 2328 2753 2575 2939 
Q 2822 3125 2822 3475 
Q 2822 3834 2567 4026 
Q 2313 4219 1838 4219 
Q 1578 4219 1281 4162 
Q 984 4106 628 3988 
L 628 4550 
Q 988 4650 1302 4700 
Q 1616 4750 1894 4750 
Q 2613 4750 3031 4423 
Q 3450 4097 3450 3541 
Q 3450 3153 3228 2886 
Q 3006 2619 2597 2516 
z
" transform="scale(0.015625)"/>
       </defs>
       <use xlink:href="#DejaVuSans-30"/>
       <use xlink:href="#DejaVuSans-2e" x="63.623047"/>
       <use xlink:href="#DejaVuSans-33" x="95.410156"/>
      </g>
     </g>
    </g>
    <g id="ytick_5">
     <g id="line2d_46">
      <g>
       <use xlink:href="#m84fc5750c7" x="43.92" y="117.18" style="stroke: #000000; stroke-width: 0.8"/>
      </g>
     </g>
     <g id="text_15">
      <!-- 0.4 -->
      <g transform="translate(24.516875 120.979219) scale(0.1 -0.1)">
       <defs>
        <path id="DejaVuSans-34" d="M 2419 4116 
L 825 1625 
L 2419 1625 
L 2419 4116 
z
M 2253 4666 
L 3047 4666 
L 3047 1625 
L 3713 1625 
L 3713 1100 
L 3047 1100 
L 3047 0 
L 2419 0 
L 2419 1100 
L 313 1100 
L 313 1709 
L 2253 4666 
z
" transform="scale(0.015625)"/>
       </defs>
       <use xlink:href="#DejaVuSans-30"/>
       <use xlink:href="#DejaVuSans-2e" x="63.623047"/>
       <use xlink:href="#DejaVuSans-34" x="95.410156"/>
      </g>
     </g>
    </g>
    <g id="ytick_6">
     <g id="line2d_47">
      <g>
       <use xlink:href="#m84fc5750c7" x="43.92" y="65.91" style="stroke: #000000; stroke-width: 0.8"/>
      </g>
     </g>
     <g id="text_16">
      <!-- 0.5 -->
      <g transform="translate(24.516875 69.709219) scale(0.1 -0.1)">
       <use xlink:href="#DejaVuSans-30"/>
       <use xlink:href="#DejaVuSans-2e" x="63.623047"/>
       <use xlink:href="#DejaVuSans-35" x="95.410156"/>
      </g>
     </g>
    </g>
    <g id="ytick_7">
     <g id="line2d_48">
      <g>
       <use xlink:href="#m84fc5750c7" x="43.92" y="14.64" style="stroke: #000000; stroke-width: 0.8"/>
      </g>
     </g>
     <g id="text_17">
      <!-- 0.6 -->
      <g transform="translate(24.516875 18.439219) scale(0.1 -0.1)">
       <defs>
        <path id="DejaVuSans-36" d="M 2113 2584 
Q 1688 2584 1439 2293 
Q 1191 2003 1191 1497 
Q 1191 994 1439 701 
Q 1688 409 2113 409 
Q 2538 409 2786 701 
Q 3034 994 3034 1497 
Q 3034 2003 2786 2293 
Q 2538 2584 2113 2584 
z
M 3366 4563 
L 3366 3988 
Q 3128 4100 2886 4159 
Q 2644 4219 2406 4219 
Q 1781 4219 1451 3797 
Q 1122 3375 1075 2522 
Q 1259 2794 1537 2939 
Q 1816 3084 2150 3084 
Q 2853 3084 3261 2657 
Q 3669 2231 3669 1497 
Q 3669 778 3244 343 
Q 2819 -91 2113 -91 
Q 1303 -91 875 529 
Q 447 1150 447 2328 
Q 447 3434 972 4092 
Q 1497 4750 2381 4750 
Q 2619 4750 2861 4703 
Q 3103 4656 3366 4563 
z
" transform="scale(0.015625)"/>
       </defs>
       <use xlink:href="#DejaVuSans-30"/>
       <use xlink:href="#DejaVuSans-2e" x="63.623047"/>
       <use xlink:href="#DejaVuSans-36" x="95.410156"/>
      </g>
     </g>
    </g>
    <g id="ytick_8">
     <g id="line2d_49">
      <defs>
       <path id="m16357a538d" d="M 0 0 
L 2 0 
" style="stroke: #000000; stroke-width: 0.6"/>
      </defs>
      <g>
       <use xlink:href="#m16357a538d" x="43.92" y="312.006" style="stroke: #000000; stroke-width: 0.6"/>
      </g>
     </g>
    </g>
    <g id="ytick_9">
     <g id="line2d_50">
      <g>
       <use xlink:href="#m16357a538d" x="43.92" y="301.752" style="stroke: #000000; stroke-width: 0.6"/>
      </g>
     </g>
    </g>
    <g id="ytick_10">
     <g id="line2d_51">
      <g>
       <use xlink:href="#m16357a538d" x="43.92" y="291.498" style="stroke: #000000; stroke-width: 0.6"/>
      </g>
     </g>
    </g>
    <g id="ytick_11">
     <g id="line2d_52">
      <g>
       <use xlink:href="#m16357a538d" x="43.92" y="281.244" style="stroke: #000000; stroke-width: 0.6"/>
      </g>
     </g>
    </g>
    <g id="ytick_12">
     <g id="line2d_53">
      <g>
       <use xlink:href="#m16357a538d" x="43.92" y="260.736" style="stroke: #000000; stroke-width: 0.6"/>
      </g>
     </g>
    </g>
    <g id="ytick_13">
     <g id="line2d_54">
      <g>
       <use xlink:href="#m16357a538d" x="43.92" y="250.482" style="stroke: #000000; stroke-width: 0.6"/>
      </g>
     </g>
    </g>
    <g id="ytick_14">
     <g id="line2d_55">
      <g>
       <use xlink:href="#m16357a538d" x="43.92" y="240.228" style="stroke: #000000; stroke-width: 0.6"/>
      </g>
     </g>
    </g>
    <g id="ytick_15">
     <g id="line2d_56">
      <g>
       <use xlink:href="#m16357a538d" x="43.92" y="229.974" style="stroke: #000000; stroke-width: 0.6"/>
      </g>
     </g>
    </g>
    <g id="ytick_16">
     <g id="line2d_57">
      <g>
       <use xlink:href="#m16357a538d" x="43.92" y="209.466" style="stroke: #000000; stroke-width: 0.6"/>
      </g>
     </g>
    </g>
    <g id="ytick_17">
     <g id="line2d_58">
      <g>
       <use xlink:href="#m16357a538d" x="43.92" y="199.212" style="stroke: #000000; stroke-width: 0.6"/>
      </g>
     </g>
    </g>
    <g id="ytick_18">
     <g id="line2d_59">
      <g>
       <use xlink:href="#m16357a538d" x="43.92" y="188.958" style="stroke: #000000; stroke-width: 0.6"/>
      </g>
     </g>
    </g>
    <g id="ytick_19">
     <g id="line2d_60">
      <g>
       <use xlink:href="#m16357a538d" x="43.92" y="178.704" style="stroke: #000000; stroke-width: 0.6"/>
      </g>
     </g>
    </g>
    <g id="ytick_20">
     <g id="line2d_61">
      <g>
       <use xlink:href="#m16357a538d" x="43.92" y="158.196" style="stroke: #000000; stroke-width: 0.6"/>
      </g>
     </g>
    </g>
    <g id="ytick_21">
     <g id="line2d_62">
      <g>
       <use xlink:href="#m16357a538d" x="43.92" y="147.942" style="stroke: #000000; stroke-width: 0.6"/>
      </g>
     </g>
    </g>
    <g id="ytick_22">
     <g id="line2d_63">
      <g>
       <use xlink:href="#m16357a538d" x="43.92" y="137.688" style="stroke: #000000; stroke-width: 0.6"/>
      </g>
     </g>
    </g>
    <g id="ytick_23">
     <g id="line2d_64">
      <g>
       <use xlink:href="#m16357a538d" x="43.92" y="127.434" style="stroke: #000000; stroke-width: 0.6"/>
      </g>
     </g>
    </g>
    <g id="ytick_24">
     <g id="line2d_65">
      <g>
       <use xlink:href="#m16357a538d" x="43.92" y="106.926" style="stroke: #000000; stroke-width: 0.6"/>
      </g>
     </g>
    </g>
    <g id="ytick_25">
     <g id="line2d_66">
      <g>
       <use xlink:href="#m16357a538d" x="43.92" y="96.672" style="stroke: #000000; stroke-width: 0.6"/>
      </g>
     </g>
    </g>
    <g id="ytick_26">
     <g id="line2d_67">
      <g>
       <use xlink:href="#m16357a538d" x="43.92" y="86.418" style="stroke: #000000; stroke-width: 0.6"/>
      </g>
     </g>
    </g>
    <g id="ytick_27">
     <g id="line2d_68">
      <g>
       <use xlink:href="#m16357a538d" x="43.92" y="76.164" style="stroke: #000000; stroke-width: 0.6"/>
      </g>
     </g>
    </g>
    <g id="ytick_28">
     <g id="line2d_69">
      <g>
       <use xlink:href="#m16357a538d" x="43.92" y="55.656" style="stroke: #000000; stroke-width: 0.6"/>
      </g>
     </g>
    </g>
    <g id="ytick_29">
     <g id="line2d_70">
      <g>
       <use xlink:href="#m16357a538d" x="43.92" y="45.402" style="stroke: #000000; stroke-width: 0.6"/>
      </g>
     </g>
    </g>
    <g id="ytick_30">
     <g id="line2d_71">
      <g>
       <use xlink:href="#m16357a538d" x="43.92" y="35.148" style="stroke: #000000; stroke-width: 0.6"/>
      </g>
     </g>
    </g>
    <g id="ytick_31">
     <g id="line2d_72">
      <g>
       <use xlink:href="#m16357a538d" x="43.92" y="24.894" style="stroke: #000000; stroke-width: 0.6"/>
      </g>
     </g>
    </g>
    <g id="text_18">
     <!-- Curent (A) -->
     <g transform="translate(18.437187 194.169531) rotate(-90) scale(0.1 -0.1)">
      <defs>
       <path id="DejaVuSans-43" d="M 4122 4306 
L 4122 3641 
Q 3803 3938 3442 4084 
Q 3081 4231 2675 4231 
Q 1875 4231 1450 3742 
Q 1025 3253 1025 2328 
Q 1025 1406 1450 917 
Q 1875 428 2675 428 
Q 3081 428 3442 575 
Q 3803 722 4122 1019 
L 4122 359 
Q 3791 134 3420 21 
Q 3050 -91 2638 -91 
Q 1578 -91 968 557 
Q 359 1206 359 2328 
Q 359 3453 968 4101 
Q 1578 4750 2638 4750 
Q 3056 4750 3426 4639 
Q 3797 4528 4122 4306 
z
" transform="scale(0.015625)"/>
       <path id="DejaVuSans-75" d="M 544 1381 
L 544 3500 
L 1119 3500 
L 1119 1403 
Q 1119 906 1312 657 
Q 1506 409 1894 409 
Q 2359 409 2629 706 
Q 2900 1003 2900 1516 
L 2900 3500 
L 3475 3500 
L 3475 0 
L 2900 0 
L 2900 538 
Q 2691 219 2414 64 
Q 2138 -91 1772 -91 
Q 1169 -91 856 284 
Q 544 659 544 1381 
z
M 1991 3584 
L 1991 3584 
z
" transform="scale(0.015625)"/>
       <path id="DejaVuSans-72" d="M 2631 2963 
Q 2534 3019 2420 3045 
Q 2306 3072 2169 3072 
Q 1681 3072 1420 2755 
Q 1159 2438 1159 1844 
L 1159 0 
L 581 0 
L 581 3500 
L 1159 3500 
L 1159 2956 
Q 1341 3275 1631 3429 
Q 1922 3584 2338 3584 
Q 2397 3584 2469 3576 
Q 2541 3569 2628 3553 
L 2631 2963 
z
" transform="scale(0.015625)"/>
       <path id="DejaVuSans-6e" d="M 3513 2113 
L 3513 0 
L 2938 0 
L 2938 2094 
Q 2938 2591 2744 2837 
Q 2550 3084 2163 3084 
Q 1697 3084 1428 2787 
Q 1159 2491 1159 1978 
L 1159 0 
L 581 0 
L 581 3500 
L 1159 3500 
L 1159 2956 
Q 1366 3272 1645 3428 
Q 1925 3584 2291 3584 
Q 2894 3584 3203 3211 
Q 3513 2838 3513 2113 
z
" transform="scale(0.015625)"/>
       <path id="DejaVuSans-74" d="M 1172 4494 
L 1172 3500 
L 2356 3500 
L 2356 3053 
L 1172 3053 
L 1172 1153 
Q 1172 725 1289 603 
Q 1406 481 1766 481 
L 2356 481 
L 2356 0 
L 1766 0 
Q 1100 0 847 248 
Q 594 497 594 1153 
L 594 3053 
L 172 3053 
L 172 3500 
L 594 3500 
L 594 4494 
L 1172 4494 
z
" transform="scale(0.015625)"/>
       <path id="DejaVuSans-41" d="M 2188 4044 
L 1331 1722 
L 3047 1722 
L 2188 4044 
z
M 1831 4666 
L 2547 4666 
L 4325 0 
L 3669 0 
L 3244 1197 
L 1141 1197 
L 716 0 
L 50 0 
L 1831 4666 
z
" transform="scale(0.015625)"/>
      </defs>
      <use xlink:href="#DejaVuSans-43"/>
      <use xlink:href="#DejaVuSans-75" x="69.824219"/>
      <use xlink:href="#DejaVuSans-72" x="133.203125"/>
      <use xlink:href="#DejaVuSans-65" x="172.066406"/>
      <use xlink:href="#DejaVuSans-6e" x="233.589844"/>
      <use xlink:href="#DejaVuSans-74" x="296.96875"/>
      <use xlink:href="#DejaVuSans-20" x="336.177734"/>
      <use xlink:href="#DejaVuSans-28" x="367.964844"/>
      <use xlink:href="#DejaVuSans-41" x="406.978516"/>
      <use xlink:href="#DejaVuSans-29" x="475.386719"/>
     </g>
    </g>
   </g>
   <g id="line2d_73">
    <path d="M 43.92 322.26 
L 46.8837 312.208368 
L 49.8474 302.55085 
L 52.8111 293.272024 
L 55.7748 284.357046 
L 58.7385 275.791631 
L 61.7022 267.561802 
L 64.6659 259.652875 
L 67.6296 252.052786 
L 70.5933 244.750212 
L 73.557 237.734109 
L 76.5207 230.993713 
L 79.4844 224.51854 
L 82.4481 218.298384 
L 85.4118 212.32332 
L 88.3755 206.583701 
L 91.3392 201.070161 
L 94.3029 195.773614 
L 97.2666 190.68525 
L 100.2303 185.796543 
L 103.194 181.099244 
L 106.1577 176.585384 
L 109.1214 172.247272 
L 112.0851 168.077369 
L 115.0488 164.068626 
L 118.0125 160.215462 
L 120.9762 156.512498 
L 123.9399 152.954456 
L 126.9036 149.536167 
L 129.8673 146.252562 
L 132.831 143.098676 
L 135.7947 140.06965 
L 138.7584 137.160726 
L 141.7221 134.367253 
L 144.6858 131.684679 
L 147.6495 129.108561 
L 150.6132 126.634557 
L 153.5769 124.258428 
L 156.5406 121.976042 
L 159.5043 119.783366 
L 162.468 117.676476 
L 165.4317 115.651547 
L 168.3954 113.704862 
L 171.3591 111.832805 
L 174.3228 110.031908 
L 177.2865 108.299474 
L 180.2502 106.633386 
L 183.2139 105.031566 
L 186.1776 103.491961 
L 189.1413 102.012543 
L 192.105 100.59131 
L 195.0687 99.226285 
L 198.0324 97.915515 
L 200.9961 96.657075 
L 203.9598 95.449061 
L 206.9235 94.289597 
L 209.8872 93.176833 
L 212.8509 92.108941 
L 215.8146 91.084121 
L 218.7783 90.100597 
L 221.742 89.156617 
L 224.7057 88.250458 
L 227.6694 87.380417 
L 230.6331 86.54482 
L 233.5968 85.742017 
L 236.5605 84.970383 
L 239.5242 84.228317 
L 242.4879 83.514247 
L 245.4516 82.826622 
L 248.4153 82.163937 
L 251.379 81.525404 
L 254.3427 80.910542 
L 257.3064 80.318744 
L 260.2701 79.749401 
L 263.2338 79.201906 
L 266.1975 78.67565 
L 269.1612 78.170024 
L 272.1249 77.684421 
L 275.0886 77.21823 
L 278.0523 76.770843 
L 281.016 76.34165 
L 283.9797 75.930041 
L 286.9434 75.535407 
L 289.9071 75.157137 
L 292.8708 74.794622 
L 295.8345 74.447249 
L 298.7982 74.11441 
L 301.7619 73.795491 
L 304.7256 73.489883 
L 307.6893 73.196974 
L 310.653 72.916151 
L 313.6167 72.646803 
L 316.5804 72.388318 
L 319.5441 72.140083 
L 322.5078 71.901485 
L 325.4715 71.671912 
L 328.4352 71.45075 
L 331.3989 71.237387 
L 334.3626 71.031207 
L 337.3263 70.831598 
L 340.29 70.638648 
" clip-path="url(#p2681896994)" style="fill: none; stroke: #1f77b4; stroke-width: 1.5; stroke-linecap: square"/>
   </g>
   <g id="line2d_74">
    <path d="M 43.92 322.26 
L 46.8837 312.501799 
L 49.8474 303.671385 
L 52.8111 295.681992 
L 55.7748 288.453936 
L 58.7385 281.914013 
L 61.7022 275.995008 
L 64.6659 270.635443 
L 67.6296 265.78562 
L 70.5933 261.399704 
L 73.557 257.434502 
L 76.5207 253.849456 
L 79.4844 250.606647 
L 82.4481 247.670793 
L 85.4118 245.009601 
L 88.3755 242.597994 
L 91.3392 240.415492 
L 94.3029 238.442496 
L 97.2666 236.660224 
L 100.2303 235.050713 
L 103.194 233.596817 
L 106.1577 232.282205 
L 109.1214 231.091367 
L 112.0851 230.009767 
L 115.0488 229.027058 
L 118.0125 228.136194 
L 120.9762 227.3303 
L 123.9399 226.602614 
L 126.9036 225.946491 
L 129.8673 225.3554 
L 132.831 224.822922 
L 135.7947 224.342757 
L 138.7584 223.908715 
L 141.7221 223.514724 
L 144.6858 223.154883 
L 147.6495 222.825936 
L 150.6132 222.526545 
L 153.5769 222.255054 
L 156.5406 222.009746 
L 159.5043 221.788843 
L 162.468 221.590508 
L 165.4317 221.412843 
L 168.3954 221.253889 
L 171.3591 221.111629 
L 174.3228 220.983984 
L 177.2865 220.868815 
L 180.2502 220.763923 
L 183.2139 220.667048 
L 186.1776 220.576551 
L 189.1413 220.493037 
L 192.105 220.416509 
L 195.0687 220.346847 
L 198.0324 220.28387 
L 200.9961 220.22734 
L 203.9598 220.17696 
L 206.9235 220.132373 
L 209.8872 220.093164 
L 212.8509 220.058861 
L 215.8146 220.028931 
L 218.7783 220.002784 
L 221.742 219.97977 
L 224.7057 219.959181 
L 227.6694 219.94025 
L 230.6331 219.922153 
L 233.5968 219.904005 
L 236.5605 219.885949 
L 239.5242 219.868771 
L 242.4879 219.852631 
L 245.4516 219.837662 
L 248.4153 219.823967 
L 251.379 219.811622 
L 254.3427 219.800675 
L 257.3064 219.791145 
L 260.2701 219.783022 
L 263.2338 219.776271 
L 266.1975 219.770825 
L 269.1612 219.766592 
L 272.1249 219.763449 
L 275.0886 219.761247 
L 278.0523 219.759808 
L 281.016 219.758926 
L 283.9797 219.758365 
L 286.9434 219.757865 
L 289.9071 219.757132 
L 292.8708 219.75585 
L 295.8345 219.75367 
L 298.7982 219.750566 
L 301.7619 219.747619 
L 304.7256 219.744935 
L 307.6893 219.742501 
L 310.653 219.740304 
L 313.6167 219.738329 
L 316.5804 219.736562 
L 319.5441 219.734986 
L 322.5078 219.733584 
L 325.4715 219.732336 
L 328.4352 219.731225 
L 331.3989 219.730228 
L 334.3626 219.729324 
L 337.3263 219.728492 
L 340.29 219.727706 
" clip-path="url(#p2681896994)" style="fill: none; stroke: #ff7f0e; stroke-width: 1.5; stroke-linecap: square"/>
   </g>
   <g id="line2d_75">
    <path d="M 43.92 322.26 
L 46.8837 315.77732 
L 49.8474 313.393554 
L 52.8111 312.516107 
L 55.7748 312.193044 
L 58.7385 312.075932 
L 61.7022 312.031697 
L 64.6659 312.015396 
L 67.6296 312.009588 
L 70.5933 312.007889 
L 73.557 312.005523 
L 76.5207 312.00705 
L 79.4844 312.006197 
L 82.4481 312.002228 
L 85.4118 312.00434 
L 88.3755 312.0105 
L 91.3392 312.007632 
L 94.3029 312.002154 
L 97.2666 312.007348 
L 100.2303 312.011215 
L 103.194 312.00276 
L 106.1577 312.003954 
L 109.1214 312.012645 
L 112.0851 312.00549 
L 115.0488 312.000423 
L 118.0125 312.01032 
L 120.9762 312.01189 
L 123.9399 312.000852 
L 126.9036 312.005807 
L 129.8673 312.015146 
L 132.831 312.004517 
L 135.7947 312.003928 
L 138.7584 312.013139 
L 141.7221 312.006353 
L 144.6858 312.003395 
L 147.6495 312.010788 
L 150.6132 312.007326 
L 153.5769 312.002215 
L 156.5406 312.008515 
L 159.5043 312.010313 
L 162.468 312.001276 
L 165.4317 312.00448 
L 168.3954 312.014049 
L 171.3591 312.004714 
L 174.3228 312.000415 
L 177.2865 312.012041 
L 180.2502 312.011125 
L 183.2139 312.001315 
L 186.1776 312.00804 
L 189.1413 312.013031 
L 192.105 312.00363 
L 195.0687 312.006067 
L 198.0324 312.012096 
L 200.9961 312.004299 
L 203.9598 312.004415 
L 206.9235 312.011462 
L 209.8872 312.0053 
L 212.8509 312.001727 
L 215.8146 312.009907 
L 218.7783 312.01001 
L 221.742 312.000028 
L 224.7057 312.005107 
L 227.6694 312.015551 
L 230.6331 312.00436 
L 233.5968 312.001465 
L 236.5605 312.013657 
L 239.5242 312.009252 
L 242.4879 312.002416 
L 245.4516 312.010131 
L 248.4153 312.009785 
L 251.379 312.003171 
L 254.3427 312.007879 
L 257.3064 312.010021 
L 260.2701 312.002727 
L 263.2338 312.005322 
L 266.1975 312.012063 
L 269.1612 312.003672 
L 272.1249 312.001043 
L 275.0886 312.011453 
L 278.0523 312.010341 
L 281.016 311.99945 
L 283.9797 312.00627 
L 286.9434 312.016265 
L 289.9071 312.004118 
L 292.8708 312.003678 
L 295.8345 312.014197 
L 298.7982 312.006752 
L 301.7619 312.003862 
L 304.7256 312.011172 
L 307.6893 312.006839 
L 310.653 312.003091 
L 313.6167 312.009245 
L 316.5804 312.008387 
L 319.5441 312.00125 
L 322.5078 312.006011 
L 325.4715 312.013228 
L 328.4352 312.002582 
L 331.3989 312.000381 
L 334.3626 312.01322 
L 337.3263 312.012569 
L 340.29 312.008461 
" clip-path="url(#p2681896994)" style="fill: none; stroke: #2ca02c; stroke-width: 1.5; stroke-linecap: square"/>
   </g>
   <g id="patch_3">
    <path d="M 43.92 322.26 
L 43.92 14.64 
" style="fill: none; stroke: #000000; stroke-width: 0.8; stroke-linejoin: miter; stroke-linecap: square"/>
   </g>
   <g id="patch_4">
    <path d="M 340.29 322.26 
L 340.29 14.64 
" style="fill: none; stroke: #000000; stroke-width: 0.8; stroke-linejoin: miter; stroke-linecap: square"/>
   </g>
   <g id="patch_5">
    <path d="M 43.92 322.26 
L 340.29 322.26 
" style="fill: none; stroke: #000000; stroke-width: 0.8; stroke-linejoin: miter; stroke-linecap: square"/>
   </g>
   <g id="patch_6">
    <path d="M 43.92 14.64 
L 340.29 14.64 
" style="fill: none; stroke: #000000; stroke-width: 0.8; stroke-linejoin: miter; stroke-linecap: square"/>
   </g>
   <g id="legend_1">
    <g id="patch_7">
     <path d="M 252.79 66.674375 
L 333.29 66.674375 
Q 335.29 66.674375 335.29 64.674375 
L 335.29 21.64 
Q 335.29 19.64 333.29 19.64 
L 252.79 19.64 
Q 250.79 19.64 250.79 21.64 
L 250.79 64.674375 
Q 250.79 66.674375 252.79 66.674375 
z
" style="fill: #ffffff; opacity: 0.8; stroke: #cccccc; stroke-linejoin: miter"/>
    </g>
    <g id="line2d_76">
     <path d="M 254.79 27.738438 
L 264.79 27.738438 
L 274.79 27.738438 
" style="fill: none; stroke: #1f77b4; stroke-width: 1.5; stroke-linecap: square"/>
    </g>
    <g id="text_19">
     <!-- R = 20$\Omega$ -->
     <g transform="translate(282.79 31.238438) scale(0.1 -0.1)">
      <defs>
       <path id="DejaVuSans-52" d="M 2841 2188 
Q 3044 2119 3236 1894 
Q 3428 1669 3622 1275 
L 4263 0 
L 3584 0 
L 2988 1197 
Q 2756 1666 2539 1819 
Q 2322 1972 1947 1972 
L 1259 1972 
L 1259 0 
L 628 0 
L 628 4666 
L 2053 4666 
Q 2853 4666 3247 4331 
Q 3641 3997 3641 3322 
Q 3641 2881 3436 2590 
Q 3231 2300 2841 2188 
z
M 1259 4147 
L 1259 2491 
L 2053 2491 
Q 2509 2491 2742 2702 
Q 2975 2913 2975 3322 
Q 2975 3731 2742 3939 
Q 2509 4147 2053 4147 
L 1259 4147 
z
" transform="scale(0.015625)"/>
       <path id="DejaVuSans-3d" d="M 678 2906 
L 4684 2906 
L 4684 2381 
L 678 2381 
L 678 2906 
z
M 678 1631 
L 4684 1631 
L 4684 1100 
L 678 1100 
L 678 1631 
z
" transform="scale(0.015625)"/>
       <path id="DejaVuSans-3a9" d="M 4647 556 
L 4647 0 
L 2772 0 
L 2772 556 
Q 3325 859 3634 1378 
Q 3944 1897 3944 2528 
Q 3944 3278 3531 3731 
Q 3119 4184 2444 4184 
Q 1769 4184 1355 3729 
Q 941 3275 941 2528 
Q 941 1897 1250 1378 
Q 1563 859 2119 556 
L 2119 0 
L 244 0 
L 244 556 
L 1241 556 
Q 747 991 519 1456 
Q 294 1922 294 2497 
Q 294 3491 894 4106 
Q 1491 4722 2444 4722 
Q 3391 4722 3994 4106 
Q 4594 3494 4594 2528 
Q 4594 1922 4372 1459 
Q 4150 997 3647 556 
L 4647 556 
z
" transform="scale(0.015625)"/>
      </defs>
      <use xlink:href="#DejaVuSans-52" transform="translate(0 0.78125)"/>
      <use xlink:href="#DejaVuSans-20" transform="translate(69.482422 0.78125)"/>
      <use xlink:href="#DejaVuSans-3d" transform="translate(101.269531 0.78125)"/>
      <use xlink:href="#DejaVuSans-20" transform="translate(185.058594 0.78125)"/>
      <use xlink:href="#DejaVuSans-32" transform="translate(216.845703 0.78125)"/>
      <use xlink:href="#DejaVuSans-30" transform="translate(280.46875 0.78125)"/>
      <use xlink:href="#DejaVuSans-3a9" transform="translate(344.091797 0.78125)"/>
     </g>
    </g>
    <g id="line2d_77">
     <path d="M 254.79 42.416563 
L 264.79 42.416563 
L 274.79 42.416563 
" style="fill: none; stroke: #ff7f0e; stroke-width: 1.5; stroke-linecap: square"/>
    </g>
    <g id="text_20">
     <!-- R = 50$\Omega$ -->
     <g transform="translate(282.79 45.916563) scale(0.1 -0.1)">
      <use xlink:href="#DejaVuSans-52" transform="translate(0 0.78125)"/>
      <use xlink:href="#DejaVuSans-20" transform="translate(69.482422 0.78125)"/>
      <use xlink:href="#DejaVuSans-3d" transform="translate(101.269531 0.78125)"/>
      <use xlink:href="#DejaVuSans-20" transform="translate(185.058594 0.78125)"/>
      <use xlink:href="#DejaVuSans-35" transform="translate(216.845703 0.78125)"/>
      <use xlink:href="#DejaVuSans-30" transform="translate(280.46875 0.78125)"/>
      <use xlink:href="#DejaVuSans-3a9" transform="translate(344.091797 0.78125)"/>
     </g>
    </g>
    <g id="line2d_78">
     <path d="M 254.79 57.094688 
L 264.79 57.094688 
L 274.79 57.094688 
" style="fill: none; stroke: #2ca02c; stroke-width: 1.5; stroke-linecap: square"/>
    </g>
    <g id="text_21">
     <!-- R = 500$\Omega$ -->
     <g transform="translate(282.79 60.594688) scale(0.1 -0.1)">
      <use xlink:href="#DejaVuSans-52" transform="translate(0 0.78125)"/>
      <use xlink:href="#DejaVuSans-20" transform="translate(69.482422 0.78125)"/>
      <use xlink:href="#DejaVuSans-3d" transform="translate(101.269531 0.78125)"/>
      <use xlink:href="#DejaVuSans-20" transform="translate(185.058594 0.78125)"/>
      <use xlink:href="#DejaVuSans-35" transform="translate(216.845703 0.78125)"/>
      <use xlink:href="#DejaVuSans-30" transform="translate(280.46875 0.78125)"/>
      <use xlink:href="#DejaVuSans-30" transform="translate(344.091797 0.78125)"/>
      <use xlink:href="#DejaVuSans-3a9" transform="translate(407.714844 0.78125)"/>
     </g>
    </g>
   </g>
  </g>
  <g id="axes_2">
   <g id="patch_8">
    <path d="M 401.7 322.26 
L 698.07 322.26 
L 698.07 14.64 
L 401.7 14.64 
z
" style="fill: #ffffff"/>
   </g>
   <g id="matplotlib.axis_3">
    <g id="xtick_42">
     <g id="line2d_79">
      <g>
       <use xlink:href="#mb06bb507a7" x="401.7" y="322.26" style="stroke: #000000; stroke-width: 0.8"/>
      </g>
     </g>
     <g id="text_22">
      <!-- 0.0 -->
      <g transform="translate(393.748438 333.358437) scale(0.1 -0.1)">
       <use xlink:href="#DejaVuSans-30"/>
       <use xlink:href="#DejaVuSans-2e" x="63.623047"/>
       <use xlink:href="#DejaVuSans-30" x="95.410156"/>
      </g>
     </g>
    </g>
    <g id="xtick_43">
     <g id="line2d_80">
      <g>
       <use xlink:href="#mb06bb507a7" x="438.74625" y="322.26" style="stroke: #000000; stroke-width: 0.8"/>
      </g>
     </g>
     <g id="text_23">
      <!-- 2.5 -->
      <g transform="translate(430.794688 333.358437) scale(0.1 -0.1)">
       <use xlink:href="#DejaVuSans-32"/>
       <use xlink:href="#DejaVuSans-2e" x="63.623047"/>
       <use xlink:href="#DejaVuSans-35" x="95.410156"/>
      </g>
     </g>
    </g>
    <g id="xtick_44">
     <g id="line2d_81">
      <g>
       <use xlink:href="#mb06bb507a7" x="475.7925" y="322.26" style="stroke: #000000; stroke-width: 0.8"/>
      </g>
     </g>
     <g id="text_24">
      <!-- 5.0 -->
      <g transform="translate(467.840937 333.358437) scale(0.1 -0.1)">
       <use xlink:href="#DejaVuSans-35"/>
       <use xlink:href="#DejaVuSans-2e" x="63.623047"/>
       <use xlink:href="#DejaVuSans-30" x="95.410156"/>
      </g>
     </g>
    </g>
    <g id="xtick_45">
     <g id="line2d_82">
      <g>
       <use xlink:href="#mb06bb507a7" x="512.83875" y="322.26" style="stroke: #000000; stroke-width: 0.8"/>
      </g>
     </g>
     <g id="text_25">
      <!-- 7.5 -->
      <g transform="translate(504.887187 333.358437) scale(0.1 -0.1)">
       <use xlink:href="#DejaVuSans-37"/>
       <use xlink:href="#DejaVuSans-2e" x="63.623047"/>
       <use xlink:href="#DejaVuSans-35" x="95.410156"/>
      </g>
     </g>
    </g>
    <g id="xtick_46">
     <g id="line2d_83">
      <g>
       <use xlink:href="#mb06bb507a7" x="549.885" y="322.26" style="stroke: #000000; stroke-width: 0.8"/>
      </g>
     </g>
     <g id="text_26">
      <!-- 10.0 -->
      <g transform="translate(538.752187 333.358437) scale(0.1 -0.1)">
       <use xlink:href="#DejaVuSans-31"/>
       <use xlink:href="#DejaVuSans-30" x="63.623047"/>
       <use xlink:href="#DejaVuSans-2e" x="127.246094"/>
       <use xlink:href="#DejaVuSans-30" x="159.033203"/>
      </g>
     </g>
    </g>
    <g id="xtick_47">
     <g id="line2d_84">
      <g>
       <use xlink:href="#mb06bb507a7" x="586.93125" y="322.26" style="stroke: #000000; stroke-width: 0.8"/>
      </g>
     </g>
     <g id="text_27">
      <!-- 12.5 -->
      <g transform="translate(575.798438 333.358437) scale(0.1 -0.1)">
       <use xlink:href="#DejaVuSans-31"/>
       <use xlink:href="#DejaVuSans-32" x="63.623047"/>
       <use xlink:href="#DejaVuSans-2e" x="127.246094"/>
       <use xlink:href="#DejaVuSans-35" x="159.033203"/>
      </g>
     </g>
    </g>
    <g id="xtick_48">
     <g id="line2d_85">
      <g>
       <use xlink:href="#mb06bb507a7" x="623.9775" y="322.26" style="stroke: #000000; stroke-width: 0.8"/>
      </g>
     </g>
     <g id="text_28">
      <!-- 15.0 -->
      <g transform="translate(612.844688 333.358437) scale(0.1 -0.1)">
       <use xlink:href="#DejaVuSans-31"/>
       <use xlink:href="#DejaVuSans-35" x="63.623047"/>
       <use xlink:href="#DejaVuSans-2e" x="127.246094"/>
       <use xlink:href="#DejaVuSans-30" x="159.033203"/>
      </g>
     </g>
    </g>
    <g id="xtick_49">
     <g id="line2d_86">
      <g>
       <use xlink:href="#mb06bb507a7" x="661.02375" y="322.26" style="stroke: #000000; stroke-width: 0.8"/>
      </g>
     </g>
     <g id="text_29">
      <!-- 17.5 -->
      <g transform="translate(649.890938 333.358437) scale(0.1 -0.1)">
       <use xlink:href="#DejaVuSans-31"/>
       <use xlink:href="#DejaVuSans-37" x="63.623047"/>
       <use xlink:href="#DejaVuSans-2e" x="127.246094"/>
       <use xlink:href="#DejaVuSans-35" x="159.033203"/>
      </g>
     </g>
    </g>
    <g id="xtick_50">
     <g id="line2d_87">
      <g>
       <use xlink:href="#mb06bb507a7" x="698.07" y="322.26" style="stroke: #000000; stroke-width: 0.8"/>
      </g>
     </g>
     <g id="text_30">
      <!-- 20.0 -->
      <g transform="translate(686.937188 333.358437) scale(0.1 -0.1)">
       <use xlink:href="#DejaVuSans-32"/>
       <use xlink:href="#DejaVuSans-30" x="63.623047"/>
       <use xlink:href="#DejaVuSans-2e" x="127.246094"/>
       <use xlink:href="#DejaVuSans-30" x="159.033203"/>
      </g>
     </g>
    </g>
    <g id="xtick_51">
     <g id="line2d_88">
      <g>
       <use xlink:href="#m0641a2cdc1" x="409.10925" y="322.26" style="stroke: #000000; stroke-width: 0.6"/>
      </g>
     </g>
    </g>
    <g id="xtick_52">
     <g id="line2d_89">
      <g>
       <use xlink:href="#m0641a2cdc1" x="416.5185" y="322.26" style="stroke: #000000; stroke-width: 0.6"/>
      </g>
     </g>
    </g>
    <g id="xtick_53">
     <g id="line2d_90">
      <g>
       <use xlink:href="#m0641a2cdc1" x="423.92775" y="322.26" style="stroke: #000000; stroke-width: 0.6"/>
      </g>
     </g>
    </g>
    <g id="xtick_54">
     <g id="line2d_91">
      <g>
       <use xlink:href="#m0641a2cdc1" x="431.337" y="322.26" style="stroke: #000000; stroke-width: 0.6"/>
      </g>
     </g>
    </g>
    <g id="xtick_55">
     <g id="line2d_92">
      <g>
       <use xlink:href="#m0641a2cdc1" x="446.1555" y="322.26" style="stroke: #000000; stroke-width: 0.6"/>
      </g>
     </g>
    </g>
    <g id="xtick_56">
     <g id="line2d_93">
      <g>
       <use xlink:href="#m0641a2cdc1" x="453.56475" y="322.26" style="stroke: #000000; stroke-width: 0.6"/>
      </g>
     </g>
    </g>
    <g id="xtick_57">
     <g id="line2d_94">
      <g>
       <use xlink:href="#m0641a2cdc1" x="460.974" y="322.26" style="stroke: #000000; stroke-width: 0.6"/>
      </g>
     </g>
    </g>
    <g id="xtick_58">
     <g id="line2d_95">
      <g>
       <use xlink:href="#m0641a2cdc1" x="468.38325" y="322.26" style="stroke: #000000; stroke-width: 0.6"/>
      </g>
     </g>
    </g>
    <g id="xtick_59">
     <g id="line2d_96">
      <g>
       <use xlink:href="#m0641a2cdc1" x="483.20175" y="322.26" style="stroke: #000000; stroke-width: 0.6"/>
      </g>
     </g>
    </g>
    <g id="xtick_60">
     <g id="line2d_97">
      <g>
       <use xlink:href="#m0641a2cdc1" x="490.611" y="322.26" style="stroke: #000000; stroke-width: 0.6"/>
      </g>
     </g>
    </g>
    <g id="xtick_61">
     <g id="line2d_98">
      <g>
       <use xlink:href="#m0641a2cdc1" x="498.02025" y="322.26" style="stroke: #000000; stroke-width: 0.6"/>
      </g>
     </g>
    </g>
    <g id="xtick_62">
     <g id="line2d_99">
      <g>
       <use xlink:href="#m0641a2cdc1" x="505.4295" y="322.26" style="stroke: #000000; stroke-width: 0.6"/>
      </g>
     </g>
    </g>
    <g id="xtick_63">
     <g id="line2d_100">
      <g>
       <use xlink:href="#m0641a2cdc1" x="520.248" y="322.26" style="stroke: #000000; stroke-width: 0.6"/>
      </g>
     </g>
    </g>
    <g id="xtick_64">
     <g id="line2d_101">
      <g>
       <use xlink:href="#m0641a2cdc1" x="527.65725" y="322.26" style="stroke: #000000; stroke-width: 0.6"/>
      </g>
     </g>
    </g>
    <g id="xtick_65">
     <g id="line2d_102">
      <g>
       <use xlink:href="#m0641a2cdc1" x="535.0665" y="322.26" style="stroke: #000000; stroke-width: 0.6"/>
      </g>
     </g>
    </g>
    <g id="xtick_66">
     <g id="line2d_103">
      <g>
       <use xlink:href="#m0641a2cdc1" x="542.47575" y="322.26" style="stroke: #000000; stroke-width: 0.6"/>
      </g>
     </g>
    </g>
    <g id="xtick_67">
     <g id="line2d_104">
      <g>
       <use xlink:href="#m0641a2cdc1" x="557.29425" y="322.26" style="stroke: #000000; stroke-width: 0.6"/>
      </g>
     </g>
    </g>
    <g id="xtick_68">
     <g id="line2d_105">
      <g>
       <use xlink:href="#m0641a2cdc1" x="564.7035" y="322.26" style="stroke: #000000; stroke-width: 0.6"/>
      </g>
     </g>
    </g>
    <g id="xtick_69">
     <g id="line2d_106">
      <g>
       <use xlink:href="#m0641a2cdc1" x="572.11275" y="322.26" style="stroke: #000000; stroke-width: 0.6"/>
      </g>
     </g>
    </g>
    <g id="xtick_70">
     <g id="line2d_107">
      <g>
       <use xlink:href="#m0641a2cdc1" x="579.522" y="322.26" style="stroke: #000000; stroke-width: 0.6"/>
      </g>
     </g>
    </g>
    <g id="xtick_71">
     <g id="line2d_108">
      <g>
       <use xlink:href="#m0641a2cdc1" x="594.3405" y="322.26" style="stroke: #000000; stroke-width: 0.6"/>
      </g>
     </g>
    </g>
    <g id="xtick_72">
     <g id="line2d_109">
      <g>
       <use xlink:href="#m0641a2cdc1" x="601.74975" y="322.26" style="stroke: #000000; stroke-width: 0.6"/>
      </g>
     </g>
    </g>
    <g id="xtick_73">
     <g id="line2d_110">
      <g>
       <use xlink:href="#m0641a2cdc1" x="609.159" y="322.26" style="stroke: #000000; stroke-width: 0.6"/>
      </g>
     </g>
    </g>
    <g id="xtick_74">
     <g id="line2d_111">
      <g>
       <use xlink:href="#m0641a2cdc1" x="616.56825" y="322.26" style="stroke: #000000; stroke-width: 0.6"/>
      </g>
     </g>
    </g>
    <g id="xtick_75">
     <g id="line2d_112">
      <g>
       <use xlink:href="#m0641a2cdc1" x="631.38675" y="322.26" style="stroke: #000000; stroke-width: 0.6"/>
      </g>
     </g>
    </g>
    <g id="xtick_76">
     <g id="line2d_113">
      <g>
       <use xlink:href="#m0641a2cdc1" x="638.796" y="322.26" style="stroke: #000000; stroke-width: 0.6"/>
      </g>
     </g>
    </g>
    <g id="xtick_77">
     <g id="line2d_114">
      <g>
       <use xlink:href="#m0641a2cdc1" x="646.20525" y="322.26" style="stroke: #000000; stroke-width: 0.6"/>
      </g>
     </g>
    </g>
    <g id="xtick_78">
     <g id="line2d_115">
      <g>
       <use xlink:href="#m0641a2cdc1" x="653.6145" y="322.26" style="stroke: #000000; stroke-width: 0.6"/>
      </g>
     </g>
    </g>
    <g id="xtick_79">
     <g id="line2d_116">
      <g>
       <use xlink:href="#m0641a2cdc1" x="668.433" y="322.26" style="stroke: #000000; stroke-width: 0.6"/>
      </g>
     </g>
    </g>
    <g id="xtick_80">
     <g id="line2d_117">
      <g>
       <use xlink:href="#m0641a2cdc1" x="675.84225" y="322.26" style="stroke: #000000; stroke-width: 0.6"/>
      </g>
     </g>
    </g>
    <g id="xtick_81">
     <g id="line2d_118">
      <g>
       <use xlink:href="#m0641a2cdc1" x="683.2515" y="322.26" style="stroke: #000000; stroke-width: 0.6"/>
      </g>
     </g>
    </g>
    <g id="xtick_82">
     <g id="line2d_119">
      <g>
       <use xlink:href="#m0641a2cdc1" x="690.66075" y="322.26" style="stroke: #000000; stroke-width: 0.6"/>
      </g>
     </g>
    </g>
    <g id="text_31">
     <!-- Time (s) -->
     <g transform="translate(529.556094 347.036563) scale(0.1 -0.1)">
      <use xlink:href="#DejaVuSans-54"/>
      <use xlink:href="#DejaVuSans-69" x="57.958984"/>
      <use xlink:href="#DejaVuSans-6d" x="85.742188"/>
      <use xlink:href="#DejaVuSans-65" x="183.154297"/>
      <use xlink:href="#DejaVuSans-20" x="244.677734"/>
      <use xlink:href="#DejaVuSans-28" x="276.464844"/>
      <use xlink:href="#DejaVuSans-73" x="315.478516"/>
      <use xlink:href="#DejaVuSans-29" x="367.578125"/>
     </g>
    </g>
   </g>
   <g id="matplotlib.axis_4">
    <g id="ytick_32">
     <g id="line2d_120">
      <g>
       <use xlink:href="#m84fc5750c7" x="401.7" y="322.26" style="stroke: #000000; stroke-width: 0.8"/>
      </g>
     </g>
     <g id="text_32">
      <!-- 0.00 -->
      <g transform="translate(375.934375 326.059219) scale(0.1 -0.1)">
       <use xlink:href="#DejaVuSans-30"/>
       <use xlink:href="#DejaVuSans-2e" x="63.623047"/>
       <use xlink:href="#DejaVuSans-30" x="95.410156"/>
       <use xlink:href="#DejaVuSans-30" x="159.033203"/>
      </g>
     </g>
    </g>
    <g id="ytick_33">
     <g id="line2d_121">
      <g>
       <use xlink:href="#m84fc5750c7" x="401.7" y="263.102308" style="stroke: #000000; stroke-width: 0.8"/>
      </g>
     </g>
     <g id="text_33">
      <!-- 0.05 -->
      <g transform="translate(375.934375 266.901526) scale(0.1 -0.1)">
       <use xlink:href="#DejaVuSans-30"/>
       <use xlink:href="#DejaVuSans-2e" x="63.623047"/>
       <use xlink:href="#DejaVuSans-30" x="95.410156"/>
       <use xlink:href="#DejaVuSans-35" x="159.033203"/>
      </g>
     </g>
    </g>
    <g id="ytick_34">
     <g id="line2d_122">
      <g>
       <use xlink:href="#m84fc5750c7" x="401.7" y="203.944615" style="stroke: #000000; stroke-width: 0.8"/>
      </g>
     </g>
     <g id="text_34">
      <!-- 0.10 -->
      <g transform="translate(375.934375 207.743834) scale(0.1 -0.1)">
       <use xlink:href="#DejaVuSans-30"/>
       <use xlink:href="#DejaVuSans-2e" x="63.623047"/>
       <use xlink:href="#DejaVuSans-31" x="95.410156"/>
       <use xlink:href="#DejaVuSans-30" x="159.033203"/>
      </g>
     </g>
    </g>
    <g id="ytick_35">
     <g id="line2d_123">
      <g>
       <use xlink:href="#m84fc5750c7" x="401.7" y="144.786923" style="stroke: #000000; stroke-width: 0.8"/>
      </g>
     </g>
     <g id="text_35">
      <!-- 0.15 -->
      <g transform="translate(375.934375 148.586142) scale(0.1 -0.1)">
       <use xlink:href="#DejaVuSans-30"/>
       <use xlink:href="#DejaVuSans-2e" x="63.623047"/>
       <use xlink:href="#DejaVuSans-31" x="95.410156"/>
       <use xlink:href="#DejaVuSans-35" x="159.033203"/>
      </g>
     </g>
    </g>
    <g id="ytick_36">
     <g id="line2d_124">
      <g>
       <use xlink:href="#m84fc5750c7" x="401.7" y="85.629231" style="stroke: #000000; stroke-width: 0.8"/>
      </g>
     </g>
     <g id="text_36">
      <!-- 0.20 -->
      <g transform="translate(375.934375 89.42845) scale(0.1 -0.1)">
       <use xlink:href="#DejaVuSans-30"/>
       <use xlink:href="#DejaVuSans-2e" x="63.623047"/>
       <use xlink:href="#DejaVuSans-32" x="95.410156"/>
       <use xlink:href="#DejaVuSans-30" x="159.033203"/>
      </g>
     </g>
    </g>
    <g id="ytick_37">
     <g id="line2d_125">
      <g>
       <use xlink:href="#m84fc5750c7" x="401.7" y="26.471538" style="stroke: #000000; stroke-width: 0.8"/>
      </g>
     </g>
     <g id="text_37">
      <!-- 0.25 -->
      <g transform="translate(375.934375 30.270757) scale(0.1 -0.1)">
       <use xlink:href="#DejaVuSans-30"/>
       <use xlink:href="#DejaVuSans-2e" x="63.623047"/>
       <use xlink:href="#DejaVuSans-32" x="95.410156"/>
       <use xlink:href="#DejaVuSans-35" x="159.033203"/>
      </g>
     </g>
    </g>
    <g id="ytick_38">
     <g id="line2d_126">
      <g>
       <use xlink:href="#m16357a538d" x="401.7" y="310.428462" style="stroke: #000000; stroke-width: 0.6"/>
      </g>
     </g>
    </g>
    <g id="ytick_39">
     <g id="line2d_127">
      <g>
       <use xlink:href="#m16357a538d" x="401.7" y="298.596923" style="stroke: #000000; stroke-width: 0.6"/>
      </g>
     </g>
    </g>
    <g id="ytick_40">
     <g id="line2d_128">
      <g>
       <use xlink:href="#m16357a538d" x="401.7" y="286.765385" style="stroke: #000000; stroke-width: 0.6"/>
      </g>
     </g>
    </g>
    <g id="ytick_41">
     <g id="line2d_129">
      <g>
       <use xlink:href="#m16357a538d" x="401.7" y="274.933846" style="stroke: #000000; stroke-width: 0.6"/>
      </g>
     </g>
    </g>
    <g id="ytick_42">
     <g id="line2d_130">
      <g>
       <use xlink:href="#m16357a538d" x="401.7" y="251.270769" style="stroke: #000000; stroke-width: 0.6"/>
      </g>
     </g>
    </g>
    <g id="ytick_43">
     <g id="line2d_131">
      <g>
       <use xlink:href="#m16357a538d" x="401.7" y="239.439231" style="stroke: #000000; stroke-width: 0.6"/>
      </g>
     </g>
    </g>
    <g id="ytick_44">
     <g id="line2d_132">
      <g>
       <use xlink:href="#m16357a538d" x="401.7" y="227.607692" style="stroke: #000000; stroke-width: 0.6"/>
      </g>
     </g>
    </g>
    <g id="ytick_45">
     <g id="line2d_133">
      <g>
       <use xlink:href="#m16357a538d" x="401.7" y="215.776154" style="stroke: #000000; stroke-width: 0.6"/>
      </g>
     </g>
    </g>
    <g id="ytick_46">
     <g id="line2d_134">
      <g>
       <use xlink:href="#m16357a538d" x="401.7" y="192.113077" style="stroke: #000000; stroke-width: 0.6"/>
      </g>
     </g>
    </g>
    <g id="ytick_47">
     <g id="line2d_135">
      <g>
       <use xlink:href="#m16357a538d" x="401.7" y="180.281538" style="stroke: #000000; stroke-width: 0.6"/>
      </g>
     </g>
    </g>
    <g id="ytick_48">
     <g id="line2d_136">
      <g>
       <use xlink:href="#m16357a538d" x="401.7" y="168.45" style="stroke: #000000; stroke-width: 0.6"/>
      </g>
     </g>
    </g>
    <g id="ytick_49">
     <g id="line2d_137">
      <g>
       <use xlink:href="#m16357a538d" x="401.7" y="156.618462" style="stroke: #000000; stroke-width: 0.6"/>
      </g>
     </g>
    </g>
    <g id="ytick_50">
     <g id="line2d_138">
      <g>
       <use xlink:href="#m16357a538d" x="401.7" y="132.955385" style="stroke: #000000; stroke-width: 0.6"/>
      </g>
     </g>
    </g>
    <g id="ytick_51">
     <g id="line2d_139">
      <g>
       <use xlink:href="#m16357a538d" x="401.7" y="121.123846" style="stroke: #000000; stroke-width: 0.6"/>
      </g>
     </g>
    </g>
    <g id="ytick_52">
     <g id="line2d_140">
      <g>
       <use xlink:href="#m16357a538d" x="401.7" y="109.292308" style="stroke: #000000; stroke-width: 0.6"/>
      </g>
     </g>
    </g>
    <g id="ytick_53">
     <g id="line2d_141">
      <g>
       <use xlink:href="#m16357a538d" x="401.7" y="97.460769" style="stroke: #000000; stroke-width: 0.6"/>
      </g>
     </g>
    </g>
    <g id="ytick_54">
     <g id="line2d_142">
      <g>
       <use xlink:href="#m16357a538d" x="401.7" y="73.797692" style="stroke: #000000; stroke-width: 0.6"/>
      </g>
     </g>
    </g>
    <g id="ytick_55">
     <g id="line2d_143">
      <g>
       <use xlink:href="#m16357a538d" x="401.7" y="61.966154" style="stroke: #000000; stroke-width: 0.6"/>
      </g>
     </g>
    </g>
    <g id="ytick_56">
     <g id="line2d_144">
      <g>
       <use xlink:href="#m16357a538d" x="401.7" y="50.134615" style="stroke: #000000; stroke-width: 0.6"/>
      </g>
     </g>
    </g>
    <g id="ytick_57">
     <g id="line2d_145">
      <g>
       <use xlink:href="#m16357a538d" x="401.7" y="38.303077" style="stroke: #000000; stroke-width: 0.6"/>
      </g>
     </g>
    </g>
    <g id="ytick_58">
     <g id="line2d_146">
      <g>
       <use xlink:href="#m16357a538d" x="401.7" y="14.64" style="stroke: #000000; stroke-width: 0.6"/>
      </g>
     </g>
    </g>
    <g id="text_38">
     <!-- Current (A) -->
     <g transform="translate(369.854688 196.1375) rotate(-90) scale(0.1 -0.1)">
      <use xlink:href="#DejaVuSans-43"/>
      <use xlink:href="#DejaVuSans-75" x="69.824219"/>
      <use xlink:href="#DejaVuSans-72" x="133.203125"/>
      <use xlink:href="#DejaVuSans-72" x="172.566406"/>
      <use xlink:href="#DejaVuSans-65" x="211.429688"/>
      <use xlink:href="#DejaVuSans-6e" x="272.953125"/>
      <use xlink:href="#DejaVuSans-74" x="336.332031"/>
      <use xlink:href="#DejaVuSans-20" x="375.541016"/>
      <use xlink:href="#DejaVuSans-28" x="407.328125"/>
      <use xlink:href="#DejaVuSans-41" x="446.341797"/>
      <use xlink:href="#DejaVuSans-29" x="514.75"/>
     </g>
    </g>
   </g>
   <g id="line2d_147">
    <path d="M 401.7 322.26 
L 404.6637 229.137053 
L 407.6274 172.688827 
L 410.5911 138.414335 
L 413.5548 117.657018 
L 416.5185 105.043634 
L 419.4822 97.428566 
L 422.4459 92.757187 
L 425.4096 89.993342 
L 428.3733 88.256833 
L 431.337 87.213532 
L 434.3007 86.627455 
L 437.2644 86.223829 
L 440.2281 85.970142 
L 443.1918 85.851194 
L 446.1555 85.790949 
L 449.1192 85.715451 
L 452.0829 85.663014 
L 455.0466 85.648145 
L 458.0103 85.66133 
L 460.974 85.6693 
L 463.9377 85.641609 
L 466.9014 85.609269 
L 469.8651 85.5946 
L 472.8288 85.606071 
L 475.7925 85.638503 
L 478.7562 85.673074 
L 481.7199 85.677307 
L 484.6836 85.600829 
L 487.6473 85.488193 
L 490.611 85.412698 
L 493.5747 85.415749 
L 496.5384 85.506864 
L 499.5021 85.663663 
L 502.4658 85.831881 
L 505.4295 85.925355 
L 508.3932 85.841709 
L 511.3569 85.696684 
L 514.3206 85.611192 
L 517.2843 85.618344 
L 520.248 85.693411 
L 523.2117 85.753825 
L 526.1754 85.70555 
L 529.1391 85.645472 
L 532.1028 85.618094 
L 535.0665 85.631307 
L 538.0302 85.667409 
L 540.9939 85.683106 
L 543.9576 85.642556 
L 546.9213 85.591873 
L 549.885 85.56671 
L 552.8487 85.582174 
L 555.8124 85.633044 
L 558.7761 85.693777 
L 561.7398 85.718501 
L 564.7035 85.661021 
L 567.6672 85.574919 
L 570.6309 85.524195 
L 573.5946 85.53921 
L 576.5583 85.616989 
L 579.522 85.721214 
L 582.4857 85.782229 
L 585.4494 85.711423 
L 588.4131 85.564585 
L 591.3768 85.460392 
L 594.3405 85.461807 
L 597.3042 85.575256 
L 600.2679 85.750624 
L 603.2316 85.881259 
L 606.1953 85.816983 
L 609.159 85.630656 
L 612.1227 85.49381 
L 615.0864 85.486289 
L 618.0501 85.611256 
L 621.0138 85.795194 
L 623.9775 85.887906 
L 626.9412 85.765922 
L 629.9049 85.628635 
L 632.8686 85.5691 
L 635.8323 85.610043 
L 638.796 85.713561 
L 641.7597 85.781119 
L 644.7234 85.71306 
L 647.6871 85.627644 
L 650.6508 85.587497 
L 653.6145 85.609791 
L 656.5782 85.674622 
L 659.5419 85.725007 
L 662.5056 85.685639 
L 665.4693 85.60876 
L 668.433 85.559407 
L 671.3967 85.566241 
L 674.3604 85.626806 
L 677.3241 85.707532 
L 680.2878 85.743734 
L 683.2515 85.690689 
L 686.2152 85.638209 
L 689.1789 85.617934 
L 692.1426 85.634269 
L 695.1063 85.66812 
L 698.07 85.676896 
" clip-path="url(#p3786397e5c)" style="fill: none; stroke: #1f77b4; stroke-width: 1.5; stroke-linecap: square"/>
   </g>
   <g id="line2d_148">
    <path d="M 401.7 322.26 
L 404.6637 299.741075 
L 407.6274 279.363197 
L 410.5911 260.926135 
L 413.5548 244.246005 
L 416.5185 229.153876 
L 419.4822 215.494633 
L 422.4459 203.126408 
L 425.4096 191.934507 
L 428.3733 181.813164 
L 431.337 172.662698 
L 434.3007 164.389514 
L 437.2644 156.906108 
L 440.2281 150.131061 
L 443.1918 143.989849 
L 446.1555 138.424601 
L 449.1192 133.388058 
L 452.0829 128.83499 
L 455.0466 124.722056 
L 458.0103 121.0078 
L 460.974 117.652654 
L 463.9377 114.618935 
L 466.9014 111.870847 
L 469.8651 109.374846 
L 472.8288 107.107057 
L 475.7925 105.051217 
L 478.7562 103.191461 
L 481.7199 101.512186 
L 484.6836 99.998056 
L 487.6473 98.633999 
L 490.611 97.405205 
L 493.5747 96.297131 
L 496.5384 95.295497 
L 499.5021 94.386287 
L 502.4658 93.555883 
L 505.4295 92.796775 
L 508.3932 92.105874 
L 511.3569 91.479357 
L 514.3206 90.91326 
L 517.2843 90.403484 
L 520.248 89.945787 
L 523.2117 89.53579 
L 526.1754 89.168975 
L 529.1391 88.840683 
L 532.1028 88.546117 
L 535.0665 88.280342 
L 538.0302 88.038283 
L 540.9939 87.814726 
L 543.9576 87.605887 
L 546.9213 87.413162 
L 549.885 87.236559 
L 552.8487 87.075801 
L 555.8124 86.93047 
L 558.7761 86.800016 
L 561.7398 86.683753 
L 564.7035 86.58086 
L 567.6672 86.490379 
L 570.6309 86.411218 
L 573.5946 86.342149 
L 576.5583 86.281809 
L 579.522 86.2287 
L 582.4857 86.181186 
L 585.4494 86.1375 
L 588.4131 86.095737 
L 591.3768 86.053857 
L 594.3405 86.012189 
L 597.3042 85.972548 
L 600.2679 85.935302 
L 603.2316 85.900758 
L 606.1953 85.869154 
L 609.159 85.840666 
L 612.1227 85.815404 
L 615.0864 85.793411 
L 618.0501 85.774667 
L 621.0138 85.759087 
L 623.9775 85.74652 
L 626.9412 85.736751 
L 629.9049 85.729498 
L 632.8686 85.724417 
L 635.8323 85.721096 
L 638.796 85.71906 
L 641.7597 85.717766 
L 644.7234 85.71661 
L 647.6871 85.714921 
L 650.6508 85.711962 
L 653.6145 85.706931 
L 656.5782 85.699767 
L 659.5419 85.692967 
L 662.5056 85.686773 
L 665.4693 85.681155 
L 668.433 85.676085 
L 671.3967 85.671529 
L 674.3604 85.667451 
L 677.3241 85.663814 
L 680.2878 85.660578 
L 683.2515 85.657699 
L 686.2152 85.655134 
L 689.1789 85.652833 
L 692.1426 85.650749 
L 695.1063 85.648827 
L 698.07 85.647013 
" clip-path="url(#p3786397e5c)" style="fill: none; stroke: #ff7f0e; stroke-width: 1.5; stroke-linecap: square"/>
   </g>
   <g id="line2d_149">
    <path d="M 401.7 322.26 
L 404.6637 317.574397 
L 407.6274 312.981574 
L 410.5911 308.479696 
L 413.5548 304.066962 
L 416.5185 299.741605 
L 419.4822 295.50185 
L 422.4459 291.345697 
L 425.4096 287.271517 
L 428.3733 283.277781 
L 431.337 279.36298 
L 434.3007 275.525623 
L 437.2644 271.764241 
L 440.2281 268.077384 
L 443.1918 264.463623 
L 446.1555 260.921547 
L 449.1192 257.449768 
L 452.0829 254.046915 
L 455.0466 250.711639 
L 458.0103 247.442611 
L 460.974 244.23852 
L 463.9377 241.098078 
L 466.9014 238.020014 
L 469.8651 235.00308 
L 472.8288 232.046045 
L 475.7925 229.147701 
L 478.7562 226.306857 
L 481.7199 223.522345 
L 484.6836 220.793015 
L 487.6473 218.117737 
L 490.611 215.495403 
L 493.5747 212.924922 
L 496.5384 210.405225 
L 499.5021 207.935264 
L 502.4658 205.514008 
L 505.4295 203.140449 
L 508.3932 200.813565 
L 511.3569 198.532166 
L 514.3206 196.295391 
L 517.2843 194.102464 
L 520.248 191.952614 
L 523.2117 189.84508 
L 526.1754 187.779107 
L 529.1391 185.75395 
L 532.1028 183.768869 
L 535.0665 181.823134 
L 538.0302 179.916023 
L 540.9939 178.04682 
L 543.9576 176.214819 
L 546.9213 174.419319 
L 549.885 172.659631 
L 552.8487 170.935069 
L 555.8124 169.244958 
L 558.7761 167.58863 
L 561.7398 165.965426 
L 564.7035 164.374692 
L 567.6672 162.815784 
L 570.6309 161.288066 
L 573.5946 159.790908 
L 576.5583 158.323691 
L 579.522 156.885799 
L 582.4857 155.476629 
L 585.4494 154.095583 
L 588.4131 152.74207 
L 591.3768 151.41551 
L 594.3405 150.115328 
L 597.3042 148.840957 
L 600.2679 147.59184 
L 603.2316 146.367426 
L 606.1953 145.167172 
L 609.159 143.990543 
L 612.1227 142.837013 
L 615.0864 141.706062 
L 618.0501 140.597178 
L 621.0138 139.509858 
L 623.9775 138.443606 
L 626.9412 137.397955 
L 629.9049 136.372827 
L 632.8686 135.367961 
L 635.8323 134.382969 
L 638.796 133.417471 
L 641.7597 132.471089 
L 644.7234 131.543454 
L 647.6871 130.6342 
L 650.6508 129.742968 
L 653.6145 128.869405 
L 656.5782 128.013163 
L 659.5419 127.1739 
L 662.5056 126.351279 
L 665.4693 125.544969 
L 668.433 124.754645 
L 671.3967 123.979987 
L 674.3604 123.220682 
L 677.3241 122.47642 
L 680.2878 121.7469 
L 683.2515 121.031824 
L 686.2152 120.330902 
L 689.1789 119.643846 
L 692.1426 118.970378 
L 695.1063 118.310222 
L 698.07 117.663111 
" clip-path="url(#p3786397e5c)" style="fill: none; stroke: #2ca02c; stroke-width: 1.5; stroke-linecap: square"/>
   </g>
   <g id="patch_9">
    <path d="M 401.7 322.26 
L 401.7 14.64 
" style="fill: none; stroke: #000000; stroke-width: 0.8; stroke-linejoin: miter; stroke-linecap: square"/>
   </g>
   <g id="patch_10">
    <path d="M 698.07 322.26 
L 698.07 14.64 
" style="fill: none; stroke: #000000; stroke-width: 0.8; stroke-linejoin: miter; stroke-linecap: square"/>
   </g>
   <g id="patch_11">
    <path d="M 401.7 322.26 
L 698.07 322.26 
" style="fill: none; stroke: #000000; stroke-width: 0.8; stroke-linejoin: miter; stroke-linecap: square"/>
   </g>
   <g id="patch_12">
    <path d="M 401.7 14.64 
L 698.07 14.64 
" style="fill: none; stroke: #000000; stroke-width: 0.8; stroke-linejoin: miter; stroke-linecap: square"/>
   </g>
   <g id="legend_2">
    <g id="patch_13">
     <path d="M 608.97625 66.674375 
L 691.07 66.674375 
Q 693.07 66.674375 693.07 64.674375 
L 693.07 21.64 
Q 693.07 19.64 691.07 19.64 
L 608.97625 19.64 
Q 606.97625 19.64 606.97625 21.64 
L 606.97625 64.674375 
Q 606.97625 66.674375 608.97625 66.674375 
z
" style="fill: #ffffff; opacity: 0.8; stroke: #cccccc; stroke-linejoin: miter"/>
    </g>
    <g id="line2d_150">
     <path d="M 610.97625 27.738438 
L 620.97625 27.738438 
L 630.97625 27.738438 
" style="fill: none; stroke: #1f77b4; stroke-width: 1.5; stroke-linecap: square"/>
    </g>
    <g id="text_39">
     <!-- L = 20 H -->
     <g transform="translate(638.97625 31.238438) scale(0.1 -0.1)">
      <defs>
       <path id="DejaVuSans-4c" d="M 628 4666 
L 1259 4666 
L 1259 531 
L 3531 531 
L 3531 0 
L 628 0 
L 628 4666 
z
" transform="scale(0.015625)"/>
       <path id="DejaVuSans-48" d="M 628 4666 
L 1259 4666 
L 1259 2753 
L 3553 2753 
L 3553 4666 
L 4184 4666 
L 4184 0 
L 3553 0 
L 3553 2222 
L 1259 2222 
L 1259 0 
L 628 0 
L 628 4666 
z
" transform="scale(0.015625)"/>
      </defs>
      <use xlink:href="#DejaVuSans-4c"/>
      <use xlink:href="#DejaVuSans-20" x="55.712891"/>
      <use xlink:href="#DejaVuSans-3d" x="87.5"/>
      <use xlink:href="#DejaVuSans-20" x="171.289062"/>
      <use xlink:href="#DejaVuSans-32" x="203.076172"/>
      <use xlink:href="#DejaVuSans-30" x="266.699219"/>
      <use xlink:href="#DejaVuSans-20" x="330.322266"/>
      <use xlink:href="#DejaVuSans-48" x="362.109375"/>
     </g>
    </g>
    <g id="line2d_151">
     <path d="M 610.97625 42.416563 
L 620.97625 42.416563 
L 630.97625 42.416563 
" style="fill: none; stroke: #ff7f0e; stroke-width: 1.5; stroke-linecap: square"/>
    </g>
    <g id="text_40">
     <!-- L = 100 H -->
     <g transform="translate(638.97625 45.916563) scale(0.1 -0.1)">
      <use xlink:href="#DejaVuSans-4c"/>
      <use xlink:href="#DejaVuSans-20" x="55.712891"/>
      <use xlink:href="#DejaVuSans-3d" x="87.5"/>
      <use xlink:href="#DejaVuSans-20" x="171.289062"/>
      <use xlink:href="#DejaVuSans-31" x="203.076172"/>
      <use xlink:href="#DejaVuSans-30" x="266.699219"/>
      <use xlink:href="#DejaVuSans-30" x="330.322266"/>
      <use xlink:href="#DejaVuSans-20" x="393.945312"/>
      <use xlink:href="#DejaVuSans-48" x="425.732422"/>
     </g>
    </g>
    <g id="line2d_152">
     <path d="M 610.97625 57.094688 
L 620.97625 57.094688 
L 630.97625 57.094688 
" style="fill: none; stroke: #2ca02c; stroke-width: 1.5; stroke-linecap: square"/>
    </g>
    <g id="text_41">
     <!-- L = 500 H -->
     <g transform="translate(638.97625 60.594688) scale(0.1 -0.1)">
      <use xlink:href="#DejaVuSans-4c"/>
      <use xlink:href="#DejaVuSans-20" x="55.712891"/>
      <use xlink:href="#DejaVuSans-3d" x="87.5"/>
      <use xlink:href="#DejaVuSans-20" x="171.289062"/>
      <use xlink:href="#DejaVuSans-35" x="203.076172"/>
      <use xlink:href="#DejaVuSans-30" x="266.699219"/>
      <use xlink:href="#DejaVuSans-30" x="330.322266"/>
      <use xlink:href="#DejaVuSans-20" x="393.945312"/>
      <use xlink:href="#DejaVuSans-48" x="425.732422"/>
     </g>
    </g>
   </g>
  </g>
 </g>
 <defs>
  <clipPath id="p2681896994">
   <rect x="43.92" y="14.64" width="296.37" height="307.62"/>
  </clipPath>
  <clipPath id="p3786397e5c">
   <rect x="401.7" y="14.64" width="296.37" height="307.62"/>
  </clipPath>
 </defs>
</svg>
