<?xml version="1.0" encoding="utf-8" standalone="no"?>
<!DOCTYPE svg PUBLIC "-//W3C//DTD SVG 1.1//EN"
  "http://www.w3.org/Graphics/SVG/1.1/DTD/svg11.dtd">
<svg xmlns:xlink="http://www.w3.org/1999/xlink" width="720pt" height="360pt" viewBox="0 0 720 360" xmlns="http://www.w3.org/2000/svg" version="1.1">
 <metadata>
  <rdf:RDF xmlns:dc="http://purl.org/dc/elements/1.1/" xmlns:cc="http://creativecommons.org/ns#" xmlns:rdf="http://www.w3.org/1999/02/22-rdf-syntax-ns#">
   <cc:Work>
    <dc:type rdf:resource="http://purl.org/dc/dcmitype/StillImage"/>
    <dc:date>2024-10-01T01:28:15.033905</dc:date>
    <dc:format>image/svg+xml</dc:format>
    <dc:creator>
     <cc:Agent>
      <dc:title>Matplotlib v3.8.3, https://matplotlib.org/</dc:title>
     </cc:Agent>
    </dc:creator>
   </cc:Work>
  </rdf:RDF>
 </metadata>
 <defs>
  <style type="text/css">*{stroke-linejoin: round; stroke-linecap: butt}</style>
 </defs>
 <g id="figure_1">
  <g id="patch_1">
   <path d="M 0 360 
L 720 360 
L 720 0 
L 0 0 
z
" style="fill: #ffffff"/>
  </g>
  <g id="axes_1">
   <g id="patch_2">
    <path d="M 52.305 322.26 
L 354.6 322.26 
L 354.6 10.8 
L 52.305 10.8 
z
" style="fill: #ffffff"/>
   </g>
   <g id="matplotlib.axis_1">
    <g id="xtick_1">
     <g id="line2d_1">
      <defs>
       <path id="m63f68e636b" d="M 0 0 
L 0 -3.5 
" style="stroke: #000000; stroke-width: 0.8"/>
      </defs>
      <g>
       <use xlink:href="#m63f68e636b" x="66.045682" y="322.26" style="stroke: #000000; stroke-width: 0.8"/>
      </g>
     </g>
     <g id="text_1">
      <!-- 0 -->
      <g transform="translate(62.864432 333.358437) scale(0.1 -0.1)">
       <defs>
        <path id="DejaVuSans-30" d="M 2034 4250 
Q 1547 4250 1301 3770 
Q 1056 3291 1056 2328 
Q 1056 1369 1301 889 
Q 1547 409 2034 409 
Q 2525 409 2770 889 
Q 3016 1369 3016 2328 
Q 3016 3291 2770 3770 
Q 2525 4250 2034 4250 
z
M 2034 4750 
Q 2819 4750 3233 4129 
Q 3647 3509 3647 2328 
Q 3647 1150 3233 529 
Q 2819 -91 2034 -91 
Q 1250 -91 836 529 
Q 422 1150 422 2328 
Q 422 3509 836 4129 
Q 1250 4750 2034 4750 
z
" transform="scale(0.015625)"/>
       </defs>
       <use xlink:href="#DejaVuSans-30"/>
      </g>
     </g>
    </g>
    <g id="xtick_2">
     <g id="line2d_2">
      <g>
       <use xlink:href="#m63f68e636b" x="103.18266" y="322.26" style="stroke: #000000; stroke-width: 0.8"/>
      </g>
     </g>
     <g id="text_2">
      <!-- 5 -->
      <g transform="translate(100.00141 333.358437) scale(0.1 -0.1)">
       <defs>
        <path id="DejaVuSans-35" d="M 691 4666 
L 3169 4666 
L 3169 4134 
L 1269 4134 
L 1269 2991 
Q 1406 3038 1543 3061 
Q 1681 3084 1819 3084 
Q 2600 3084 3056 2656 
Q 3513 2228 3513 1497 
Q 3513 744 3044 326 
Q 2575 -91 1722 -91 
Q 1428 -91 1123 -41 
Q 819 9 494 109 
L 494 744 
Q 775 591 1075 516 
Q 1375 441 1709 441 
Q 2250 441 2565 725 
Q 2881 1009 2881 1497 
Q 2881 1984 2565 2268 
Q 2250 2553 1709 2553 
Q 1456 2553 1204 2497 
Q 953 2441 691 2322 
L 691 4666 
z
" transform="scale(0.015625)"/>
       </defs>
       <use xlink:href="#DejaVuSans-35"/>
      </g>
     </g>
    </g>
    <g id="xtick_3">
     <g id="line2d_3">
      <g>
       <use xlink:href="#m63f68e636b" x="140.319638" y="322.26" style="stroke: #000000; stroke-width: 0.8"/>
      </g>
     </g>
     <g id="text_3">
      <!-- 10 -->
      <g transform="translate(133.957138 333.358437) scale(0.1 -0.1)">
       <defs>
        <path id="DejaVuSans-31" d="M 794 531 
L 1825 531 
L 1825 4091 
L 703 3866 
L 703 4441 
L 1819 4666 
L 2450 4666 
L 2450 531 
L 3481 531 
L 3481 0 
L 794 0 
L 794 531 
z
" transform="scale(0.015625)"/>
       </defs>
       <use xlink:href="#DejaVuSans-31"/>
       <use xlink:href="#DejaVuSans-30" x="63.623047"/>
      </g>
     </g>
    </g>
    <g id="xtick_4">
     <g id="line2d_4">
      <g>
       <use xlink:href="#m63f68e636b" x="177.456615" y="322.26" style="stroke: #000000; stroke-width: 0.8"/>
      </g>
     </g>
     <g id="text_4">
      <!-- 15 -->
      <g transform="translate(171.094115 333.358437) scale(0.1 -0.1)">
       <use xlink:href="#DejaVuSans-31"/>
       <use xlink:href="#DejaVuSans-35" x="63.623047"/>
      </g>
     </g>
    </g>
    <g id="xtick_5">
     <g id="line2d_5">
      <g>
       <use xlink:href="#m63f68e636b" x="214.593593" y="322.26" style="stroke: #000000; stroke-width: 0.8"/>
      </g>
     </g>
     <g id="text_5">
      <!-- 20 -->
      <g transform="translate(208.231093 333.358437) scale(0.1 -0.1)">
       <defs>
        <path id="DejaVuSans-32" d="M 1228 531 
L 3431 531 
L 3431 0 
L 469 0 
L 469 531 
Q 828 903 1448 1529 
Q 2069 2156 2228 2338 
Q 2531 2678 2651 2914 
Q 2772 3150 2772 3378 
Q 2772 3750 2511 3984 
Q 2250 4219 1831 4219 
Q 1534 4219 1204 4116 
Q 875 4013 500 3803 
L 500 4441 
Q 881 4594 1212 4672 
Q 1544 4750 1819 4750 
Q 2544 4750 2975 4387 
Q 3406 4025 3406 3419 
Q 3406 3131 3298 2873 
Q 3191 2616 2906 2266 
Q 2828 2175 2409 1742 
Q 1991 1309 1228 531 
z
" transform="scale(0.015625)"/>
       </defs>
       <use xlink:href="#DejaVuSans-32"/>
       <use xlink:href="#DejaVuSans-30" x="63.623047"/>
      </g>
     </g>
    </g>
    <g id="xtick_6">
     <g id="line2d_6">
      <g>
       <use xlink:href="#m63f68e636b" x="251.730571" y="322.26" style="stroke: #000000; stroke-width: 0.8"/>
      </g>
     </g>
     <g id="text_6">
      <!-- 25 -->
      <g transform="translate(245.368071 333.358437) scale(0.1 -0.1)">
       <use xlink:href="#DejaVuSans-32"/>
       <use xlink:href="#DejaVuSans-35" x="63.623047"/>
      </g>
     </g>
    </g>
    <g id="xtick_7">
     <g id="line2d_7">
      <g>
       <use xlink:href="#m63f68e636b" x="288.867549" y="322.26" style="stroke: #000000; stroke-width: 0.8"/>
      </g>
     </g>
     <g id="text_7">
      <!-- 30 -->
      <g transform="translate(282.505049 333.358437) scale(0.1 -0.1)">
       <defs>
        <path id="DejaVuSans-33" d="M 2597 2516 
Q 3050 2419 3304 2112 
Q 3559 1806 3559 1356 
Q 3559 666 3084 287 
Q 2609 -91 1734 -91 
Q 1441 -91 1130 -33 
Q 819 25 488 141 
L 488 750 
Q 750 597 1062 519 
Q 1375 441 1716 441 
Q 2309 441 2620 675 
Q 2931 909 2931 1356 
Q 2931 1769 2642 2001 
Q 2353 2234 1838 2234 
L 1294 2234 
L 1294 2753 
L 1863 2753 
Q 2328 2753 2575 2939 
Q 2822 3125 2822 3475 
Q 2822 3834 2567 4026 
Q 2313 4219 1838 4219 
Q 1578 4219 1281 4162 
Q 984 4106 628 3988 
L 628 4550 
Q 988 4650 1302 4700 
Q 1616 4750 1894 4750 
Q 2613 4750 3031 4423 
Q 3450 4097 3450 3541 
Q 3450 3153 3228 2886 
Q 3006 2619 2597 2516 
z
" transform="scale(0.015625)"/>
       </defs>
       <use xlink:href="#DejaVuSans-33"/>
       <use xlink:href="#DejaVuSans-30" x="63.623047"/>
      </g>
     </g>
    </g>
    <g id="xtick_8">
     <g id="line2d_8">
      <g>
       <use xlink:href="#m63f68e636b" x="326.004527" y="322.26" style="stroke: #000000; stroke-width: 0.8"/>
      </g>
     </g>
     <g id="text_8">
      <!-- 35 -->
      <g transform="translate(319.642027 333.358437) scale(0.1 -0.1)">
       <use xlink:href="#DejaVuSans-33"/>
       <use xlink:href="#DejaVuSans-35" x="63.623047"/>
      </g>
     </g>
    </g>
    <g id="xtick_9">
     <g id="line2d_9">
      <defs>
       <path id="m74647d9c61" d="M 0 0 
L 0 -2 
" style="stroke: #000000; stroke-width: 0.6"/>
      </defs>
      <g>
       <use xlink:href="#m74647d9c61" x="58.618286" y="322.26" style="stroke: #000000; stroke-width: 0.6"/>
      </g>
     </g>
    </g>
    <g id="xtick_10">
     <g id="line2d_10">
      <g>
       <use xlink:href="#m74647d9c61" x="73.473077" y="322.26" style="stroke: #000000; stroke-width: 0.6"/>
      </g>
     </g>
    </g>
    <g id="xtick_11">
     <g id="line2d_11">
      <g>
       <use xlink:href="#m74647d9c61" x="80.900473" y="322.26" style="stroke: #000000; stroke-width: 0.6"/>
      </g>
     </g>
    </g>
    <g id="xtick_12">
     <g id="line2d_12">
      <g>
       <use xlink:href="#m74647d9c61" x="88.327869" y="322.26" style="stroke: #000000; stroke-width: 0.6"/>
      </g>
     </g>
    </g>
    <g id="xtick_13">
     <g id="line2d_13">
      <g>
       <use xlink:href="#m74647d9c61" x="95.755264" y="322.26" style="stroke: #000000; stroke-width: 0.6"/>
      </g>
     </g>
    </g>
    <g id="xtick_14">
     <g id="line2d_14">
      <g>
       <use xlink:href="#m74647d9c61" x="110.610055" y="322.26" style="stroke: #000000; stroke-width: 0.6"/>
      </g>
     </g>
    </g>
    <g id="xtick_15">
     <g id="line2d_15">
      <g>
       <use xlink:href="#m74647d9c61" x="118.037451" y="322.26" style="stroke: #000000; stroke-width: 0.6"/>
      </g>
     </g>
    </g>
    <g id="xtick_16">
     <g id="line2d_16">
      <g>
       <use xlink:href="#m74647d9c61" x="125.464846" y="322.26" style="stroke: #000000; stroke-width: 0.6"/>
      </g>
     </g>
    </g>
    <g id="xtick_17">
     <g id="line2d_17">
      <g>
       <use xlink:href="#m74647d9c61" x="132.892242" y="322.26" style="stroke: #000000; stroke-width: 0.6"/>
      </g>
     </g>
    </g>
    <g id="xtick_18">
     <g id="line2d_18">
      <g>
       <use xlink:href="#m74647d9c61" x="147.747033" y="322.26" style="stroke: #000000; stroke-width: 0.6"/>
      </g>
     </g>
    </g>
    <g id="xtick_19">
     <g id="line2d_19">
      <g>
       <use xlink:href="#m74647d9c61" x="155.174429" y="322.26" style="stroke: #000000; stroke-width: 0.6"/>
      </g>
     </g>
    </g>
    <g id="xtick_20">
     <g id="line2d_20">
      <g>
       <use xlink:href="#m74647d9c61" x="162.601824" y="322.26" style="stroke: #000000; stroke-width: 0.6"/>
      </g>
     </g>
    </g>
    <g id="xtick_21">
     <g id="line2d_21">
      <g>
       <use xlink:href="#m74647d9c61" x="170.02922" y="322.26" style="stroke: #000000; stroke-width: 0.6"/>
      </g>
     </g>
    </g>
    <g id="xtick_22">
     <g id="line2d_22">
      <g>
       <use xlink:href="#m74647d9c61" x="184.884011" y="322.26" style="stroke: #000000; stroke-width: 0.6"/>
      </g>
     </g>
    </g>
    <g id="xtick_23">
     <g id="line2d_23">
      <g>
       <use xlink:href="#m74647d9c61" x="192.311407" y="322.26" style="stroke: #000000; stroke-width: 0.6"/>
      </g>
     </g>
    </g>
    <g id="xtick_24">
     <g id="line2d_24">
      <g>
       <use xlink:href="#m74647d9c61" x="199.738802" y="322.26" style="stroke: #000000; stroke-width: 0.6"/>
      </g>
     </g>
    </g>
    <g id="xtick_25">
     <g id="line2d_25">
      <g>
       <use xlink:href="#m74647d9c61" x="207.166198" y="322.26" style="stroke: #000000; stroke-width: 0.6"/>
      </g>
     </g>
    </g>
    <g id="xtick_26">
     <g id="line2d_26">
      <g>
       <use xlink:href="#m74647d9c61" x="222.020989" y="322.26" style="stroke: #000000; stroke-width: 0.6"/>
      </g>
     </g>
    </g>
    <g id="xtick_27">
     <g id="line2d_27">
      <g>
       <use xlink:href="#m74647d9c61" x="229.448385" y="322.26" style="stroke: #000000; stroke-width: 0.6"/>
      </g>
     </g>
    </g>
    <g id="xtick_28">
     <g id="line2d_28">
      <g>
       <use xlink:href="#m74647d9c61" x="236.87578" y="322.26" style="stroke: #000000; stroke-width: 0.6"/>
      </g>
     </g>
    </g>
    <g id="xtick_29">
     <g id="line2d_29">
      <g>
       <use xlink:href="#m74647d9c61" x="244.303176" y="322.26" style="stroke: #000000; stroke-width: 0.6"/>
      </g>
     </g>
    </g>
    <g id="xtick_30">
     <g id="line2d_30">
      <g>
       <use xlink:href="#m74647d9c61" x="259.157967" y="322.26" style="stroke: #000000; stroke-width: 0.6"/>
      </g>
     </g>
    </g>
    <g id="xtick_31">
     <g id="line2d_31">
      <g>
       <use xlink:href="#m74647d9c61" x="266.585362" y="322.26" style="stroke: #000000; stroke-width: 0.6"/>
      </g>
     </g>
    </g>
    <g id="xtick_32">
     <g id="line2d_32">
      <g>
       <use xlink:href="#m74647d9c61" x="274.012758" y="322.26" style="stroke: #000000; stroke-width: 0.6"/>
      </g>
     </g>
    </g>
    <g id="xtick_33">
     <g id="line2d_33">
      <g>
       <use xlink:href="#m74647d9c61" x="281.440154" y="322.26" style="stroke: #000000; stroke-width: 0.6"/>
      </g>
     </g>
    </g>
    <g id="xtick_34">
     <g id="line2d_34">
      <g>
       <use xlink:href="#m74647d9c61" x="296.294945" y="322.26" style="stroke: #000000; stroke-width: 0.6"/>
      </g>
     </g>
    </g>
    <g id="xtick_35">
     <g id="line2d_35">
      <g>
       <use xlink:href="#m74647d9c61" x="303.72234" y="322.26" style="stroke: #000000; stroke-width: 0.6"/>
      </g>
     </g>
    </g>
    <g id="xtick_36">
     <g id="line2d_36">
      <g>
       <use xlink:href="#m74647d9c61" x="311.149736" y="322.26" style="stroke: #000000; stroke-width: 0.6"/>
      </g>
     </g>
    </g>
    <g id="xtick_37">
     <g id="line2d_37">
      <g>
       <use xlink:href="#m74647d9c61" x="318.577131" y="322.26" style="stroke: #000000; stroke-width: 0.6"/>
      </g>
     </g>
    </g>
    <g id="xtick_38">
     <g id="line2d_38">
      <g>
       <use xlink:href="#m74647d9c61" x="333.431923" y="322.26" style="stroke: #000000; stroke-width: 0.6"/>
      </g>
     </g>
    </g>
    <g id="xtick_39">
     <g id="line2d_39">
      <g>
       <use xlink:href="#m74647d9c61" x="340.859318" y="322.26" style="stroke: #000000; stroke-width: 0.6"/>
      </g>
     </g>
    </g>
    <g id="xtick_40">
     <g id="line2d_40">
      <g>
       <use xlink:href="#m74647d9c61" x="348.286714" y="322.26" style="stroke: #000000; stroke-width: 0.6"/>
      </g>
     </g>
    </g>
    <g id="text_9">
     <!-- Time (t) -->
     <g transform="translate(183.768125 347.036563) scale(0.1 -0.1)">
      <defs>
       <path id="DejaVuSans-54" d="M -19 4666 
L 3928 4666 
L 3928 4134 
L 2272 4134 
L 2272 0 
L 1638 0 
L 1638 4134 
L -19 4134 
L -19 4666 
z
" transform="scale(0.015625)"/>
       <path id="DejaVuSans-69" d="M 603 3500 
L 1178 3500 
L 1178 0 
L 603 0 
L 603 3500 
z
M 603 4863 
L 1178 4863 
L 1178 4134 
L 603 4134 
L 603 4863 
z
" transform="scale(0.015625)"/>
       <path id="DejaVuSans-6d" d="M 3328 2828 
Q 3544 3216 3844 3400 
Q 4144 3584 4550 3584 
Q 5097 3584 5394 3201 
Q 5691 2819 5691 2113 
L 5691 0 
L 5113 0 
L 5113 2094 
Q 5113 2597 4934 2840 
Q 4756 3084 4391 3084 
Q 3944 3084 3684 2787 
Q 3425 2491 3425 1978 
L 3425 0 
L 2847 0 
L 2847 2094 
Q 2847 2600 2669 2842 
Q 2491 3084 2119 3084 
Q 1678 3084 1418 2786 
Q 1159 2488 1159 1978 
L 1159 0 
L 581 0 
L 581 3500 
L 1159 3500 
L 1159 2956 
Q 1356 3278 1631 3431 
Q 1906 3584 2284 3584 
Q 2666 3584 2933 3390 
Q 3200 3197 3328 2828 
z
" transform="scale(0.015625)"/>
       <path id="DejaVuSans-65" d="M 3597 1894 
L 3597 1613 
L 953 1613 
Q 991 1019 1311 708 
Q 1631 397 2203 397 
Q 2534 397 2845 478 
Q 3156 559 3463 722 
L 3463 178 
Q 3153 47 2828 -22 
Q 2503 -91 2169 -91 
Q 1331 -91 842 396 
Q 353 884 353 1716 
Q 353 2575 817 3079 
Q 1281 3584 2069 3584 
Q 2775 3584 3186 3129 
Q 3597 2675 3597 1894 
z
M 3022 2063 
Q 3016 2534 2758 2815 
Q 2500 3097 2075 3097 
Q 1594 3097 1305 2825 
Q 1016 2553 972 2059 
L 3022 2063 
z
" transform="scale(0.015625)"/>
       <path id="DejaVuSans-20" transform="scale(0.015625)"/>
       <path id="DejaVuSans-28" d="M 1984 4856 
Q 1566 4138 1362 3434 
Q 1159 2731 1159 2009 
Q 1159 1288 1364 580 
Q 1569 -128 1984 -844 
L 1484 -844 
Q 1016 -109 783 600 
Q 550 1309 550 2009 
Q 550 2706 781 3412 
Q 1013 4119 1484 4856 
L 1984 4856 
z
" transform="scale(0.015625)"/>
       <path id="DejaVuSans-74" d="M 1172 4494 
L 1172 3500 
L 2356 3500 
L 2356 3053 
L 1172 3053 
L 1172 1153 
Q 1172 725 1289 603 
Q 1406 481 1766 481 
L 2356 481 
L 2356 0 
L 1766 0 
Q 1100 0 847 248 
Q 594 497 594 1153 
L 594 3053 
L 172 3053 
L 172 3500 
L 594 3500 
L 594 4494 
L 1172 4494 
z
" transform="scale(0.015625)"/>
       <path id="DejaVuSans-29" d="M 513 4856 
L 1013 4856 
Q 1481 4119 1714 3412 
Q 1947 2706 1947 2009 
Q 1947 1309 1714 600 
Q 1481 -109 1013 -844 
L 513 -844 
Q 928 -128 1133 580 
Q 1338 1288 1338 2009 
Q 1338 2731 1133 3434 
Q 928 4138 513 4856 
z
" transform="scale(0.015625)"/>
      </defs>
      <use xlink:href="#DejaVuSans-54"/>
      <use xlink:href="#DejaVuSans-69" x="57.958984"/>
      <use xlink:href="#DejaVuSans-6d" x="85.742188"/>
      <use xlink:href="#DejaVuSans-65" x="183.154297"/>
      <use xlink:href="#DejaVuSans-20" x="244.677734"/>
      <use xlink:href="#DejaVuSans-28" x="276.464844"/>
      <use xlink:href="#DejaVuSans-74" x="315.478516"/>
      <use xlink:href="#DejaVuSans-29" x="354.6875"/>
     </g>
    </g>
   </g>
   <g id="matplotlib.axis_2">
    <g id="ytick_1">
     <g id="line2d_41">
      <defs>
       <path id="m0b090afa49" d="M 0 0 
L 3.5 0 
" style="stroke: #000000; stroke-width: 0.8"/>
      </defs>
      <g>
       <use xlink:href="#m0b090afa49" x="52.305" y="288.191164" style="stroke: #000000; stroke-width: 0.8"/>
      </g>
     </g>
     <g id="text_10">
      <!-- −0.4 -->
      <g transform="translate(24.522187 291.990383) scale(0.1 -0.1)">
       <defs>
        <path id="DejaVuSans-2212" d="M 678 2272 
L 4684 2272 
L 4684 1741 
L 678 1741 
L 678 2272 
z
" transform="scale(0.015625)"/>
        <path id="DejaVuSans-2e" d="M 684 794 
L 1344 794 
L 1344 0 
L 684 0 
L 684 794 
z
" transform="scale(0.015625)"/>
        <path id="DejaVuSans-34" d="M 2419 4116 
L 825 1625 
L 2419 1625 
L 2419 4116 
z
M 2253 4666 
L 3047 4666 
L 3047 1625 
L 3713 1625 
L 3713 1100 
L 3047 1100 
L 3047 0 
L 2419 0 
L 2419 1100 
L 313 1100 
L 313 1709 
L 2253 4666 
z
" transform="scale(0.015625)"/>
       </defs>
       <use xlink:href="#DejaVuSans-2212"/>
       <use xlink:href="#DejaVuSans-30" x="83.789062"/>
       <use xlink:href="#DejaVuSans-2e" x="147.412109"/>
       <use xlink:href="#DejaVuSans-34" x="179.199219"/>
      </g>
     </g>
    </g>
    <g id="ytick_2">
     <g id="line2d_42">
      <g>
       <use xlink:href="#m0b090afa49" x="52.305" y="250.586322" style="stroke: #000000; stroke-width: 0.8"/>
      </g>
     </g>
     <g id="text_11">
      <!-- −0.2 -->
      <g transform="translate(24.522187 254.385541) scale(0.1 -0.1)">
       <use xlink:href="#DejaVuSans-2212"/>
       <use xlink:href="#DejaVuSans-30" x="83.789062"/>
       <use xlink:href="#DejaVuSans-2e" x="147.412109"/>
       <use xlink:href="#DejaVuSans-32" x="179.199219"/>
      </g>
     </g>
    </g>
    <g id="ytick_3">
     <g id="line2d_43">
      <g>
       <use xlink:href="#m0b090afa49" x="52.305" y="212.981481" style="stroke: #000000; stroke-width: 0.8"/>
      </g>
     </g>
     <g id="text_12">
      <!-- 0.0 -->
      <g transform="translate(32.901875 216.780699) scale(0.1 -0.1)">
       <use xlink:href="#DejaVuSans-30"/>
       <use xlink:href="#DejaVuSans-2e" x="63.623047"/>
       <use xlink:href="#DejaVuSans-30" x="95.410156"/>
      </g>
     </g>
    </g>
    <g id="ytick_4">
     <g id="line2d_44">
      <g>
       <use xlink:href="#m0b090afa49" x="52.305" y="175.376639" style="stroke: #000000; stroke-width: 0.8"/>
      </g>
     </g>
     <g id="text_13">
      <!-- 0.2 -->
      <g transform="translate(32.901875 179.175858) scale(0.1 -0.1)">
       <use xlink:href="#DejaVuSans-30"/>
       <use xlink:href="#DejaVuSans-2e" x="63.623047"/>
       <use xlink:href="#DejaVuSans-32" x="95.410156"/>
      </g>
     </g>
    </g>
    <g id="ytick_5">
     <g id="line2d_45">
      <g>
       <use xlink:href="#m0b090afa49" x="52.305" y="137.771797" style="stroke: #000000; stroke-width: 0.8"/>
      </g>
     </g>
     <g id="text_14">
      <!-- 0.4 -->
      <g transform="translate(32.901875 141.571016) scale(0.1 -0.1)">
       <use xlink:href="#DejaVuSans-30"/>
       <use xlink:href="#DejaVuSans-2e" x="63.623047"/>
       <use xlink:href="#DejaVuSans-34" x="95.410156"/>
      </g>
     </g>
    </g>
    <g id="ytick_6">
     <g id="line2d_46">
      <g>
       <use xlink:href="#m0b090afa49" x="52.305" y="100.166956" style="stroke: #000000; stroke-width: 0.8"/>
      </g>
     </g>
     <g id="text_15">
      <!-- 0.6 -->
      <g transform="translate(32.901875 103.966175) scale(0.1 -0.1)">
       <defs>
        <path id="DejaVuSans-36" d="M 2113 2584 
Q 1688 2584 1439 2293 
Q 1191 2003 1191 1497 
Q 1191 994 1439 701 
Q 1688 409 2113 409 
Q 2538 409 2786 701 
Q 3034 994 3034 1497 
Q 3034 2003 2786 2293 
Q 2538 2584 2113 2584 
z
M 3366 4563 
L 3366 3988 
Q 3128 4100 2886 4159 
Q 2644 4219 2406 4219 
Q 1781 4219 1451 3797 
Q 1122 3375 1075 2522 
Q 1259 2794 1537 2939 
Q 1816 3084 2150 3084 
Q 2853 3084 3261 2657 
Q 3669 2231 3669 1497 
Q 3669 778 3244 343 
Q 2819 -91 2113 -91 
Q 1303 -91 875 529 
Q 447 1150 447 2328 
Q 447 3434 972 4092 
Q 1497 4750 2381 4750 
Q 2619 4750 2861 4703 
Q 3103 4656 3366 4563 
z
" transform="scale(0.015625)"/>
       </defs>
       <use xlink:href="#DejaVuSans-30"/>
       <use xlink:href="#DejaVuSans-2e" x="63.623047"/>
       <use xlink:href="#DejaVuSans-36" x="95.410156"/>
      </g>
     </g>
    </g>
    <g id="ytick_7">
     <g id="line2d_47">
      <g>
       <use xlink:href="#m0b090afa49" x="52.305" y="62.562114" style="stroke: #000000; stroke-width: 0.8"/>
      </g>
     </g>
     <g id="text_16">
      <!-- 0.8 -->
      <g transform="translate(32.901875 66.361333) scale(0.1 -0.1)">
       <defs>
        <path id="DejaVuSans-38" d="M 2034 2216 
Q 1584 2216 1326 1975 
Q 1069 1734 1069 1313 
Q 1069 891 1326 650 
Q 1584 409 2034 409 
Q 2484 409 2743 651 
Q 3003 894 3003 1313 
Q 3003 1734 2745 1975 
Q 2488 2216 2034 2216 
z
M 1403 2484 
Q 997 2584 770 2862 
Q 544 3141 544 3541 
Q 544 4100 942 4425 
Q 1341 4750 2034 4750 
Q 2731 4750 3128 4425 
Q 3525 4100 3525 3541 
Q 3525 3141 3298 2862 
Q 3072 2584 2669 2484 
Q 3125 2378 3379 2068 
Q 3634 1759 3634 1313 
Q 3634 634 3220 271 
Q 2806 -91 2034 -91 
Q 1263 -91 848 271 
Q 434 634 434 1313 
Q 434 1759 690 2068 
Q 947 2378 1403 2484 
z
M 1172 3481 
Q 1172 3119 1398 2916 
Q 1625 2713 2034 2713 
Q 2441 2713 2670 2916 
Q 2900 3119 2900 3481 
Q 2900 3844 2670 4047 
Q 2441 4250 2034 4250 
Q 1625 4250 1398 4047 
Q 1172 3844 1172 3481 
z
" transform="scale(0.015625)"/>
       </defs>
       <use xlink:href="#DejaVuSans-30"/>
       <use xlink:href="#DejaVuSans-2e" x="63.623047"/>
       <use xlink:href="#DejaVuSans-38" x="95.410156"/>
      </g>
     </g>
    </g>
    <g id="ytick_8">
     <g id="line2d_48">
      <g>
       <use xlink:href="#m0b090afa49" x="52.305" y="24.957273" style="stroke: #000000; stroke-width: 0.8"/>
      </g>
     </g>
     <g id="text_17">
      <!-- 1.0 -->
      <g transform="translate(32.901875 28.756491) scale(0.1 -0.1)">
       <use xlink:href="#DejaVuSans-31"/>
       <use xlink:href="#DejaVuSans-2e" x="63.623047"/>
       <use xlink:href="#DejaVuSans-30" x="95.410156"/>
      </g>
     </g>
    </g>
    <g id="ytick_9">
     <g id="line2d_49">
      <defs>
       <path id="mcf8226bd79" d="M 0 0 
L 2 0 
" style="stroke: #000000; stroke-width: 0.6"/>
      </defs>
      <g>
       <use xlink:href="#mcf8226bd79" x="52.305" y="316.394795" style="stroke: #000000; stroke-width: 0.6"/>
      </g>
     </g>
    </g>
    <g id="ytick_10">
     <g id="line2d_50">
      <g>
       <use xlink:href="#mcf8226bd79" x="52.305" y="306.993585" style="stroke: #000000; stroke-width: 0.6"/>
      </g>
     </g>
    </g>
    <g id="ytick_11">
     <g id="line2d_51">
      <g>
       <use xlink:href="#mcf8226bd79" x="52.305" y="297.592374" style="stroke: #000000; stroke-width: 0.6"/>
      </g>
     </g>
    </g>
    <g id="ytick_12">
     <g id="line2d_52">
      <g>
       <use xlink:href="#mcf8226bd79" x="52.305" y="278.789953" style="stroke: #000000; stroke-width: 0.6"/>
      </g>
     </g>
    </g>
    <g id="ytick_13">
     <g id="line2d_53">
      <g>
       <use xlink:href="#mcf8226bd79" x="52.305" y="269.388743" style="stroke: #000000; stroke-width: 0.6"/>
      </g>
     </g>
    </g>
    <g id="ytick_14">
     <g id="line2d_54">
      <g>
       <use xlink:href="#mcf8226bd79" x="52.305" y="259.987533" style="stroke: #000000; stroke-width: 0.6"/>
      </g>
     </g>
    </g>
    <g id="ytick_15">
     <g id="line2d_55">
      <g>
       <use xlink:href="#mcf8226bd79" x="52.305" y="241.185112" style="stroke: #000000; stroke-width: 0.6"/>
      </g>
     </g>
    </g>
    <g id="ytick_16">
     <g id="line2d_56">
      <g>
       <use xlink:href="#mcf8226bd79" x="52.305" y="231.783901" style="stroke: #000000; stroke-width: 0.6"/>
      </g>
     </g>
    </g>
    <g id="ytick_17">
     <g id="line2d_57">
      <g>
       <use xlink:href="#mcf8226bd79" x="52.305" y="222.382691" style="stroke: #000000; stroke-width: 0.6"/>
      </g>
     </g>
    </g>
    <g id="ytick_18">
     <g id="line2d_58">
      <g>
       <use xlink:href="#mcf8226bd79" x="52.305" y="203.58027" style="stroke: #000000; stroke-width: 0.6"/>
      </g>
     </g>
    </g>
    <g id="ytick_19">
     <g id="line2d_59">
      <g>
       <use xlink:href="#mcf8226bd79" x="52.305" y="194.17906" style="stroke: #000000; stroke-width: 0.6"/>
      </g>
     </g>
    </g>
    <g id="ytick_20">
     <g id="line2d_60">
      <g>
       <use xlink:href="#mcf8226bd79" x="52.305" y="184.777849" style="stroke: #000000; stroke-width: 0.6"/>
      </g>
     </g>
    </g>
    <g id="ytick_21">
     <g id="line2d_61">
      <g>
       <use xlink:href="#mcf8226bd79" x="52.305" y="165.975429" style="stroke: #000000; stroke-width: 0.6"/>
      </g>
     </g>
    </g>
    <g id="ytick_22">
     <g id="line2d_62">
      <g>
       <use xlink:href="#mcf8226bd79" x="52.305" y="156.574218" style="stroke: #000000; stroke-width: 0.6"/>
      </g>
     </g>
    </g>
    <g id="ytick_23">
     <g id="line2d_63">
      <g>
       <use xlink:href="#mcf8226bd79" x="52.305" y="147.173008" style="stroke: #000000; stroke-width: 0.6"/>
      </g>
     </g>
    </g>
    <g id="ytick_24">
     <g id="line2d_64">
      <g>
       <use xlink:href="#mcf8226bd79" x="52.305" y="128.370587" style="stroke: #000000; stroke-width: 0.6"/>
      </g>
     </g>
    </g>
    <g id="ytick_25">
     <g id="line2d_65">
      <g>
       <use xlink:href="#mcf8226bd79" x="52.305" y="118.969377" style="stroke: #000000; stroke-width: 0.6"/>
      </g>
     </g>
    </g>
    <g id="ytick_26">
     <g id="line2d_66">
      <g>
       <use xlink:href="#mcf8226bd79" x="52.305" y="109.568166" style="stroke: #000000; stroke-width: 0.6"/>
      </g>
     </g>
    </g>
    <g id="ytick_27">
     <g id="line2d_67">
      <g>
       <use xlink:href="#mcf8226bd79" x="52.305" y="90.765745" style="stroke: #000000; stroke-width: 0.6"/>
      </g>
     </g>
    </g>
    <g id="ytick_28">
     <g id="line2d_68">
      <g>
       <use xlink:href="#mcf8226bd79" x="52.305" y="81.364535" style="stroke: #000000; stroke-width: 0.6"/>
      </g>
     </g>
    </g>
    <g id="ytick_29">
     <g id="line2d_69">
      <g>
       <use xlink:href="#mcf8226bd79" x="52.305" y="71.963325" style="stroke: #000000; stroke-width: 0.6"/>
      </g>
     </g>
    </g>
    <g id="ytick_30">
     <g id="line2d_70">
      <g>
       <use xlink:href="#mcf8226bd79" x="52.305" y="53.160904" style="stroke: #000000; stroke-width: 0.6"/>
      </g>
     </g>
    </g>
    <g id="ytick_31">
     <g id="line2d_71">
      <g>
       <use xlink:href="#mcf8226bd79" x="52.305" y="43.759694" style="stroke: #000000; stroke-width: 0.6"/>
      </g>
     </g>
    </g>
    <g id="ytick_32">
     <g id="line2d_72">
      <g>
       <use xlink:href="#mcf8226bd79" x="52.305" y="34.358483" style="stroke: #000000; stroke-width: 0.6"/>
      </g>
     </g>
    </g>
    <g id="ytick_33">
     <g id="line2d_73">
      <g>
       <use xlink:href="#mcf8226bd79" x="52.305" y="15.556062" style="stroke: #000000; stroke-width: 0.6"/>
      </g>
     </g>
    </g>
    <g id="text_18">
     <!-- Value -->
     <g transform="translate(18.4425 180.26125) rotate(-90) scale(0.1 -0.1)">
      <defs>
       <path id="DejaVuSans-56" d="M 1831 0 
L 50 4666 
L 709 4666 
L 2188 738 
L 3669 4666 
L 4325 4666 
L 2547 0 
L 1831 0 
z
" transform="scale(0.015625)"/>
       <path id="DejaVuSans-61" d="M 2194 1759 
Q 1497 1759 1228 1600 
Q 959 1441 959 1056 
Q 959 750 1161 570 
Q 1363 391 1709 391 
Q 2188 391 2477 730 
Q 2766 1069 2766 1631 
L 2766 1759 
L 2194 1759 
z
M 3341 1997 
L 3341 0 
L 2766 0 
L 2766 531 
Q 2569 213 2275 61 
Q 1981 -91 1556 -91 
Q 1019 -91 701 211 
Q 384 513 384 1019 
Q 384 1609 779 1909 
Q 1175 2209 1959 2209 
L 2766 2209 
L 2766 2266 
Q 2766 2663 2505 2880 
Q 2244 3097 1772 3097 
Q 1472 3097 1187 3025 
Q 903 2953 641 2809 
L 641 3341 
Q 956 3463 1253 3523 
Q 1550 3584 1831 3584 
Q 2591 3584 2966 3190 
Q 3341 2797 3341 1997 
z
" transform="scale(0.015625)"/>
       <path id="DejaVuSans-6c" d="M 603 4863 
L 1178 4863 
L 1178 0 
L 603 0 
L 603 4863 
z
" transform="scale(0.015625)"/>
       <path id="DejaVuSans-75" d="M 544 1381 
L 544 3500 
L 1119 3500 
L 1119 1403 
Q 1119 906 1312 657 
Q 1506 409 1894 409 
Q 2359 409 2629 706 
Q 2900 1003 2900 1516 
L 2900 3500 
L 3475 3500 
L 3475 0 
L 2900 0 
L 2900 538 
Q 2691 219 2414 64 
Q 2138 -91 1772 -91 
Q 1169 -91 856 284 
Q 544 659 544 1381 
z
M 1991 3584 
L 1991 3584 
z
" transform="scale(0.015625)"/>
      </defs>
      <use xlink:href="#DejaVuSans-56"/>
      <use xlink:href="#DejaVuSans-61" x="60.658203"/>
      <use xlink:href="#DejaVuSans-6c" x="121.9375"/>
      <use xlink:href="#DejaVuSans-75" x="149.720703"/>
      <use xlink:href="#DejaVuSans-65" x="213.099609"/>
     </g>
    </g>
   </g>
   <g id="line2d_74">
    <path d="M 66.045682 212.981481 
L 67.694564 173.791219 
L 69.068632 145.613557 
L 70.4427 122.137688 
L 71.541955 106.987124 
L 72.641209 95.149585 
L 73.46565 88.445782 
L 74.290091 83.591337 
L 74.839718 81.363629 
L 75.389345 79.924451 
L 75.938973 79.254154 
L 76.213786 79.20024 
L 76.4886 79.329596 
L 76.763414 79.638782 
L 77.313041 80.781801 
L 77.862668 82.597421 
L 78.687109 86.503661 
L 79.51155 91.708759 
L 80.610805 100.433651 
L 81.984873 113.763161 
L 83.633755 132.399909 
L 86.107077 163.339379 
L 89.404841 204.477356 
L 91.328536 225.70936 
L 92.977418 241.259772 
L 94.351486 251.994111 
L 95.450741 258.985454 
L 96.549995 264.500927 
L 97.374436 267.661382 
L 98.198877 269.995636 
L 99.023318 271.526405 
L 99.572945 272.111224 
L 100.122573 272.357145 
L 100.6722 272.275457 
L 101.221827 271.878461 
L 101.771455 271.179468 
L 102.595895 269.596341 
L 103.420336 267.418788 
L 104.519591 263.691233 
L 105.618845 259.161122 
L 106.992914 252.605344 
L 108.916609 242.29712 
L 114.412882 212.143664 
L 116.061764 204.52131 
L 117.435832 199.084428 
L 118.8099 194.587425 
L 119.909155 191.700946 
L 121.008409 189.463711 
L 121.83285 188.21576 
L 122.657291 187.332145 
L 123.481732 186.804532 
L 124.306173 186.620405 
L 125.130614 186.763057 
L 125.955055 187.211595 
L 126.779495 187.942465 
L 127.87875 189.318385 
L 128.978005 191.094149 
L 130.352073 193.775002 
L 132.000955 197.494067 
L 135.023905 205.012212 
L 137.772041 211.692158 
L 139.695736 215.821817 
L 141.344618 218.831864 
L 142.718686 220.895544 
L 144.092755 222.516966 
L 145.192009 223.485131 
L 146.291264 224.162058 
L 147.390518 224.556934 
L 148.489773 224.680385 
L 149.589027 224.548729 
L 150.688282 224.18258 
L 151.787536 223.605792 
L 153.161605 222.630191 
L 154.810486 221.164299 
L 157.008995 218.875449 
L 163.054895 212.393703 
L 164.978591 210.734449 
L 166.627473 209.585576 
L 168.276355 208.714222 
L 169.650423 208.207942 
L 171.024491 207.902036 
L 172.398559 207.789422 
L 174.047441 207.890029 
L 175.696323 208.215878 
L 177.620018 208.829458 
L 180.093341 209.879931 
L 188.887377 213.910262 
L 191.085886 214.583894 
L 193.284395 215.034446 
L 195.482905 215.256435 
L 197.681414 215.264721 
L 200.154736 215.053846 
L 203.177686 214.561403 
L 209.223586 213.269123 
L 213.345791 212.513517 
L 216.643555 212.126789 
L 219.941318 211.964801 
L 223.513895 212.024357 
L 227.910914 212.335896 
L 240.002714 213.330862 
L 244.949359 213.435234 
L 250.720445 213.316948 
L 268.308518 212.78098 
L 277.102555 212.87251 
L 293.591373 213.070459 
L 340.859318 212.998868 
L 340.859318 212.998868 
" clip-path="url(#p5c48000954)" style="fill: none; stroke: #1f77b4; stroke-width: 1.5; stroke-linecap: square"/>
   </g>
   <g id="line2d_75">
    <path d="M 66.045682 24.957273 
L 67.144936 40.326547 
L 68.519005 63.06263 
L 70.4427 99.4654 
L 76.763414 223.719585 
L 78.412295 250.093143 
L 79.786364 268.670657 
L 80.885618 281.077713 
L 81.984873 291.167496 
L 82.809314 297.17815 
L 83.633755 301.850383 
L 84.458195 305.200462 
L 85.007823 306.715702 
L 85.55745 307.673204 
L 86.107077 308.09134 
L 86.381891 308.102727 
L 86.656705 307.984565 
L 87.206332 307.370571 
L 87.755959 306.27204 
L 88.305586 304.712803 
L 89.130027 301.565098 
L 89.954468 297.526489 
L 91.053723 290.920914 
L 92.427791 281.044719 
L 94.076673 267.454507 
L 97.374436 237.78597 
L 99.847759 216.296459 
L 101.771455 201.530229 
L 103.145523 192.50343 
L 104.519591 184.95487 
L 105.618845 180.049079 
L 106.7181 176.176369 
L 107.542541 173.960829 
L 108.366982 172.332097 
L 109.191423 171.279405 
L 109.74105 170.889314 
L 110.290677 170.740854 
L 110.840305 170.825924 
L 111.389932 171.135113 
L 111.939559 171.6577 
L 112.764 172.815505 
L 113.588441 174.392137 
L 114.687695 177.073799 
L 116.061764 181.20549 
L 117.710645 187.027539 
L 120.183968 196.762471 
L 123.756545 210.812371 
L 125.680241 217.446758 
L 127.329123 222.284897 
L 128.703191 225.605196 
L 129.802445 227.753358 
L 130.9017 229.43394 
L 132.000955 230.646018 
L 132.825395 231.254393 
L 133.649836 231.612996 
L 134.474277 231.729304 
L 135.298718 231.615156 
L 136.123159 231.284072 
L 136.9476 230.751229 
L 138.046855 229.756258 
L 139.420923 228.118767 
L 141.069805 225.704494 
L 143.268314 221.988926 
L 148.489773 212.929667 
L 150.413468 210.124508 
L 152.06235 208.134497 
L 153.436418 206.807845 
L 154.810486 205.796847 
L 156.184555 205.108337 
L 157.283809 204.787023 
L 158.383064 204.662173 
L 159.482318 204.722417 
L 160.856386 205.034 
L 162.230455 205.576819 
L 163.879336 206.479645 
L 165.803032 207.788845 
L 169.100795 210.357192 
L 172.673373 213.062174 
L 174.871882 214.454605 
L 176.795577 215.421719 
L 178.719273 216.11774 
L 180.368155 216.489566 
L 182.017036 216.660159 
L 183.940732 216.622389 
L 185.864427 216.361154 
L 188.062936 215.844394 
L 191.085886 214.888457 
L 198.231041 212.52115 
L 200.979177 211.882701 
L 203.727314 211.487665 
L 206.47545 211.343421 
L 209.223586 211.426701 
L 212.52135 211.755946 
L 218.017623 212.576375 
L 223.513895 213.319702 
L 227.361286 213.622871 
L 231.208677 213.708066 
L 235.605695 213.579844 
L 243.575291 213.062986 
L 250.445632 212.722978 
L 256.216718 212.663111 
L 263.9115 212.830837 
L 276.827741 213.117801 
L 286.721032 213.065345 
L 305.957986 212.922222 
L 340.859318 212.982351 
L 340.859318 212.982351 
" clip-path="url(#p5c48000954)" style="fill: none; stroke: #ff7f0e; stroke-width: 1.5; stroke-linecap: square"/>
   </g>
   <g id="patch_3">
    <path d="M 52.305 322.26 
L 52.305 10.8 
" style="fill: none; stroke: #000000; stroke-width: 0.8; stroke-linejoin: miter; stroke-linecap: square"/>
   </g>
   <g id="patch_4">
    <path d="M 354.6 322.26 
L 354.6 10.8 
" style="fill: none; stroke: #000000; stroke-width: 0.8; stroke-linejoin: miter; stroke-linecap: square"/>
   </g>
   <g id="patch_5">
    <path d="M 52.305 322.26 
L 354.6 322.26 
" style="fill: none; stroke: #000000; stroke-width: 0.8; stroke-linejoin: miter; stroke-linecap: square"/>
   </g>
   <g id="patch_6">
    <path d="M 52.305 10.8 
L 354.6 10.8 
" style="fill: none; stroke: #000000; stroke-width: 0.8; stroke-linejoin: miter; stroke-linecap: square"/>
   </g>
   <g id="legend_1">
    <g id="patch_7">
     <path d="M 297.957812 48.15625 
L 347.6 48.15625 
Q 349.6 48.15625 349.6 46.15625 
L 349.6 17.8 
Q 349.6 15.8 347.6 15.8 
L 297.957812 15.8 
Q 295.957812 15.8 295.957812 17.8 
L 295.957812 46.15625 
Q 295.957812 48.15625 297.957812 48.15625 
z
" style="fill: #ffffff; opacity: 0.8; stroke: #cccccc; stroke-linejoin: miter"/>
    </g>
    <g id="line2d_76">
     <path d="M 299.957812 23.898438 
L 309.957812 23.898438 
L 319.957812 23.898438 
" style="fill: none; stroke: #1f77b4; stroke-width: 1.5; stroke-linecap: square"/>
    </g>
    <g id="text_19">
     <!-- x(t) -->
     <g transform="translate(327.957812 27.398438) scale(0.1 -0.1)">
      <defs>
       <path id="DejaVuSans-78" d="M 3513 3500 
L 2247 1797 
L 3578 0 
L 2900 0 
L 1881 1375 
L 863 0 
L 184 0 
L 1544 1831 
L 300 3500 
L 978 3500 
L 1906 2253 
L 2834 3500 
L 3513 3500 
z
" transform="scale(0.015625)"/>
      </defs>
      <use xlink:href="#DejaVuSans-78"/>
      <use xlink:href="#DejaVuSans-28" x="59.179688"/>
      <use xlink:href="#DejaVuSans-74" x="98.193359"/>
      <use xlink:href="#DejaVuSans-29" x="137.402344"/>
     </g>
    </g>
    <g id="line2d_77">
     <path d="M 299.957812 38.576563 
L 309.957812 38.576563 
L 319.957812 38.576563 
" style="fill: none; stroke: #ff7f0e; stroke-width: 1.5; stroke-linecap: square"/>
    </g>
    <g id="text_20">
     <!-- v(t) -->
     <g transform="translate(327.957812 42.076563) scale(0.1 -0.1)">
      <defs>
       <path id="DejaVuSans-76" d="M 191 3500 
L 800 3500 
L 1894 563 
L 2988 3500 
L 3597 3500 
L 2284 0 
L 1503 0 
L 191 3500 
z
" transform="scale(0.015625)"/>
      </defs>
      <use xlink:href="#DejaVuSans-76"/>
      <use xlink:href="#DejaVuSans-28" x="59.179688"/>
      <use xlink:href="#DejaVuSans-74" x="98.193359"/>
      <use xlink:href="#DejaVuSans-29" x="137.402344"/>
     </g>
    </g>
   </g>
  </g>
  <g id="axes_2">
   <g id="patch_8">
    <path d="M 406.905 322.26 
L 709.2 322.26 
L 709.2 10.8 
L 406.905 10.8 
z
" style="fill: #ffffff"/>
   </g>
   <g id="matplotlib.axis_3">
    <g id="xtick_41">
     <g id="line2d_78">
      <g>
       <use xlink:href="#m63f68e636b" x="439.971329" y="322.26" style="stroke: #000000; stroke-width: 0.8"/>
      </g>
     </g>
     <g id="text_21">
      <!-- −0.4 -->
      <g transform="translate(427.829923 333.358437) scale(0.1 -0.1)">
       <use xlink:href="#DejaVuSans-2212"/>
       <use xlink:href="#DejaVuSans-30" x="83.789062"/>
       <use xlink:href="#DejaVuSans-2e" x="147.412109"/>
       <use xlink:href="#DejaVuSans-34" x="179.199219"/>
      </g>
     </g>
    </g>
    <g id="xtick_42">
     <g id="line2d_79">
      <g>
       <use xlink:href="#m63f68e636b" x="476.469613" y="322.26" style="stroke: #000000; stroke-width: 0.8"/>
      </g>
     </g>
     <g id="text_22">
      <!-- −0.2 -->
      <g transform="translate(464.328207 333.358437) scale(0.1 -0.1)">
       <use xlink:href="#DejaVuSans-2212"/>
       <use xlink:href="#DejaVuSans-30" x="83.789062"/>
       <use xlink:href="#DejaVuSans-2e" x="147.412109"/>
       <use xlink:href="#DejaVuSans-32" x="179.199219"/>
      </g>
     </g>
    </g>
    <g id="xtick_43">
     <g id="line2d_80">
      <g>
       <use xlink:href="#m63f68e636b" x="512.967897" y="322.26" style="stroke: #000000; stroke-width: 0.8"/>
      </g>
     </g>
     <g id="text_23">
      <!-- 0.0 -->
      <g transform="translate(505.016335 333.358437) scale(0.1 -0.1)">
       <use xlink:href="#DejaVuSans-30"/>
       <use xlink:href="#DejaVuSans-2e" x="63.623047"/>
       <use xlink:href="#DejaVuSans-30" x="95.410156"/>
      </g>
     </g>
    </g>
    <g id="xtick_44">
     <g id="line2d_81">
      <g>
       <use xlink:href="#m63f68e636b" x="549.466182" y="322.26" style="stroke: #000000; stroke-width: 0.8"/>
      </g>
     </g>
     <g id="text_24">
      <!-- 0.2 -->
      <g transform="translate(541.514619 333.358437) scale(0.1 -0.1)">
       <use xlink:href="#DejaVuSans-30"/>
       <use xlink:href="#DejaVuSans-2e" x="63.623047"/>
       <use xlink:href="#DejaVuSans-32" x="95.410156"/>
      </g>
     </g>
    </g>
    <g id="xtick_45">
     <g id="line2d_82">
      <g>
       <use xlink:href="#m63f68e636b" x="585.964466" y="322.26" style="stroke: #000000; stroke-width: 0.8"/>
      </g>
     </g>
     <g id="text_25">
      <!-- 0.4 -->
      <g transform="translate(578.012903 333.358437) scale(0.1 -0.1)">
       <use xlink:href="#DejaVuSans-30"/>
       <use xlink:href="#DejaVuSans-2e" x="63.623047"/>
       <use xlink:href="#DejaVuSans-34" x="95.410156"/>
      </g>
     </g>
    </g>
    <g id="xtick_46">
     <g id="line2d_83">
      <g>
       <use xlink:href="#m63f68e636b" x="622.46275" y="322.26" style="stroke: #000000; stroke-width: 0.8"/>
      </g>
     </g>
     <g id="text_26">
      <!-- 0.6 -->
      <g transform="translate(614.511187 333.358437) scale(0.1 -0.1)">
       <use xlink:href="#DejaVuSans-30"/>
       <use xlink:href="#DejaVuSans-2e" x="63.623047"/>
       <use xlink:href="#DejaVuSans-36" x="95.410156"/>
      </g>
     </g>
    </g>
    <g id="xtick_47">
     <g id="line2d_84">
      <g>
       <use xlink:href="#m63f68e636b" x="658.961034" y="322.26" style="stroke: #000000; stroke-width: 0.8"/>
      </g>
     </g>
     <g id="text_27">
      <!-- 0.8 -->
      <g transform="translate(651.009472 333.358437) scale(0.1 -0.1)">
       <use xlink:href="#DejaVuSans-30"/>
       <use xlink:href="#DejaVuSans-2e" x="63.623047"/>
       <use xlink:href="#DejaVuSans-38" x="95.410156"/>
      </g>
     </g>
    </g>
    <g id="xtick_48">
     <g id="line2d_85">
      <g>
       <use xlink:href="#m63f68e636b" x="695.459318" y="322.26" style="stroke: #000000; stroke-width: 0.8"/>
      </g>
     </g>
     <g id="text_28">
      <!-- 1.0 -->
      <g transform="translate(687.507756 333.358437) scale(0.1 -0.1)">
       <use xlink:href="#DejaVuSans-31"/>
       <use xlink:href="#DejaVuSans-2e" x="63.623047"/>
       <use xlink:href="#DejaVuSans-30" x="95.410156"/>
      </g>
     </g>
    </g>
    <g id="xtick_49">
     <g id="line2d_86">
      <g>
       <use xlink:href="#m74647d9c61" x="412.597616" y="322.26" style="stroke: #000000; stroke-width: 0.6"/>
      </g>
     </g>
    </g>
    <g id="xtick_50">
     <g id="line2d_87">
      <g>
       <use xlink:href="#m74647d9c61" x="421.722187" y="322.26" style="stroke: #000000; stroke-width: 0.6"/>
      </g>
     </g>
    </g>
    <g id="xtick_51">
     <g id="line2d_88">
      <g>
       <use xlink:href="#m74647d9c61" x="430.846758" y="322.26" style="stroke: #000000; stroke-width: 0.6"/>
      </g>
     </g>
    </g>
    <g id="xtick_52">
     <g id="line2d_89">
      <g>
       <use xlink:href="#m74647d9c61" x="449.0959" y="322.26" style="stroke: #000000; stroke-width: 0.6"/>
      </g>
     </g>
    </g>
    <g id="xtick_53">
     <g id="line2d_90">
      <g>
       <use xlink:href="#m74647d9c61" x="458.220471" y="322.26" style="stroke: #000000; stroke-width: 0.6"/>
      </g>
     </g>
    </g>
    <g id="xtick_54">
     <g id="line2d_91">
      <g>
       <use xlink:href="#m74647d9c61" x="467.345042" y="322.26" style="stroke: #000000; stroke-width: 0.6"/>
      </g>
     </g>
    </g>
    <g id="xtick_55">
     <g id="line2d_92">
      <g>
       <use xlink:href="#m74647d9c61" x="485.594184" y="322.26" style="stroke: #000000; stroke-width: 0.6"/>
      </g>
     </g>
    </g>
    <g id="xtick_56">
     <g id="line2d_93">
      <g>
       <use xlink:href="#m74647d9c61" x="494.718755" y="322.26" style="stroke: #000000; stroke-width: 0.6"/>
      </g>
     </g>
    </g>
    <g id="xtick_57">
     <g id="line2d_94">
      <g>
       <use xlink:href="#m74647d9c61" x="503.843326" y="322.26" style="stroke: #000000; stroke-width: 0.6"/>
      </g>
     </g>
    </g>
    <g id="xtick_58">
     <g id="line2d_95">
      <g>
       <use xlink:href="#m74647d9c61" x="522.092468" y="322.26" style="stroke: #000000; stroke-width: 0.6"/>
      </g>
     </g>
    </g>
    <g id="xtick_59">
     <g id="line2d_96">
      <g>
       <use xlink:href="#m74647d9c61" x="531.217039" y="322.26" style="stroke: #000000; stroke-width: 0.6"/>
      </g>
     </g>
    </g>
    <g id="xtick_60">
     <g id="line2d_97">
      <g>
       <use xlink:href="#m74647d9c61" x="540.34161" y="322.26" style="stroke: #000000; stroke-width: 0.6"/>
      </g>
     </g>
    </g>
    <g id="xtick_61">
     <g id="line2d_98">
      <g>
       <use xlink:href="#m74647d9c61" x="558.590753" y="322.26" style="stroke: #000000; stroke-width: 0.6"/>
      </g>
     </g>
    </g>
    <g id="xtick_62">
     <g id="line2d_99">
      <g>
       <use xlink:href="#m74647d9c61" x="567.715324" y="322.26" style="stroke: #000000; stroke-width: 0.6"/>
      </g>
     </g>
    </g>
    <g id="xtick_63">
     <g id="line2d_100">
      <g>
       <use xlink:href="#m74647d9c61" x="576.839895" y="322.26" style="stroke: #000000; stroke-width: 0.6"/>
      </g>
     </g>
    </g>
    <g id="xtick_64">
     <g id="line2d_101">
      <g>
       <use xlink:href="#m74647d9c61" x="595.089037" y="322.26" style="stroke: #000000; stroke-width: 0.6"/>
      </g>
     </g>
    </g>
    <g id="xtick_65">
     <g id="line2d_102">
      <g>
       <use xlink:href="#m74647d9c61" x="604.213608" y="322.26" style="stroke: #000000; stroke-width: 0.6"/>
      </g>
     </g>
    </g>
    <g id="xtick_66">
     <g id="line2d_103">
      <g>
       <use xlink:href="#m74647d9c61" x="613.338179" y="322.26" style="stroke: #000000; stroke-width: 0.6"/>
      </g>
     </g>
    </g>
    <g id="xtick_67">
     <g id="line2d_104">
      <g>
       <use xlink:href="#m74647d9c61" x="631.587321" y="322.26" style="stroke: #000000; stroke-width: 0.6"/>
      </g>
     </g>
    </g>
    <g id="xtick_68">
     <g id="line2d_105">
      <g>
       <use xlink:href="#m74647d9c61" x="640.711892" y="322.26" style="stroke: #000000; stroke-width: 0.6"/>
      </g>
     </g>
    </g>
    <g id="xtick_69">
     <g id="line2d_106">
      <g>
       <use xlink:href="#m74647d9c61" x="649.836463" y="322.26" style="stroke: #000000; stroke-width: 0.6"/>
      </g>
     </g>
    </g>
    <g id="xtick_70">
     <g id="line2d_107">
      <g>
       <use xlink:href="#m74647d9c61" x="668.085605" y="322.26" style="stroke: #000000; stroke-width: 0.6"/>
      </g>
     </g>
    </g>
    <g id="xtick_71">
     <g id="line2d_108">
      <g>
       <use xlink:href="#m74647d9c61" x="677.210176" y="322.26" style="stroke: #000000; stroke-width: 0.6"/>
      </g>
     </g>
    </g>
    <g id="xtick_72">
     <g id="line2d_109">
      <g>
       <use xlink:href="#m74647d9c61" x="686.334747" y="322.26" style="stroke: #000000; stroke-width: 0.6"/>
      </g>
     </g>
    </g>
    <g id="xtick_73">
     <g id="line2d_110">
      <g>
       <use xlink:href="#m74647d9c61" x="704.583889" y="322.26" style="stroke: #000000; stroke-width: 0.6"/>
      </g>
     </g>
    </g>
    <g id="text_29">
     <!-- Velocity (v) -->
     <g transform="translate(529.986875 347.036563) scale(0.1 -0.1)">
      <defs>
       <path id="DejaVuSans-6f" d="M 1959 3097 
Q 1497 3097 1228 2736 
Q 959 2375 959 1747 
Q 959 1119 1226 758 
Q 1494 397 1959 397 
Q 2419 397 2687 759 
Q 2956 1122 2956 1747 
Q 2956 2369 2687 2733 
Q 2419 3097 1959 3097 
z
M 1959 3584 
Q 2709 3584 3137 3096 
Q 3566 2609 3566 1747 
Q 3566 888 3137 398 
Q 2709 -91 1959 -91 
Q 1206 -91 779 398 
Q 353 888 353 1747 
Q 353 2609 779 3096 
Q 1206 3584 1959 3584 
z
" transform="scale(0.015625)"/>
       <path id="DejaVuSans-63" d="M 3122 3366 
L 3122 2828 
Q 2878 2963 2633 3030 
Q 2388 3097 2138 3097 
Q 1578 3097 1268 2742 
Q 959 2388 959 1747 
Q 959 1106 1268 751 
Q 1578 397 2138 397 
Q 2388 397 2633 464 
Q 2878 531 3122 666 
L 3122 134 
Q 2881 22 2623 -34 
Q 2366 -91 2075 -91 
Q 1284 -91 818 406 
Q 353 903 353 1747 
Q 353 2603 823 3093 
Q 1294 3584 2113 3584 
Q 2378 3584 2631 3529 
Q 2884 3475 3122 3366 
z
" transform="scale(0.015625)"/>
       <path id="DejaVuSans-79" d="M 2059 -325 
Q 1816 -950 1584 -1140 
Q 1353 -1331 966 -1331 
L 506 -1331 
L 506 -850 
L 844 -850 
Q 1081 -850 1212 -737 
Q 1344 -625 1503 -206 
L 1606 56 
L 191 3500 
L 800 3500 
L 1894 763 
L 2988 3500 
L 3597 3500 
L 2059 -325 
z
" transform="scale(0.015625)"/>
      </defs>
      <use xlink:href="#DejaVuSans-56"/>
      <use xlink:href="#DejaVuSans-65" x="60.658203"/>
      <use xlink:href="#DejaVuSans-6c" x="122.181641"/>
      <use xlink:href="#DejaVuSans-6f" x="149.964844"/>
      <use xlink:href="#DejaVuSans-63" x="211.146484"/>
      <use xlink:href="#DejaVuSans-69" x="266.126953"/>
      <use xlink:href="#DejaVuSans-74" x="293.910156"/>
      <use xlink:href="#DejaVuSans-79" x="333.119141"/>
      <use xlink:href="#DejaVuSans-20" x="392.298828"/>
      <use xlink:href="#DejaVuSans-28" x="424.085938"/>
      <use xlink:href="#DejaVuSans-76" x="463.099609"/>
      <use xlink:href="#DejaVuSans-29" x="522.279297"/>
     </g>
    </g>
   </g>
   <g id="matplotlib.axis_4">
    <g id="ytick_34">
     <g id="line2d_111">
      <g>
       <use xlink:href="#m0b090afa49" x="406.905" y="276.189245" style="stroke: #000000; stroke-width: 0.8"/>
      </g>
     </g>
     <g id="text_30">
      <!-- −0.2 -->
      <g transform="translate(379.122188 279.988464) scale(0.1 -0.1)">
       <use xlink:href="#DejaVuSans-2212"/>
       <use xlink:href="#DejaVuSans-30" x="83.789062"/>
       <use xlink:href="#DejaVuSans-2e" x="147.412109"/>
       <use xlink:href="#DejaVuSans-32" x="179.199219"/>
      </g>
     </g>
    </g>
    <g id="ytick_35">
     <g id="line2d_112">
      <g>
       <use xlink:href="#m0b090afa49" x="406.905" y="221.064941" style="stroke: #000000; stroke-width: 0.8"/>
      </g>
     </g>
     <g id="text_31">
      <!-- 0.0 -->
      <g transform="translate(387.501875 224.86416) scale(0.1 -0.1)">
       <use xlink:href="#DejaVuSans-30"/>
       <use xlink:href="#DejaVuSans-2e" x="63.623047"/>
       <use xlink:href="#DejaVuSans-30" x="95.410156"/>
      </g>
     </g>
    </g>
    <g id="ytick_36">
     <g id="line2d_113">
      <g>
       <use xlink:href="#m0b090afa49" x="406.905" y="165.940637" style="stroke: #000000; stroke-width: 0.8"/>
      </g>
     </g>
     <g id="text_32">
      <!-- 0.2 -->
      <g transform="translate(387.501875 169.739855) scale(0.1 -0.1)">
       <use xlink:href="#DejaVuSans-30"/>
       <use xlink:href="#DejaVuSans-2e" x="63.623047"/>
       <use xlink:href="#DejaVuSans-32" x="95.410156"/>
      </g>
     </g>
    </g>
    <g id="ytick_37">
     <g id="line2d_114">
      <g>
       <use xlink:href="#m0b090afa49" x="406.905" y="110.816332" style="stroke: #000000; stroke-width: 0.8"/>
      </g>
     </g>
     <g id="text_33">
      <!-- 0.4 -->
      <g transform="translate(387.501875 114.615551) scale(0.1 -0.1)">
       <use xlink:href="#DejaVuSans-30"/>
       <use xlink:href="#DejaVuSans-2e" x="63.623047"/>
       <use xlink:href="#DejaVuSans-34" x="95.410156"/>
      </g>
     </g>
    </g>
    <g id="ytick_38">
     <g id="line2d_115">
      <g>
       <use xlink:href="#m0b090afa49" x="406.905" y="55.692028" style="stroke: #000000; stroke-width: 0.8"/>
      </g>
     </g>
     <g id="text_34">
      <!-- 0.6 -->
      <g transform="translate(387.501875 59.491247) scale(0.1 -0.1)">
       <use xlink:href="#DejaVuSans-30"/>
       <use xlink:href="#DejaVuSans-2e" x="63.623047"/>
       <use xlink:href="#DejaVuSans-36" x="95.410156"/>
      </g>
     </g>
    </g>
    <g id="ytick_39">
     <g id="line2d_116">
      <g>
       <use xlink:href="#mcf8226bd79" x="406.905" y="317.532474" style="stroke: #000000; stroke-width: 0.6"/>
      </g>
     </g>
    </g>
    <g id="ytick_40">
     <g id="line2d_117">
      <g>
       <use xlink:href="#mcf8226bd79" x="406.905" y="303.751397" style="stroke: #000000; stroke-width: 0.6"/>
      </g>
     </g>
    </g>
    <g id="ytick_41">
     <g id="line2d_118">
      <g>
       <use xlink:href="#mcf8226bd79" x="406.905" y="289.970321" style="stroke: #000000; stroke-width: 0.6"/>
      </g>
     </g>
    </g>
    <g id="ytick_42">
     <g id="line2d_119">
      <g>
       <use xlink:href="#mcf8226bd79" x="406.905" y="262.408169" style="stroke: #000000; stroke-width: 0.6"/>
      </g>
     </g>
    </g>
    <g id="ytick_43">
     <g id="line2d_120">
      <g>
       <use xlink:href="#mcf8226bd79" x="406.905" y="248.627093" style="stroke: #000000; stroke-width: 0.6"/>
      </g>
     </g>
    </g>
    <g id="ytick_44">
     <g id="line2d_121">
      <g>
       <use xlink:href="#mcf8226bd79" x="406.905" y="234.846017" style="stroke: #000000; stroke-width: 0.6"/>
      </g>
     </g>
    </g>
    <g id="ytick_45">
     <g id="line2d_122">
      <g>
       <use xlink:href="#mcf8226bd79" x="406.905" y="207.283865" style="stroke: #000000; stroke-width: 0.6"/>
      </g>
     </g>
    </g>
    <g id="ytick_46">
     <g id="line2d_123">
      <g>
       <use xlink:href="#mcf8226bd79" x="406.905" y="193.502789" style="stroke: #000000; stroke-width: 0.6"/>
      </g>
     </g>
    </g>
    <g id="ytick_47">
     <g id="line2d_124">
      <g>
       <use xlink:href="#mcf8226bd79" x="406.905" y="179.721713" style="stroke: #000000; stroke-width: 0.6"/>
      </g>
     </g>
    </g>
    <g id="ytick_48">
     <g id="line2d_125">
      <g>
       <use xlink:href="#mcf8226bd79" x="406.905" y="152.159561" style="stroke: #000000; stroke-width: 0.6"/>
      </g>
     </g>
    </g>
    <g id="ytick_49">
     <g id="line2d_126">
      <g>
       <use xlink:href="#mcf8226bd79" x="406.905" y="138.378485" style="stroke: #000000; stroke-width: 0.6"/>
      </g>
     </g>
    </g>
    <g id="ytick_50">
     <g id="line2d_127">
      <g>
       <use xlink:href="#mcf8226bd79" x="406.905" y="124.597408" style="stroke: #000000; stroke-width: 0.6"/>
      </g>
     </g>
    </g>
    <g id="ytick_51">
     <g id="line2d_128">
      <g>
       <use xlink:href="#mcf8226bd79" x="406.905" y="97.035256" style="stroke: #000000; stroke-width: 0.6"/>
      </g>
     </g>
    </g>
    <g id="ytick_52">
     <g id="line2d_129">
      <g>
       <use xlink:href="#mcf8226bd79" x="406.905" y="83.25418" style="stroke: #000000; stroke-width: 0.6"/>
      </g>
     </g>
    </g>
    <g id="ytick_53">
     <g id="line2d_130">
      <g>
       <use xlink:href="#mcf8226bd79" x="406.905" y="69.473104" style="stroke: #000000; stroke-width: 0.6"/>
      </g>
     </g>
    </g>
    <g id="ytick_54">
     <g id="line2d_131">
      <g>
       <use xlink:href="#mcf8226bd79" x="406.905" y="41.910952" style="stroke: #000000; stroke-width: 0.6"/>
      </g>
     </g>
    </g>
    <g id="ytick_55">
     <g id="line2d_132">
      <g>
       <use xlink:href="#mcf8226bd79" x="406.905" y="28.129876" style="stroke: #000000; stroke-width: 0.6"/>
      </g>
     </g>
    </g>
    <g id="ytick_56">
     <g id="line2d_133">
      <g>
       <use xlink:href="#mcf8226bd79" x="406.905" y="14.3488" style="stroke: #000000; stroke-width: 0.6"/>
      </g>
     </g>
    </g>
    <g id="text_35">
     <!-- Position (x) -->
     <g transform="translate(373.0425 194.444063) rotate(-90) scale(0.1 -0.1)">
      <defs>
       <path id="DejaVuSans-50" d="M 1259 4147 
L 1259 2394 
L 2053 2394 
Q 2494 2394 2734 2622 
Q 2975 2850 2975 3272 
Q 2975 3691 2734 3919 
Q 2494 4147 2053 4147 
L 1259 4147 
z
M 628 4666 
L 2053 4666 
Q 2838 4666 3239 4311 
Q 3641 3956 3641 3272 
Q 3641 2581 3239 2228 
Q 2838 1875 2053 1875 
L 1259 1875 
L 1259 0 
L 628 0 
L 628 4666 
z
" transform="scale(0.015625)"/>
       <path id="DejaVuSans-73" d="M 2834 3397 
L 2834 2853 
Q 2591 2978 2328 3040 
Q 2066 3103 1784 3103 
Q 1356 3103 1142 2972 
Q 928 2841 928 2578 
Q 928 2378 1081 2264 
Q 1234 2150 1697 2047 
L 1894 2003 
Q 2506 1872 2764 1633 
Q 3022 1394 3022 966 
Q 3022 478 2636 193 
Q 2250 -91 1575 -91 
Q 1294 -91 989 -36 
Q 684 19 347 128 
L 347 722 
Q 666 556 975 473 
Q 1284 391 1588 391 
Q 1994 391 2212 530 
Q 2431 669 2431 922 
Q 2431 1156 2273 1281 
Q 2116 1406 1581 1522 
L 1381 1569 
Q 847 1681 609 1914 
Q 372 2147 372 2553 
Q 372 3047 722 3315 
Q 1072 3584 1716 3584 
Q 2034 3584 2315 3537 
Q 2597 3491 2834 3397 
z
" transform="scale(0.015625)"/>
       <path id="DejaVuSans-6e" d="M 3513 2113 
L 3513 0 
L 2938 0 
L 2938 2094 
Q 2938 2591 2744 2837 
Q 2550 3084 2163 3084 
Q 1697 3084 1428 2787 
Q 1159 2491 1159 1978 
L 1159 0 
L 581 0 
L 581 3500 
L 1159 3500 
L 1159 2956 
Q 1366 3272 1645 3428 
Q 1925 3584 2291 3584 
Q 2894 3584 3203 3211 
Q 3513 2838 3513 2113 
z
" transform="scale(0.015625)"/>
      </defs>
      <use xlink:href="#DejaVuSans-50"/>
      <use xlink:href="#DejaVuSans-6f" x="56.677734"/>
      <use xlink:href="#DejaVuSans-73" x="117.859375"/>
      <use xlink:href="#DejaVuSans-69" x="169.958984"/>
      <use xlink:href="#DejaVuSans-74" x="197.742188"/>
      <use xlink:href="#DejaVuSans-69" x="236.951172"/>
      <use xlink:href="#DejaVuSans-6f" x="264.734375"/>
      <use xlink:href="#DejaVuSans-6e" x="325.916016"/>
      <use xlink:href="#DejaVuSans-20" x="389.294922"/>
      <use xlink:href="#DejaVuSans-28" x="421.082031"/>
      <use xlink:href="#DejaVuSans-78" x="460.095703"/>
      <use xlink:href="#DejaVuSans-29" x="519.275391"/>
     </g>
    </g>
   </g>
   <g id="line2d_134">
    <path d="M 695.459318 221.064941 
L 691.990892 210.963002 
L 688.343241 201.059932 
L 684.524597 191.365517 
L 680.542299 181.887902 
L 676.40427 172.635249 
L 672.119596 163.616596 
L 667.697275 154.840431 
L 663.146218 146.314703 
L 658.475247 138.046813 
L 653.693098 130.04362 
L 648.80842 122.311436 
L 643.829774 114.856033 
L 638.765633 107.682634 
L 633.624382 100.795921 
L 628.414322 94.200031 
L 623.143662 87.898555 
L 617.820527 81.894542 
L 612.452952 76.190496 
L 607.048888 70.788376 
L 601.616195 65.689597 
L 596.162647 60.89503 
L 590.695931 56.405002 
L 585.223647 52.219296 
L 579.753306 48.337148 
L 574.291771 44.757865 
L 568.844458 41.482523 
L 563.419046 38.510156 
L 558.023211 35.839245 
L 552.664356 33.467949 
L 547.349615 31.394108 
L 542.085855 29.615241 
L 536.879668 28.128547 
L 531.737381 26.930907 
L 526.665049 26.01888 
L 521.668457 25.388706 
L 516.753122 25.036304 
L 511.92429 24.957273 
L 507.186938 25.146893 
L 502.545772 25.600124 
L 498.005229 26.311605 
L 493.569477 27.275655 
L 489.242413 28.486275 
L 485.027665 29.937143 
L 480.928591 31.621619 
L 476.94828 33.532743 
L 473.08955 35.663233 
L 469.354951 38.00549 
L 465.746761 40.551593 
L 462.266989 43.2933 
L 458.917426 46.222225 
L 455.701191 49.334611 
L 452.620924 52.624303 
L 449.678472 56.082972 
L 446.87546 59.702333 
L 444.213292 63.474142 
L 441.693151 67.3902 
L 439.315999 71.44235 
L 437.082578 75.622477 
L 434.993408 79.922509 
L 433.048786 84.33442 
L 431.248793 88.850222 
L 429.593284 93.461974 
L 428.081897 98.161776 
L 426.714045 102.941772 
L 425.488924 107.794147 
L 424.405507 112.71113 
L 423.462545 117.684994 
L 422.65857 122.708053 
L 421.991893 127.772666 
L 421.460602 132.871234 
L 421.062566 137.996199 
L 420.795431 143.140049 
L 420.656734 148.29542 
L 420.645682 153.456627 
L 420.760367 158.616599 
L 420.998143 163.767762 
L 421.356294 168.902777 
L 421.832031 174.014542 
L 422.4225 179.096191 
L 423.124773 184.141095 
L 423.935854 189.142858 
L 425.872107 198.992568 
L 428.205886 208.598887 
L 430.910705 217.91916 
L 433.958953 226.914506 
L 437.321904 235.549819 
L 440.969711 243.79377 
L 444.871409 251.618807 
L 448.996014 259.000696 
L 453.317105 265.914533 
L 457.802998 272.338058 
L 462.421978 278.252899 
L 467.143439 283.644354 
L 471.937883 288.501391 
L 476.776921 292.816648 
L 481.63327 296.58643 
L 486.480758 299.810713 
L 491.294319 302.493142 
L 493.680847 303.633304 
L 496.049995 304.641032 
L 498.398943 305.517814 
L 500.724938 306.265366 
L 503.02552 306.884961 
L 505.298512 307.376673 
L 507.541077 307.742236 
L 509.750466 307.98358 
L 511.924049 308.102727 
L 514.059325 308.101792 
L 516.153915 307.982983 
L 518.205564 307.748599 
L 520.212142 307.401033 
L 522.171643 306.942771 
L 524.082185 306.376391 
L 525.942012 305.704563 
L 527.749489 304.930051 
L 529.503109 304.055711 
L 532.843362 302.019435 
L 535.953187 299.620435 
L 538.824988 296.884897 
L 541.453157 293.840485 
L 543.834078 290.51635 
L 545.966083 286.943036 
L 547.845758 283.144943 
L 549.470429 279.148896 
L 550.84033 274.985574 
L 551.95697 270.684711 
L 552.823127 266.275096 
L 553.442851 261.784571 
L 553.821463 257.240035 
L 553.965554 252.66744 
L 553.882987 248.091793 
L 553.582897 243.537155 
L 553.075688 239.026643 
L 552.373035 234.582428 
L 551.485309 230.22435 
L 550.421714 225.971901 
L 549.195243 221.846121 
L 547.818962 217.866192 
L 546.305968 214.049411 
L 544.669382 210.41118 
L 542.922352 206.965015 
L 541.078055 203.722538 
L 539.149692 200.693485 
L 537.150495 197.885699 
L 535.093719 195.305135 
L 532.992648 192.955856 
L 530.860593 190.840036 
L 528.709647 188.960134 
L 526.550939 187.32033 
L 524.397256 185.921012 
L 522.260662 184.761288 
L 520.152445 183.839057 
L 518.083124 183.151001 
L 516.062445 182.692593 
L 514.099379 182.458093 
L 512.202128 182.440549 
L 510.378122 182.631795 
L 508.634015 183.022453 
L 506.975693 183.601934 
L 505.408579 184.360669 
L 503.938243 185.289856 
L 502.569528 186.377607 
L 501.306488 187.611913 
L 500.152386 188.980669 
L 499.1097 190.471676 
L 498.180117 192.07264 
L 496.999567 194.653128 
L 496.075054 197.410909 
L 495.4023 200.30329 
L 494.974002 203.288574 
L 494.78392 206.329239 
L 494.821529 209.382925 
L 495.074244 212.410022 
L 495.52787 215.374606 
L 496.166604 218.244435 
L 496.973037 220.990949 
L 497.928148 223.589272 
L 499.011312 226.018211 
L 500.201599 228.259709 
L 501.481338 230.295795 
L 502.82947 232.111673 
L 504.225504 233.696413 
L 505.650006 235.042849 
L 507.0846 236.147579 
L 508.511971 237.010967 
L 509.915861 237.637137 
L 511.281265 238.033204 
L 512.594495 238.205061 
L 513.841588 238.162639 
L 515.010319 237.917934 
L 516.090449 237.484444 
L 517.073724 236.877172 
L 517.953874 236.112627 
L 518.726613 235.208823 
L 519.586006 233.820736 
L 520.245974 232.262155 
L 520.705659 230.578866 
L 520.969033 228.816436 
L 521.044106 227.017495 
L 520.89188 224.777663 
L 520.495854 222.61311 
L 519.889163 220.586713 
L 519.110993 218.756281 
L 518.201742 217.165957 
L 517.202059 215.845318 
L 516.152688 214.809639 
L 515.091461 214.06749 
L 514.055182 213.619069 
L 513.076109 213.45399 
L 512.180543 213.552523 
L 511.388954 213.886361 
L 510.71799 214.424765 
L 510.180005 215.131601 
L 509.718427 216.148953 
L 509.456511 217.28797 
L 509.389756 218.684722 
L 509.554911 220.059988 
L 509.914304 221.328433 
L 510.502666 222.566552 
L 511.209241 223.514855 
L 511.959916 224.133107 
L 512.600815 224.399758 
L 513.187773 224.426311 
L 513.689243 224.239378 
L 514.083625 223.875965 
L 514.390465 223.30214 
L 514.54859 222.53826 
L 514.508646 221.657036 
L 514.254998 220.777506 
L 513.817867 220.055025 
L 513.319775 219.652125 
L 512.894769 219.569661 
L 512.559159 219.723874 
L 512.33254 220.082773 
L 512.26434 220.619829 
L 512.414874 221.233355 
L 512.725152 221.63975 
L 513.020373 221.725192 
L 513.218794 221.570941 
L 513.276899 221.22219 
L 513.122216 220.851539 
L 512.91106 220.784029 
L 512.82894 220.958962 
L 512.940471 221.189693 
L 513.022049 221.153857 
L 513.029407 221.107323 
L 512.967502 221.007065 
L 512.967052 221.090429 
" clip-path="url(#pb7e892c479)" style="fill: none; stroke: #000000; stroke-width: 1.5; stroke-linecap: square"/>
   </g>
   <g id="patch_9">
    <path d="M 406.905 322.26 
L 406.905 10.8 
" style="fill: none; stroke: #000000; stroke-width: 0.8; stroke-linejoin: miter; stroke-linecap: square"/>
   </g>
   <g id="patch_10">
    <path d="M 709.2 322.26 
L 709.2 10.8 
" style="fill: none; stroke: #000000; stroke-width: 0.8; stroke-linejoin: miter; stroke-linecap: square"/>
   </g>
   <g id="patch_11">
    <path d="M 406.905 322.26 
L 709.2 322.26 
" style="fill: none; stroke: #000000; stroke-width: 0.8; stroke-linejoin: miter; stroke-linecap: square"/>
   </g>
   <g id="patch_12">
    <path d="M 406.905 10.8 
L 709.2 10.8 
" style="fill: none; stroke: #000000; stroke-width: 0.8; stroke-linejoin: miter; stroke-linecap: square"/>
   </g>
  </g>
 </g>
 <defs>
  <clipPath id="p5c48000954">
   <rect x="52.305" y="10.8" width="302.295" height="311.46"/>
  </clipPath>
  <clipPath id="pb7e892c479">
   <rect x="406.905" y="10.8" width="302.295" height="311.46"/>
  </clipPath>
 </defs>
</svg>
