<?xml version="1.0" encoding="utf-8" standalone="no"?>
<!DOCTYPE svg PUBLIC "-//W3C//DTD SVG 1.1//EN"
  "http://www.w3.org/Graphics/SVG/1.1/DTD/svg11.dtd">
<svg xmlns:xlink="http://www.w3.org/1999/xlink" width="396pt" height="287.928pt" viewBox="0 0 396 287.928" xmlns="http://www.w3.org/2000/svg" version="1.1">
 <metadata>
  <rdf:RDF xmlns:dc="http://purl.org/dc/elements/1.1/" xmlns:cc="http://creativecommons.org/ns#" xmlns:rdf="http://www.w3.org/1999/02/22-rdf-syntax-ns#">
   <cc:Work>
    <dc:type rdf:resource="http://purl.org/dc/dcmitype/StillImage"/>
    <dc:date>2024-10-01T01:48:07.236894</dc:date>
    <dc:format>image/svg+xml</dc:format>
    <dc:creator>
     <cc:Agent>
      <dc:title>Matplotlib v3.8.3, https://matplotlib.org/</dc:title>
     </cc:Agent>
    </dc:creator>
   </cc:Work>
  </rdf:RDF>
 </metadata>
 <defs>
  <style type="text/css">*{stroke-linejoin: round; stroke-linecap: butt}</style>
 </defs>
 <g id="figure_1">
  <g id="patch_1">
   <path d="M 0 287.928 
L 396 287.928 
L 396 0 
L 0 0 
z
" style="fill: #ffffff"/>
  </g>
  <g id="axes_1">
   <g id="patch_2">
    <path d="M 49.5 251.937 
L 356.4 251.937 
L 356.4 28.7928 
L 49.5 28.7928 
z
" style="fill: #ffffff"/>
   </g>
   <g id="matplotlib.axis_1">
    <g id="xtick_1">
     <g id="line2d_1">
      <defs>
       <path id="m824bf673fd" d="M 0 0 
L 0 -5 
" style="stroke: #000000; stroke-width: 0.5"/>
      </defs>
      <g>
       <use xlink:href="#m824bf673fd" x="63.45" y="251.937" style="stroke: #000000; stroke-width: 0.5"/>
      </g>
     </g>
     <g id="text_1">
      <!-- $\mathdefault{0}$ -->
      <g transform="translate(61.21 260.755906) scale(0.07 -0.07)">
       <defs>
        <path id="DejaVuSans-30" d="M 2034 4250 
Q 1547 4250 1301 3770 
Q 1056 3291 1056 2328 
Q 1056 1369 1301 889 
Q 1547 409 2034 409 
Q 2525 409 2770 889 
Q 3016 1369 3016 2328 
Q 3016 3291 2770 3770 
Q 2525 4250 2034 4250 
z
M 2034 4750 
Q 2819 4750 3233 4129 
Q 3647 3509 3647 2328 
Q 3647 1150 3233 529 
Q 2819 -91 2034 -91 
Q 1250 -91 836 529 
Q 422 1150 422 2328 
Q 422 3509 836 4129 
Q 1250 4750 2034 4750 
z
" transform="scale(0.015625)"/>
       </defs>
       <use xlink:href="#DejaVuSans-30" transform="translate(0 0.78125)"/>
      </g>
     </g>
    </g>
    <g id="xtick_2">
     <g id="line2d_2">
      <g>
       <use xlink:href="#m824bf673fd" x="100.65" y="251.937" style="stroke: #000000; stroke-width: 0.5"/>
      </g>
     </g>
     <g id="text_2">
      <!-- $\mathdefault{20}$ -->
      <g transform="translate(96.17 260.755906) scale(0.07 -0.07)">
       <defs>
        <path id="DejaVuSans-32" d="M 1228 531 
L 3431 531 
L 3431 0 
L 469 0 
L 469 531 
Q 828 903 1448 1529 
Q 2069 2156 2228 2338 
Q 2531 2678 2651 2914 
Q 2772 3150 2772 3378 
Q 2772 3750 2511 3984 
Q 2250 4219 1831 4219 
Q 1534 4219 1204 4116 
Q 875 4013 500 3803 
L 500 4441 
Q 881 4594 1212 4672 
Q 1544 4750 1819 4750 
Q 2544 4750 2975 4387 
Q 3406 4025 3406 3419 
Q 3406 3131 3298 2873 
Q 3191 2616 2906 2266 
Q 2828 2175 2409 1742 
Q 1991 1309 1228 531 
z
" transform="scale(0.015625)"/>
       </defs>
       <use xlink:href="#DejaVuSans-32" transform="translate(0 0.78125)"/>
       <use xlink:href="#DejaVuSans-30" transform="translate(63.623047 0.78125)"/>
      </g>
     </g>
    </g>
    <g id="xtick_3">
     <g id="line2d_3">
      <g>
       <use xlink:href="#m824bf673fd" x="137.85" y="251.937" style="stroke: #000000; stroke-width: 0.5"/>
      </g>
     </g>
     <g id="text_3">
      <!-- $\mathdefault{40}$ -->
      <g transform="translate(133.37 260.755906) scale(0.07 -0.07)">
       <defs>
        <path id="DejaVuSans-34" d="M 2419 4116 
L 825 1625 
L 2419 1625 
L 2419 4116 
z
M 2253 4666 
L 3047 4666 
L 3047 1625 
L 3713 1625 
L 3713 1100 
L 3047 1100 
L 3047 0 
L 2419 0 
L 2419 1100 
L 313 1100 
L 313 1709 
L 2253 4666 
z
" transform="scale(0.015625)"/>
       </defs>
       <use xlink:href="#DejaVuSans-34" transform="translate(0 0.78125)"/>
       <use xlink:href="#DejaVuSans-30" transform="translate(63.623047 0.78125)"/>
      </g>
     </g>
    </g>
    <g id="xtick_4">
     <g id="line2d_4">
      <g>
       <use xlink:href="#m824bf673fd" x="175.05" y="251.937" style="stroke: #000000; stroke-width: 0.5"/>
      </g>
     </g>
     <g id="text_4">
      <!-- $\mathdefault{60}$ -->
      <g transform="translate(170.57 260.755906) scale(0.07 -0.07)">
       <defs>
        <path id="DejaVuSans-36" d="M 2113 2584 
Q 1688 2584 1439 2293 
Q 1191 2003 1191 1497 
Q 1191 994 1439 701 
Q 1688 409 2113 409 
Q 2538 409 2786 701 
Q 3034 994 3034 1497 
Q 3034 2003 2786 2293 
Q 2538 2584 2113 2584 
z
M 3366 4563 
L 3366 3988 
Q 3128 4100 2886 4159 
Q 2644 4219 2406 4219 
Q 1781 4219 1451 3797 
Q 1122 3375 1075 2522 
Q 1259 2794 1537 2939 
Q 1816 3084 2150 3084 
Q 2853 3084 3261 2657 
Q 3669 2231 3669 1497 
Q 3669 778 3244 343 
Q 2819 -91 2113 -91 
Q 1303 -91 875 529 
Q 447 1150 447 2328 
Q 447 3434 972 4092 
Q 1497 4750 2381 4750 
Q 2619 4750 2861 4703 
Q 3103 4656 3366 4563 
z
" transform="scale(0.015625)"/>
       </defs>
       <use xlink:href="#DejaVuSans-36" transform="translate(0 0.78125)"/>
       <use xlink:href="#DejaVuSans-30" transform="translate(63.623047 0.78125)"/>
      </g>
     </g>
    </g>
    <g id="xtick_5">
     <g id="line2d_5">
      <g>
       <use xlink:href="#m824bf673fd" x="212.25" y="251.937" style="stroke: #000000; stroke-width: 0.5"/>
      </g>
     </g>
     <g id="text_5">
      <!-- $\mathdefault{80}$ -->
      <g transform="translate(207.77 260.755906) scale(0.07 -0.07)">
       <defs>
        <path id="DejaVuSans-38" d="M 2034 2216 
Q 1584 2216 1326 1975 
Q 1069 1734 1069 1313 
Q 1069 891 1326 650 
Q 1584 409 2034 409 
Q 2484 409 2743 651 
Q 3003 894 3003 1313 
Q 3003 1734 2745 1975 
Q 2488 2216 2034 2216 
z
M 1403 2484 
Q 997 2584 770 2862 
Q 544 3141 544 3541 
Q 544 4100 942 4425 
Q 1341 4750 2034 4750 
Q 2731 4750 3128 4425 
Q 3525 4100 3525 3541 
Q 3525 3141 3298 2862 
Q 3072 2584 2669 2484 
Q 3125 2378 3379 2068 
Q 3634 1759 3634 1313 
Q 3634 634 3220 271 
Q 2806 -91 2034 -91 
Q 1263 -91 848 271 
Q 434 634 434 1313 
Q 434 1759 690 2068 
Q 947 2378 1403 2484 
z
M 1172 3481 
Q 1172 3119 1398 2916 
Q 1625 2713 2034 2713 
Q 2441 2713 2670 2916 
Q 2900 3119 2900 3481 
Q 2900 3844 2670 4047 
Q 2441 4250 2034 4250 
Q 1625 4250 1398 4047 
Q 1172 3844 1172 3481 
z
" transform="scale(0.015625)"/>
       </defs>
       <use xlink:href="#DejaVuSans-38" transform="translate(0 0.78125)"/>
       <use xlink:href="#DejaVuSans-30" transform="translate(63.623047 0.78125)"/>
      </g>
     </g>
    </g>
    <g id="xtick_6">
     <g id="line2d_6">
      <g>
       <use xlink:href="#m824bf673fd" x="249.45" y="251.937" style="stroke: #000000; stroke-width: 0.5"/>
      </g>
     </g>
     <g id="text_6">
      <!-- $\mathdefault{100}$ -->
      <g transform="translate(242.765 260.755906) scale(0.07 -0.07)">
       <defs>
        <path id="DejaVuSans-31" d="M 794 531 
L 1825 531 
L 1825 4091 
L 703 3866 
L 703 4441 
L 1819 4666 
L 2450 4666 
L 2450 531 
L 3481 531 
L 3481 0 
L 794 0 
L 794 531 
z
" transform="scale(0.015625)"/>
       </defs>
       <use xlink:href="#DejaVuSans-31" transform="translate(0 0.78125)"/>
       <use xlink:href="#DejaVuSans-30" transform="translate(63.623047 0.78125)"/>
       <use xlink:href="#DejaVuSans-30" transform="translate(127.246094 0.78125)"/>
      </g>
     </g>
    </g>
    <g id="xtick_7">
     <g id="line2d_7">
      <g>
       <use xlink:href="#m824bf673fd" x="286.65" y="251.937" style="stroke: #000000; stroke-width: 0.5"/>
      </g>
     </g>
     <g id="text_7">
      <!-- $\mathdefault{120}$ -->
      <g transform="translate(279.965 260.755906) scale(0.07 -0.07)">
       <use xlink:href="#DejaVuSans-31" transform="translate(0 0.78125)"/>
       <use xlink:href="#DejaVuSans-32" transform="translate(63.623047 0.78125)"/>
       <use xlink:href="#DejaVuSans-30" transform="translate(127.246094 0.78125)"/>
      </g>
     </g>
    </g>
    <g id="xtick_8">
     <g id="line2d_8">
      <g>
       <use xlink:href="#m824bf673fd" x="323.85" y="251.937" style="stroke: #000000; stroke-width: 0.5"/>
      </g>
     </g>
     <g id="text_8">
      <!-- $\mathdefault{140}$ -->
      <g transform="translate(317.165 260.755906) scale(0.07 -0.07)">
       <use xlink:href="#DejaVuSans-31" transform="translate(0 0.78125)"/>
       <use xlink:href="#DejaVuSans-34" transform="translate(63.623047 0.78125)"/>
       <use xlink:href="#DejaVuSans-30" transform="translate(127.246094 0.78125)"/>
      </g>
     </g>
    </g>
    <g id="xtick_9">
     <g id="line2d_9">
      <defs>
       <path id="mb58014dd32" d="M 0 0 
L 0 -3 
" style="stroke: #000000; stroke-width: 0.5"/>
      </defs>
      <g>
       <use xlink:href="#mb58014dd32" x="54.15" y="251.937" style="stroke: #000000; stroke-width: 0.5"/>
      </g>
     </g>
    </g>
    <g id="xtick_10">
     <g id="line2d_10">
      <g>
       <use xlink:href="#mb58014dd32" x="72.75" y="251.937" style="stroke: #000000; stroke-width: 0.5"/>
      </g>
     </g>
    </g>
    <g id="xtick_11">
     <g id="line2d_11">
      <g>
       <use xlink:href="#mb58014dd32" x="82.05" y="251.937" style="stroke: #000000; stroke-width: 0.5"/>
      </g>
     </g>
    </g>
    <g id="xtick_12">
     <g id="line2d_12">
      <g>
       <use xlink:href="#mb58014dd32" x="91.35" y="251.937" style="stroke: #000000; stroke-width: 0.5"/>
      </g>
     </g>
    </g>
    <g id="xtick_13">
     <g id="line2d_13">
      <g>
       <use xlink:href="#mb58014dd32" x="109.95" y="251.937" style="stroke: #000000; stroke-width: 0.5"/>
      </g>
     </g>
    </g>
    <g id="xtick_14">
     <g id="line2d_14">
      <g>
       <use xlink:href="#mb58014dd32" x="119.25" y="251.937" style="stroke: #000000; stroke-width: 0.5"/>
      </g>
     </g>
    </g>
    <g id="xtick_15">
     <g id="line2d_15">
      <g>
       <use xlink:href="#mb58014dd32" x="128.55" y="251.937" style="stroke: #000000; stroke-width: 0.5"/>
      </g>
     </g>
    </g>
    <g id="xtick_16">
     <g id="line2d_16">
      <g>
       <use xlink:href="#mb58014dd32" x="147.15" y="251.937" style="stroke: #000000; stroke-width: 0.5"/>
      </g>
     </g>
    </g>
    <g id="xtick_17">
     <g id="line2d_17">
      <g>
       <use xlink:href="#mb58014dd32" x="156.45" y="251.937" style="stroke: #000000; stroke-width: 0.5"/>
      </g>
     </g>
    </g>
    <g id="xtick_18">
     <g id="line2d_18">
      <g>
       <use xlink:href="#mb58014dd32" x="165.75" y="251.937" style="stroke: #000000; stroke-width: 0.5"/>
      </g>
     </g>
    </g>
    <g id="xtick_19">
     <g id="line2d_19">
      <g>
       <use xlink:href="#mb58014dd32" x="184.35" y="251.937" style="stroke: #000000; stroke-width: 0.5"/>
      </g>
     </g>
    </g>
    <g id="xtick_20">
     <g id="line2d_20">
      <g>
       <use xlink:href="#mb58014dd32" x="193.65" y="251.937" style="stroke: #000000; stroke-width: 0.5"/>
      </g>
     </g>
    </g>
    <g id="xtick_21">
     <g id="line2d_21">
      <g>
       <use xlink:href="#mb58014dd32" x="202.95" y="251.937" style="stroke: #000000; stroke-width: 0.5"/>
      </g>
     </g>
    </g>
    <g id="xtick_22">
     <g id="line2d_22">
      <g>
       <use xlink:href="#mb58014dd32" x="221.55" y="251.937" style="stroke: #000000; stroke-width: 0.5"/>
      </g>
     </g>
    </g>
    <g id="xtick_23">
     <g id="line2d_23">
      <g>
       <use xlink:href="#mb58014dd32" x="230.85" y="251.937" style="stroke: #000000; stroke-width: 0.5"/>
      </g>
     </g>
    </g>
    <g id="xtick_24">
     <g id="line2d_24">
      <g>
       <use xlink:href="#mb58014dd32" x="240.15" y="251.937" style="stroke: #000000; stroke-width: 0.5"/>
      </g>
     </g>
    </g>
    <g id="xtick_25">
     <g id="line2d_25">
      <g>
       <use xlink:href="#mb58014dd32" x="258.75" y="251.937" style="stroke: #000000; stroke-width: 0.5"/>
      </g>
     </g>
    </g>
    <g id="xtick_26">
     <g id="line2d_26">
      <g>
       <use xlink:href="#mb58014dd32" x="268.05" y="251.937" style="stroke: #000000; stroke-width: 0.5"/>
      </g>
     </g>
    </g>
    <g id="xtick_27">
     <g id="line2d_27">
      <g>
       <use xlink:href="#mb58014dd32" x="277.35" y="251.937" style="stroke: #000000; stroke-width: 0.5"/>
      </g>
     </g>
    </g>
    <g id="xtick_28">
     <g id="line2d_28">
      <g>
       <use xlink:href="#mb58014dd32" x="295.95" y="251.937" style="stroke: #000000; stroke-width: 0.5"/>
      </g>
     </g>
    </g>
    <g id="xtick_29">
     <g id="line2d_29">
      <g>
       <use xlink:href="#mb58014dd32" x="305.25" y="251.937" style="stroke: #000000; stroke-width: 0.5"/>
      </g>
     </g>
    </g>
    <g id="xtick_30">
     <g id="line2d_30">
      <g>
       <use xlink:href="#mb58014dd32" x="314.55" y="251.937" style="stroke: #000000; stroke-width: 0.5"/>
      </g>
     </g>
    </g>
    <g id="xtick_31">
     <g id="line2d_31">
      <g>
       <use xlink:href="#mb58014dd32" x="333.15" y="251.937" style="stroke: #000000; stroke-width: 0.5"/>
      </g>
     </g>
    </g>
    <g id="xtick_32">
     <g id="line2d_32">
      <g>
       <use xlink:href="#mb58014dd32" x="342.45" y="251.937" style="stroke: #000000; stroke-width: 0.5"/>
      </g>
     </g>
    </g>
    <g id="xtick_33">
     <g id="line2d_33">
      <g>
       <use xlink:href="#mb58014dd32" x="351.75" y="251.937" style="stroke: #000000; stroke-width: 0.5"/>
      </g>
     </g>
    </g>
    <g id="text_9">
     <!-- Time (s) -->
     <g transform="translate(182.258594 273.810125) scale(0.1 -0.1)">
      <defs>
       <path id="DejaVuSerif-54" d="M 1222 0 
L 1222 331 
L 1819 331 
L 1819 4294 
L 447 4294 
L 447 3566 
L 63 3566 
L 63 4666 
L 4206 4666 
L 4206 3566 
L 3822 3566 
L 3822 4294 
L 2450 4294 
L 2450 331 
L 3047 331 
L 3047 0 
L 1222 0 
z
" transform="scale(0.015625)"/>
       <path id="DejaVuSerif-69" d="M 622 4353 
Q 622 4497 726 4603 
Q 831 4709 978 4709 
Q 1122 4709 1226 4603 
Q 1331 4497 1331 4353 
Q 1331 4206 1228 4103 
Q 1125 4000 978 4000 
Q 831 4000 726 4103 
Q 622 4206 622 4353 
z
M 1356 331 
L 1900 331 
L 1900 0 
L 231 0 
L 231 331 
L 781 331 
L 781 2988 
L 231 2988 
L 231 3322 
L 1356 3322 
L 1356 331 
z
" transform="scale(0.015625)"/>
       <path id="DejaVuSerif-6d" d="M 3316 2675 
Q 3481 3041 3739 3227 
Q 3997 3413 4341 3413 
Q 4863 3413 5119 3089 
Q 5375 2766 5375 2113 
L 5375 331 
L 5894 331 
L 5894 0 
L 4300 0 
L 4300 331 
L 4800 331 
L 4800 2047 
Q 4800 2556 4650 2772 
Q 4500 2988 4153 2988 
Q 3769 2988 3567 2697 
Q 3366 2406 3366 1850 
L 3366 331 
L 3866 331 
L 3866 0 
L 2291 0 
L 2291 331 
L 2791 331 
L 2791 2069 
Q 2791 2566 2641 2777 
Q 2491 2988 2144 2988 
Q 1759 2988 1557 2697 
Q 1356 2406 1356 1850 
L 1356 331 
L 1856 331 
L 1856 0 
L 263 0 
L 263 331 
L 781 331 
L 781 2994 
L 231 2994 
L 231 3322 
L 1356 3322 
L 1356 2731 
Q 1516 3063 1762 3238 
Q 2009 3413 2322 3413 
Q 2709 3413 2968 3220 
Q 3228 3028 3316 2675 
z
" transform="scale(0.015625)"/>
       <path id="DejaVuSerif-65" d="M 3469 1600 
L 991 1600 
L 991 1575 
Q 991 903 1244 561 
Q 1497 219 1991 219 
Q 2369 219 2611 417 
Q 2853 616 2950 1006 
L 3413 1006 
Q 3275 459 2904 184 
Q 2534 -91 1931 -91 
Q 1203 -91 761 389 
Q 319 869 319 1663 
Q 319 2450 753 2931 
Q 1188 3413 1894 3413 
Q 2647 3413 3050 2948 
Q 3453 2484 3469 1600 
z
M 2791 1931 
Q 2772 2513 2545 2808 
Q 2319 3103 1894 3103 
Q 1497 3103 1269 2806 
Q 1041 2509 991 1931 
L 2791 1931 
z
" transform="scale(0.015625)"/>
       <path id="DejaVuSerif-20" transform="scale(0.015625)"/>
       <path id="DejaVuSerif-28" d="M 2041 -997 
Q 1281 -656 893 83 
Q 506 822 506 1931 
Q 506 3044 893 3783 
Q 1281 4522 2041 4863 
L 2041 4556 
Q 1559 4225 1350 3623 
Q 1141 3022 1141 1931 
Q 1141 844 1350 242 
Q 1559 -359 2041 -691 
L 2041 -997 
z
" transform="scale(0.015625)"/>
       <path id="DejaVuSerif-73" d="M 359 184 
L 359 959 
L 691 959 
Q 703 588 923 403 
Q 1144 219 1575 219 
Q 1963 219 2166 364 
Q 2369 509 2369 788 
Q 2369 1006 2220 1140 
Q 2072 1275 1594 1428 
L 1178 1569 
Q 750 1706 558 1912 
Q 366 2119 366 2438 
Q 366 2894 700 3153 
Q 1034 3413 1625 3413 
Q 1888 3413 2178 3344 
Q 2469 3275 2778 3144 
L 2778 2419 
L 2447 2419 
Q 2434 2741 2221 2922 
Q 2009 3103 1644 3103 
Q 1281 3103 1095 2975 
Q 909 2847 909 2591 
Q 909 2381 1050 2254 
Q 1191 2128 1613 1997 
L 2069 1856 
Q 2541 1709 2748 1489 
Q 2956 1269 2956 922 
Q 2956 450 2595 179 
Q 2234 -91 1600 -91 
Q 1278 -91 972 -22 
Q 666 47 359 184 
z
" transform="scale(0.015625)"/>
       <path id="DejaVuSerif-29" d="M 453 -997 
L 453 -691 
Q 934 -359 1145 242 
Q 1356 844 1356 1931 
Q 1356 3022 1145 3623 
Q 934 4225 453 4556 
L 453 4863 
Q 1216 4522 1603 3783 
Q 1991 3044 1991 1931 
Q 1991 822 1603 83 
Q 1216 -656 453 -997 
z
" transform="scale(0.015625)"/>
      </defs>
      <use xlink:href="#DejaVuSerif-54"/>
      <use xlink:href="#DejaVuSerif-69" x="66.699219"/>
      <use xlink:href="#DejaVuSerif-6d" x="98.681641"/>
      <use xlink:href="#DejaVuSerif-65" x="193.505859"/>
      <use xlink:href="#DejaVuSerif-20" x="252.685547"/>
      <use xlink:href="#DejaVuSerif-28" x="284.472656"/>
      <use xlink:href="#DejaVuSerif-73" x="323.486328"/>
      <use xlink:href="#DejaVuSerif-29" x="374.804688"/>
     </g>
    </g>
   </g>
   <g id="matplotlib.axis_2">
    <g id="ytick_1">
     <g id="line2d_34">
      <defs>
       <path id="m0b6b4e36ea" d="M 0 0 
L 5 0 
" style="stroke: #000000; stroke-width: 0.5"/>
      </defs>
      <g>
       <use xlink:href="#m0b6b4e36ea" x="49.5" y="233.806833" style="stroke: #000000; stroke-width: 0.5"/>
      </g>
     </g>
     <g id="text_10">
      <!-- $\mathdefault{−3}$ -->
      <g transform="translate(35.64 236.466286) scale(0.07 -0.07)">
       <defs>
        <path id="DejaVuSans-2212" d="M 678 2272 
L 4684 2272 
L 4684 1741 
L 678 1741 
L 678 2272 
z
" transform="scale(0.015625)"/>
        <path id="DejaVuSans-33" d="M 2597 2516 
Q 3050 2419 3304 2112 
Q 3559 1806 3559 1356 
Q 3559 666 3084 287 
Q 2609 -91 1734 -91 
Q 1441 -91 1130 -33 
Q 819 25 488 141 
L 488 750 
Q 750 597 1062 519 
Q 1375 441 1716 441 
Q 2309 441 2620 675 
Q 2931 909 2931 1356 
Q 2931 1769 2642 2001 
Q 2353 2234 1838 2234 
L 1294 2234 
L 1294 2753 
L 1863 2753 
Q 2328 2753 2575 2939 
Q 2822 3125 2822 3475 
Q 2822 3834 2567 4026 
Q 2313 4219 1838 4219 
Q 1578 4219 1281 4162 
Q 984 4106 628 3988 
L 628 4550 
Q 988 4650 1302 4700 
Q 1616 4750 1894 4750 
Q 2613 4750 3031 4423 
Q 3450 4097 3450 3541 
Q 3450 3153 3228 2886 
Q 3006 2619 2597 2516 
z
" transform="scale(0.015625)"/>
       </defs>
       <use xlink:href="#DejaVuSans-2212" transform="translate(0 0.78125)"/>
       <use xlink:href="#DejaVuSans-33" transform="translate(83.789062 0.78125)"/>
      </g>
     </g>
    </g>
    <g id="ytick_2">
     <g id="line2d_35">
      <g>
       <use xlink:href="#m0b6b4e36ea" x="49.5" y="202.501935" style="stroke: #000000; stroke-width: 0.5"/>
      </g>
     </g>
     <g id="text_11">
      <!-- $\mathdefault{−2}$ -->
      <g transform="translate(35.64 205.161388) scale(0.07 -0.07)">
       <use xlink:href="#DejaVuSans-2212" transform="translate(0 0.78125)"/>
       <use xlink:href="#DejaVuSans-32" transform="translate(83.789062 0.78125)"/>
      </g>
     </g>
    </g>
    <g id="ytick_3">
     <g id="line2d_36">
      <g>
       <use xlink:href="#m0b6b4e36ea" x="49.5" y="171.197036" style="stroke: #000000; stroke-width: 0.5"/>
      </g>
     </g>
     <g id="text_12">
      <!-- $\mathdefault{−1}$ -->
      <g transform="translate(35.64 173.856489) scale(0.07 -0.07)">
       <use xlink:href="#DejaVuSans-2212" transform="translate(0 0.09375)"/>
       <use xlink:href="#DejaVuSans-31" transform="translate(83.789062 0.09375)"/>
      </g>
     </g>
    </g>
    <g id="ytick_4">
     <g id="line2d_37">
      <g>
       <use xlink:href="#m0b6b4e36ea" x="49.5" y="139.892137" style="stroke: #000000; stroke-width: 0.5"/>
      </g>
     </g>
     <g id="text_13">
      <!-- $\mathdefault{0}$ -->
      <g transform="translate(41.52 142.55159) scale(0.07 -0.07)">
       <use xlink:href="#DejaVuSans-30" transform="translate(0 0.78125)"/>
      </g>
     </g>
    </g>
    <g id="ytick_5">
     <g id="line2d_38">
      <g>
       <use xlink:href="#m0b6b4e36ea" x="49.5" y="108.587239" style="stroke: #000000; stroke-width: 0.5"/>
      </g>
     </g>
     <g id="text_14">
      <!-- $\mathdefault{1}$ -->
      <g transform="translate(41.52 111.246692) scale(0.07 -0.07)">
       <use xlink:href="#DejaVuSans-31" transform="translate(0 0.09375)"/>
      </g>
     </g>
    </g>
    <g id="ytick_6">
     <g id="line2d_39">
      <g>
       <use xlink:href="#m0b6b4e36ea" x="49.5" y="77.28234" style="stroke: #000000; stroke-width: 0.5"/>
      </g>
     </g>
     <g id="text_15">
      <!-- $\mathdefault{2}$ -->
      <g transform="translate(41.52 79.941793) scale(0.07 -0.07)">
       <use xlink:href="#DejaVuSans-32" transform="translate(0 0.78125)"/>
      </g>
     </g>
    </g>
    <g id="ytick_7">
     <g id="line2d_40">
      <g>
       <use xlink:href="#m0b6b4e36ea" x="49.5" y="45.977441" style="stroke: #000000; stroke-width: 0.5"/>
      </g>
     </g>
     <g id="text_16">
      <!-- $\mathdefault{3}$ -->
      <g transform="translate(41.52 48.636894) scale(0.07 -0.07)">
       <use xlink:href="#DejaVuSans-33" transform="translate(0 0.78125)"/>
      </g>
     </g>
    </g>
    <g id="ytick_8">
     <g id="line2d_41">
      <defs>
       <path id="m26a90c61bd" d="M 0 0 
L 3 0 
" style="stroke: #000000; stroke-width: 0.5"/>
      </defs>
      <g>
       <use xlink:href="#m26a90c61bd" x="49.5" y="246.328793" style="stroke: #000000; stroke-width: 0.5"/>
      </g>
     </g>
    </g>
    <g id="ytick_9">
     <g id="line2d_42">
      <g>
       <use xlink:href="#m26a90c61bd" x="49.5" y="240.067813" style="stroke: #000000; stroke-width: 0.5"/>
      </g>
     </g>
    </g>
    <g id="ytick_10">
     <g id="line2d_43">
      <g>
       <use xlink:href="#m26a90c61bd" x="49.5" y="227.545854" style="stroke: #000000; stroke-width: 0.5"/>
      </g>
     </g>
    </g>
    <g id="ytick_11">
     <g id="line2d_44">
      <g>
       <use xlink:href="#m26a90c61bd" x="49.5" y="221.284874" style="stroke: #000000; stroke-width: 0.5"/>
      </g>
     </g>
    </g>
    <g id="ytick_12">
     <g id="line2d_45">
      <g>
       <use xlink:href="#m26a90c61bd" x="49.5" y="215.023894" style="stroke: #000000; stroke-width: 0.5"/>
      </g>
     </g>
    </g>
    <g id="ytick_13">
     <g id="line2d_46">
      <g>
       <use xlink:href="#m26a90c61bd" x="49.5" y="208.762914" style="stroke: #000000; stroke-width: 0.5"/>
      </g>
     </g>
    </g>
    <g id="ytick_14">
     <g id="line2d_47">
      <g>
       <use xlink:href="#m26a90c61bd" x="49.5" y="196.240955" style="stroke: #000000; stroke-width: 0.5"/>
      </g>
     </g>
    </g>
    <g id="ytick_15">
     <g id="line2d_48">
      <g>
       <use xlink:href="#m26a90c61bd" x="49.5" y="189.979975" style="stroke: #000000; stroke-width: 0.5"/>
      </g>
     </g>
    </g>
    <g id="ytick_16">
     <g id="line2d_49">
      <g>
       <use xlink:href="#m26a90c61bd" x="49.5" y="183.718995" style="stroke: #000000; stroke-width: 0.5"/>
      </g>
     </g>
    </g>
    <g id="ytick_17">
     <g id="line2d_50">
      <g>
       <use xlink:href="#m26a90c61bd" x="49.5" y="177.458016" style="stroke: #000000; stroke-width: 0.5"/>
      </g>
     </g>
    </g>
    <g id="ytick_18">
     <g id="line2d_51">
      <g>
       <use xlink:href="#m26a90c61bd" x="49.5" y="164.936056" style="stroke: #000000; stroke-width: 0.5"/>
      </g>
     </g>
    </g>
    <g id="ytick_19">
     <g id="line2d_52">
      <g>
       <use xlink:href="#m26a90c61bd" x="49.5" y="158.675077" style="stroke: #000000; stroke-width: 0.5"/>
      </g>
     </g>
    </g>
    <g id="ytick_20">
     <g id="line2d_53">
      <g>
       <use xlink:href="#m26a90c61bd" x="49.5" y="152.414097" style="stroke: #000000; stroke-width: 0.5"/>
      </g>
     </g>
    </g>
    <g id="ytick_21">
     <g id="line2d_54">
      <g>
       <use xlink:href="#m26a90c61bd" x="49.5" y="146.153117" style="stroke: #000000; stroke-width: 0.5"/>
      </g>
     </g>
    </g>
    <g id="ytick_22">
     <g id="line2d_55">
      <g>
       <use xlink:href="#m26a90c61bd" x="49.5" y="133.631158" style="stroke: #000000; stroke-width: 0.5"/>
      </g>
     </g>
    </g>
    <g id="ytick_23">
     <g id="line2d_56">
      <g>
       <use xlink:href="#m26a90c61bd" x="49.5" y="127.370178" style="stroke: #000000; stroke-width: 0.5"/>
      </g>
     </g>
    </g>
    <g id="ytick_24">
     <g id="line2d_57">
      <g>
       <use xlink:href="#m26a90c61bd" x="49.5" y="121.109198" style="stroke: #000000; stroke-width: 0.5"/>
      </g>
     </g>
    </g>
    <g id="ytick_25">
     <g id="line2d_58">
      <g>
       <use xlink:href="#m26a90c61bd" x="49.5" y="114.848218" style="stroke: #000000; stroke-width: 0.5"/>
      </g>
     </g>
    </g>
    <g id="ytick_26">
     <g id="line2d_59">
      <g>
       <use xlink:href="#m26a90c61bd" x="49.5" y="102.326259" style="stroke: #000000; stroke-width: 0.5"/>
      </g>
     </g>
    </g>
    <g id="ytick_27">
     <g id="line2d_60">
      <g>
       <use xlink:href="#m26a90c61bd" x="49.5" y="96.065279" style="stroke: #000000; stroke-width: 0.5"/>
      </g>
     </g>
    </g>
    <g id="ytick_28">
     <g id="line2d_61">
      <g>
       <use xlink:href="#m26a90c61bd" x="49.5" y="89.804299" style="stroke: #000000; stroke-width: 0.5"/>
      </g>
     </g>
    </g>
    <g id="ytick_29">
     <g id="line2d_62">
      <g>
       <use xlink:href="#m26a90c61bd" x="49.5" y="83.54332" style="stroke: #000000; stroke-width: 0.5"/>
      </g>
     </g>
    </g>
    <g id="ytick_30">
     <g id="line2d_63">
      <g>
       <use xlink:href="#m26a90c61bd" x="49.5" y="71.02136" style="stroke: #000000; stroke-width: 0.5"/>
      </g>
     </g>
    </g>
    <g id="ytick_31">
     <g id="line2d_64">
      <g>
       <use xlink:href="#m26a90c61bd" x="49.5" y="64.760381" style="stroke: #000000; stroke-width: 0.5"/>
      </g>
     </g>
    </g>
    <g id="ytick_32">
     <g id="line2d_65">
      <g>
       <use xlink:href="#m26a90c61bd" x="49.5" y="58.499401" style="stroke: #000000; stroke-width: 0.5"/>
      </g>
     </g>
    </g>
    <g id="ytick_33">
     <g id="line2d_66">
      <g>
       <use xlink:href="#m26a90c61bd" x="49.5" y="52.238421" style="stroke: #000000; stroke-width: 0.5"/>
      </g>
     </g>
    </g>
    <g id="ytick_34">
     <g id="line2d_67">
      <g>
       <use xlink:href="#m26a90c61bd" x="49.5" y="39.716462" style="stroke: #000000; stroke-width: 0.5"/>
      </g>
     </g>
    </g>
    <g id="ytick_35">
     <g id="line2d_68">
      <g>
       <use xlink:href="#m26a90c61bd" x="49.5" y="33.455482" style="stroke: #000000; stroke-width: 0.5"/>
      </g>
     </g>
    </g>
    <g id="text_17">
     <!-- Displacement (m) -->
     <g transform="translate(29.560312 185.241462) rotate(-90) scale(0.1 -0.1)">
      <defs>
       <path id="DejaVuSerif-44" d="M 1581 331 
L 2163 331 
Q 3072 331 3558 850 
Q 4044 1369 4044 2338 
Q 4044 3306 3559 3818 
Q 3075 4331 2163 4331 
L 1581 4331 
L 1581 331 
z
M 353 0 
L 353 331 
L 947 331 
L 947 4331 
L 353 4331 
L 353 4666 
L 2209 4666 
Q 3416 4666 4089 4050 
Q 4763 3434 4763 2338 
Q 4763 1238 4088 619 
Q 3413 0 2209 0 
L 353 0 
z
" transform="scale(0.015625)"/>
       <path id="DejaVuSerif-70" d="M 1313 1825 
L 1313 1497 
Q 1313 897 1542 583 
Q 1772 269 2209 269 
Q 2650 269 2876 622 
Q 3103 975 3103 1663 
Q 3103 2353 2876 2703 
Q 2650 3053 2209 3053 
Q 1772 3053 1542 2737 
Q 1313 2422 1313 1825 
z
M 738 2988 
L 184 2988 
L 184 3322 
L 1313 3322 
L 1313 2803 
Q 1481 3116 1742 3264 
Q 2003 3413 2388 3413 
Q 3000 3413 3387 2928 
Q 3775 2444 3775 1663 
Q 3775 881 3387 395 
Q 3000 -91 2388 -91 
Q 2003 -91 1742 57 
Q 1481 206 1313 519 
L 1313 -997 
L 1856 -997 
L 1856 -1331 
L 184 -1331 
L 184 -997 
L 738 -997 
L 738 2988 
z
" transform="scale(0.015625)"/>
       <path id="DejaVuSerif-6c" d="M 1313 331 
L 1856 331 
L 1856 0 
L 184 0 
L 184 331 
L 738 331 
L 738 4531 
L 184 4531 
L 184 4863 
L 1313 4863 
L 1313 331 
z
" transform="scale(0.015625)"/>
       <path id="DejaVuSerif-61" d="M 2547 1044 
L 2547 1747 
L 1806 1747 
Q 1378 1747 1168 1562 
Q 959 1378 959 997 
Q 959 650 1171 447 
Q 1384 244 1747 244 
Q 2106 244 2326 466 
Q 2547 688 2547 1044 
z
M 3122 2075 
L 3122 331 
L 3634 331 
L 3634 0 
L 2547 0 
L 2547 359 
Q 2356 128 2106 18 
Q 1856 -91 1522 -91 
Q 969 -91 644 203 
Q 319 497 319 997 
Q 319 1513 691 1797 
Q 1063 2081 1741 2081 
L 2547 2081 
L 2547 2309 
Q 2547 2688 2317 2895 
Q 2088 3103 1672 3103 
Q 1328 3103 1125 2947 
Q 922 2791 872 2484 
L 575 2484 
L 575 3156 
Q 875 3284 1158 3348 
Q 1441 3413 1709 3413 
Q 2400 3413 2761 3070 
Q 3122 2728 3122 2075 
z
" transform="scale(0.015625)"/>
       <path id="DejaVuSerif-63" d="M 3291 997 
Q 3169 466 2822 187 
Q 2475 -91 1925 -91 
Q 1200 -91 759 389 
Q 319 869 319 1663 
Q 319 2459 759 2936 
Q 1200 3413 1925 3413 
Q 2241 3413 2553 3339 
Q 2866 3266 3181 3116 
L 3181 2266 
L 2847 2266 
Q 2781 2703 2561 2903 
Q 2341 3103 1931 3103 
Q 1466 3103 1228 2742 
Q 991 2381 991 1663 
Q 991 944 1227 581 
Q 1463 219 1931 219 
Q 2303 219 2525 412 
Q 2747 606 2828 997 
L 3291 997 
z
" transform="scale(0.015625)"/>
       <path id="DejaVuSerif-6e" d="M 263 0 
L 263 331 
L 781 331 
L 781 2988 
L 231 2988 
L 231 3322 
L 1356 3322 
L 1356 2731 
Q 1516 3069 1770 3241 
Q 2025 3413 2363 3413 
Q 2913 3413 3172 3097 
Q 3431 2781 3431 2113 
L 3431 331 
L 3944 331 
L 3944 0 
L 2356 0 
L 2356 331 
L 2853 331 
L 2853 1931 
Q 2853 2541 2703 2767 
Q 2553 2994 2175 2994 
Q 1775 2994 1565 2701 
Q 1356 2409 1356 1850 
L 1356 331 
L 1856 331 
L 1856 0 
L 263 0 
z
" transform="scale(0.015625)"/>
       <path id="DejaVuSerif-74" d="M 691 2988 
L 184 2988 
L 184 3322 
L 691 3322 
L 691 4353 
L 1269 4353 
L 1269 3322 
L 2350 3322 
L 2350 2988 
L 1269 2988 
L 1269 878 
Q 1269 456 1350 337 
Q 1431 219 1650 219 
Q 1875 219 1978 351 
Q 2081 484 2088 781 
L 2522 781 
Q 2497 328 2275 118 
Q 2053 -91 1600 -91 
Q 1103 -91 897 129 
Q 691 350 691 878 
L 691 2988 
z
" transform="scale(0.015625)"/>
      </defs>
      <use xlink:href="#DejaVuSerif-44"/>
      <use xlink:href="#DejaVuSerif-69" x="80.175781"/>
      <use xlink:href="#DejaVuSerif-73" x="112.158203"/>
      <use xlink:href="#DejaVuSerif-70" x="163.476562"/>
      <use xlink:href="#DejaVuSerif-6c" x="227.490234"/>
      <use xlink:href="#DejaVuSerif-61" x="259.472656"/>
      <use xlink:href="#DejaVuSerif-63" x="319.091797"/>
      <use xlink:href="#DejaVuSerif-65" x="375.097656"/>
      <use xlink:href="#DejaVuSerif-6d" x="434.277344"/>
      <use xlink:href="#DejaVuSerif-65" x="529.101562"/>
      <use xlink:href="#DejaVuSerif-6e" x="588.28125"/>
      <use xlink:href="#DejaVuSerif-74" x="652.685547"/>
      <use xlink:href="#DejaVuSerif-20" x="692.871094"/>
      <use xlink:href="#DejaVuSerif-28" x="724.658203"/>
      <use xlink:href="#DejaVuSerif-6d" x="763.671875"/>
      <use xlink:href="#DejaVuSerif-29" x="858.496094"/>
     </g>
    </g>
   </g>
   <g id="line2d_69">
    <path d="M 63.45 139.892137 
L 64.287 126.900578 
L 64.845 120.783338 
L 65.124 118.886569 
L 65.403 117.898616 
L 65.682 117.887093 
L 65.961 118.888095 
L 66.24 120.906202 
L 66.798 127.879185 
L 67.356 138.321895 
L 68.472 165.674321 
L 69.588 192.608531 
L 70.146 202.316891 
L 70.704 207.824892 
L 70.983 208.714677 
L 71.262 208.267155 
L 71.541 206.448911 
L 71.82 203.251311 
L 72.378 192.78797 
L 72.936 177.348417 
L 73.773 147.14376 
L 75.726 70.282126 
L 76.284 54.240411 
L 76.842 43.504274 
L 77.121 40.413375 
L 77.4 38.935718 
L 77.679 39.130236 
L 77.958 41.021318 
L 78.237 44.593858 
L 78.795 56.525418 
L 79.353 74.066443 
L 80.19 108.291013 
L 82.422 206.820742 
L 82.98 224.087095 
L 83.538 235.857449 
L 83.817 239.437654 
L 84.096 241.417592 
L 84.375 241.794082 
L 84.654 240.599511 
L 84.933 237.884427 
L 85.491 228.156648 
L 86.049 213.397155 
L 86.886 184.460147 
L 89.118 100.889682 
L 89.955 79.419512 
L 90.513 70.345673 
L 91.071 65.757542 
L 91.35 65.13713 
L 91.629 65.584178 
L 91.908 67.034808 
L 92.466 72.636956 
L 93.024 81.257806 
L 93.861 98.022248 
L 96.093 145.462432 
L 96.93 158.430589 
L 97.767 167.420375 
L 98.325 171.33567 
L 98.883 173.813423 
L 99.441 175.138569 
L 99.72 175.464744 
L 99.999 175.609435 
L 100.278 175.602692 
L 100.836 175.233656 
L 101.394 174.504835 
L 101.952 173.467872 
L 102.51 172.083705 
L 103.068 170.232263 
L 103.626 167.722143 
L 104.184 164.358238 
L 104.742 159.957064 
L 105.579 151.129286 
L 106.416 139.590367 
L 107.811 116.206405 
L 109.206 93.51467 
L 109.764 86.684269 
L 110.322 82.039665 
L 110.601 80.688996 
L 110.88 80.051816 
L 111.159 80.164455 
L 111.438 81.06365 
L 111.717 82.771518 
L 112.275 88.617572 
L 112.833 97.545147 
L 113.67 115.906128 
L 115.065 154.495244 
L 116.46 191.376631 
L 117.297 206.956207 
L 117.855 213.104124 
L 118.134 214.726172 
L 118.413 215.342881 
L 118.692 214.949191 
L 118.971 213.55007 
L 119.25 211.152749 
L 119.808 203.477191 
L 120.366 192.333889 
L 121.203 170.640064 
L 123.993 90.694377 
L 124.551 79.918604 
L 125.109 72.404421 
L 125.667 68.493146 
L 125.946 67.930278 
L 126.225 68.283431 
L 126.504 69.523494 
L 127.062 74.538629 
L 127.62 82.620419 
L 128.457 99.275112 
L 129.852 133.468098 
L 131.247 166.324225 
L 132.084 181.567442 
L 132.642 189.073995 
L 133.2 194.188957 
L 133.758 196.816878 
L 134.037 197.213759 
L 134.316 197.026436 
L 134.595 196.2703 
L 135.153 193.132722 
L 135.711 188.022903 
L 136.548 177.344491 
L 137.664 159.196745 
L 140.454 110.831499 
L 141.291 99.723426 
L 142.128 91.794581 
L 142.686 88.592782 
L 142.965 87.681077 
L 143.244 87.254754 
L 143.523 87.326318 
L 143.802 87.902592 
L 144.081 88.984716 
L 144.639 92.654293 
L 145.197 98.294769 
L 146.034 110.132424 
L 147.15 130.819158 
L 149.661 181.468228 
L 150.498 193.495731 
L 151.056 198.778776 
L 151.335 200.451894 
L 151.614 201.436655 
L 151.893 201.714874 
L 152.172 201.279467 
L 152.451 200.13334 
L 153.009 195.717894 
L 153.567 188.568334 
L 154.404 173.397164 
L 155.52 147.441872 
L 157.473 100.389091 
L 158.31 85.436103 
L 158.868 78.572741 
L 159.426 74.637405 
L 159.705 73.840132 
L 159.984 73.835067 
L 160.263 74.61458 
L 160.542 76.165435 
L 161.1 81.513096 
L 161.658 89.62867 
L 162.495 106.014631 
L 163.89 139.796444 
L 165.285 172.83686 
L 166.122 188.271363 
L 166.68 195.758504 
L 167.238 200.60303 
L 167.517 201.968106 
L 167.796 202.617298 
L 168.075 202.557422 
L 168.354 201.805203 
L 168.633 200.371832 
L 169.191 195.538366 
L 169.749 188.304713 
L 170.586 173.830361 
L 171.981 143.973592 
L 173.655 108.74534 
L 174.492 95.202066 
L 175.05 88.536975 
L 175.608 84.095052 
L 175.887 82.758187 
L 176.166 82.020067 
L 176.445 81.877425 
L 176.724 82.329941 
L 177.003 83.377876 
L 177.561 87.219994 
L 178.119 93.240413 
L 178.956 105.724335 
L 180.072 127.033802 
L 182.583 177.213544 
L 183.42 189.155738 
L 183.978 194.620824 
L 184.536 197.798304 
L 184.815 198.485429 
L 185.094 198.550292 
L 185.373 197.983291 
L 185.652 196.784254 
L 186.21 192.536518 
L 186.768 185.983261 
L 187.605 172.38341 
L 188.721 149.245036 
L 190.953 101.186576 
L 191.79 88.13915 
L 192.348 82.194679 
L 192.906 78.790936 
L 193.185 78.111172 
L 193.464 78.131821 
L 193.743 78.853601 
L 194.022 80.266397 
L 194.58 85.09476 
L 195.138 92.432138 
L 195.975 107.405328 
L 197.091 132.289588 
L 199.044 176.471342 
L 199.881 190.564741 
L 200.439 197.181194 
L 200.997 201.185701 
L 201.276 202.145465 
L 201.555 202.398894 
L 201.834 201.951241 
L 202.113 200.810696 
L 202.671 196.493232 
L 203.229 189.629626 
L 204.066 175.339648 
L 205.182 151.233992 
L 207.135 107.559067 
L 207.972 93.090259 
L 208.53 85.980977 
L 209.088 81.297798 
L 209.367 79.928754 
L 209.646 79.221047 
L 209.925 79.171908 
L 210.204 79.778647 
L 210.483 81.039972 
L 211.041 85.474383 
L 211.599 92.273844 
L 212.436 106.140437 
L 213.552 129.304117 
L 215.505 171.269543 
L 216.342 185.353997 
L 216.9 192.364443 
L 217.458 197.086029 
L 217.737 198.527267 
L 218.016 199.340682 
L 218.295 199.521012 
L 218.574 199.060156 
L 218.853 197.958276 
L 219.411 193.878705 
L 219.969 187.469573 
L 220.806 174.122577 
L 221.922 151.376496 
L 224.154 103.919381 
L 224.991 90.735033 
L 225.549 84.538884 
L 226.107 80.731847 
L 226.386 79.782456 
L 226.665 79.493602 
L 226.944 79.87199 
L 227.223 80.914312 
L 227.781 84.928324 
L 228.339 91.361211 
L 229.176 104.956693 
L 230.292 128.263432 
L 232.524 176.939449 
L 233.361 190.293656 
L 233.919 196.509897 
L 234.477 200.217079 
L 234.756 201.065789 
L 235.035 201.231277 
L 235.314 200.716616 
L 235.593 199.531565 
L 236.151 195.189504 
L 236.709 188.370023 
L 237.546 174.217751 
L 238.662 150.334849 
L 240.615 106.883439 
L 241.452 92.45141 
L 242.01 85.367196 
L 242.568 80.727828 
L 242.847 79.39447 
L 243.126 78.734675 
L 243.405 78.747287 
L 243.684 79.426635 
L 243.963 80.771491 
L 244.521 85.40947 
L 245.079 92.464471 
L 245.916 106.793558 
L 247.032 130.609157 
L 248.985 173.289076 
L 249.822 187.313641 
L 250.38 194.139857 
L 250.938 198.556738 
L 251.217 199.801699 
L 251.496 200.39207 
L 251.775 200.32948 
L 252.054 199.611877 
L 252.333 198.24008 
L 252.891 193.587143 
L 253.449 186.577482 
L 254.286 172.412251 
L 255.402 148.888316 
L 257.355 106.651011 
L 258.192 92.698072 
L 258.75 85.889146 
L 259.308 81.45847 
L 259.587 80.192983 
L 259.866 79.573413 
L 260.145 79.606812 
L 260.424 80.299572 
L 260.703 81.648472 
L 261.261 86.252915 
L 261.819 93.201009 
L 262.656 107.331004 
L 263.772 130.89983 
L 265.725 173.384124 
L 266.562 187.441419 
L 267.12 194.275201 
L 267.678 198.727274 
L 267.957 200.001832 
L 268.236 200.615142 
L 268.515 200.555992 
L 268.794 199.823334 
L 269.073 198.426283 
L 269.631 193.723297 
L 270.189 186.653064 
L 271.026 172.280938 
L 272.142 148.417764 
L 274.095 105.646292 
L 274.932 91.668316 
L 275.49 84.91918 
L 276.048 80.586264 
L 276.327 79.399845 
L 276.606 78.886783 
L 276.885 79.049273 
L 277.164 79.87947 
L 277.443 81.367298 
L 278.001 86.262848 
L 278.559 93.539043 
L 279.396 108.147498 
L 280.791 138.586912 
L 282.465 174.779804 
L 283.302 188.543333 
L 283.86 195.129694 
L 284.418 199.255653 
L 284.697 200.336507 
L 284.976 200.751459 
L 285.255 200.504486 
L 285.534 199.598299 
L 285.813 198.035516 
L 286.371 192.999556 
L 286.929 185.614719 
L 287.766 170.939166 
L 289.161 140.581444 
L 290.835 104.717332 
L 291.672 91.140645 
L 292.23 84.683606 
L 292.788 80.674801 
L 293.067 79.641862 
L 293.346 79.265345 
L 293.625 79.543936 
L 293.904 80.481134 
L 294.462 84.306809 
L 295.02 90.591548 
L 295.857 103.932059 
L 296.973 126.919821 
L 299.205 175.279212 
L 300.042 188.799335 
L 300.6 195.205652 
L 301.158 199.166164 
L 301.437 200.179428 
L 301.716 200.538755 
L 301.995 200.236263 
L 302.274 199.269205 
L 302.832 195.380204 
L 303.39 189.048316 
L 304.227 175.636651 
L 305.343 152.535574 
L 307.575 104.077051 
L 308.412 90.59943 
L 308.97 84.26384 
L 309.528 80.366188 
L 309.807 79.384037 
L 310.086 79.069554 
L 310.365 79.429502 
L 310.644 80.460485 
L 311.202 84.471187 
L 311.76 90.9069 
L 312.597 104.500741 
L 313.713 127.771235 
L 315.945 176.269565 
L 316.782 189.603071 
L 317.34 195.843022 
L 317.898 199.624597 
L 318.177 200.528851 
L 318.456 200.760777 
L 318.735 200.322081 
L 319.014 199.223448 
L 319.572 195.090383 
L 320.13 188.517412 
L 320.967 174.763628 
L 322.083 151.386539 
L 324.315 103.066529 
L 325.152 89.879366 
L 325.71 83.753391 
L 326.268 80.123767 
L 326.547 79.295448 
L 326.826 79.13116 
L 327.105 79.625234 
L 327.384 80.776819 
L 327.942 85.019497 
L 328.5 91.693843 
L 329.337 105.537195 
L 330.453 128.944394 
L 332.685 177.04368 
L 333.522 190.099534 
L 334.08 196.120327 
L 334.638 199.647255 
L 334.917 200.43061 
L 335.196 200.556209 
L 335.475 200.024128 
L 335.754 198.83231 
L 336.312 194.508776 
L 336.87 187.766192 
L 337.707 173.860792 
L 338.823 150.410819 
L 340.776 107.618525 
L 341.613 93.278202 
L 342.171 86.192916 
L 342.45 83.518015 
L 342.45 83.518015 
" clip-path="url(#pd3a5ebb592)" style="fill: none; stroke: #1f77b4; stroke-width: 0.7; stroke-linecap: square"/>
   </g>
   <g id="line2d_70">
    <path d="M 63.45 139.892137 
L 64.566 122.84437 
L 65.124 116.794948 
L 65.682 113.201236 
L 65.961 112.443652 
L 66.24 112.405608 
L 66.519 113.083557 
L 66.798 114.459206 
L 67.356 119.177635 
L 67.914 126.165219 
L 69.03 144.375453 
L 70.425 167.209271 
L 70.983 174.036883 
L 71.541 178.731264 
L 71.82 180.188923 
L 72.099 181.034162 
L 72.378 181.264522 
L 72.657 180.890199 
L 72.936 179.935854 
L 73.494 176.458105 
L 74.052 171.289328 
L 75.447 154.890434 
L 76.284 145.971051 
L 76.842 141.657168 
L 77.4 139.129735 
L 77.679 138.616057 
L 77.958 138.622021 
L 78.237 139.146693 
L 78.516 140.178168 
L 79.074 143.658792 
L 79.632 148.755632 
L 80.748 161.945612 
L 82.143 178.282809 
L 82.701 183.073869 
L 83.259 186.299454 
L 83.538 187.252753 
L 83.817 187.748054 
L 84.096 187.786798 
L 84.375 187.382583 
L 84.654 186.55933 
L 85.212 183.771606 
L 86.049 177.378212 
L 88.002 160.224512 
L 88.56 156.808394 
L 89.118 154.692557 
L 89.397 154.184433 
L 89.676 154.055329 
L 89.955 154.301601 
L 90.234 154.90973 
L 90.792 157.139677 
L 91.35 160.530608 
L 92.466 169.421676 
L 93.582 178.38562 
L 94.419 183.295868 
L 94.977 185.155897 
L 95.256 185.595833 
L 95.535 185.699987 
L 95.814 185.472583 
L 96.093 184.924381 
L 96.651 182.924049 
L 97.209 179.87943 
L 98.325 171.850083 
L 99.72 161.804435 
L 100.278 158.82064 
L 100.836 156.790097 
L 101.115 156.175514 
L 101.394 155.835987 
L 101.673 155.768008 
L 101.952 155.961699 
L 102.231 156.405825 
L 102.789 157.969841 
L 103.626 161.589404 
L 105.579 170.92165 
L 106.137 172.540608 
L 106.416 173.0338 
L 106.695 173.294654 
L 106.974 173.314744 
L 107.253 173.091783 
L 107.532 172.628788 
L 108.09 171.00807 
L 108.648 168.55063 
L 109.485 163.708719 
L 111.717 149.952727 
L 112.275 147.594109 
L 112.833 145.994646 
L 113.391 145.192513 
L 113.67 145.083522 
L 113.949 145.158707 
L 114.228 145.404748 
L 114.786 146.335737 
L 115.623 148.473264 
L 117.018 152.219011 
L 117.576 153.165814 
L 117.855 153.434163 
L 118.134 153.546671 
L 118.413 153.493858 
L 118.692 153.269942 
L 119.25 152.295061 
L 119.808 150.639048 
L 120.645 147.089173 
L 122.04 139.611692 
L 123.156 133.88693 
L 123.993 130.625758 
L 124.551 129.137954 
L 125.109 128.245841 
L 125.667 127.934814 
L 126.225 128.128835 
L 126.783 128.711985 
L 127.899 130.467847 
L 128.736 131.665469 
L 129.294 132.127714 
L 129.852 132.192063 
L 130.41 131.790049 
L 130.968 130.889431 
L 131.526 129.511997 
L 132.363 126.710837 
L 135.432 115.024581 
L 135.99 113.727284 
L 136.548 112.876193 
L 137.106 112.477625 
L 137.664 112.491497 
L 138.222 112.847796 
L 139.059 113.815604 
L 140.454 115.617066 
L 141.012 116.079754 
L 141.57 116.267227 
L 142.128 116.124344 
L 142.686 115.633967 
L 143.244 114.817477 
L 144.081 113.086714 
L 146.871 106.495422 
L 147.429 105.717381 
L 147.987 105.270278 
L 148.545 105.169618 
L 149.103 105.396949 
L 149.661 105.913274 
L 150.498 107.095896 
L 152.73 110.656063 
L 153.567 111.424697 
L 154.125 111.639819 
L 154.683 111.615281 
L 155.241 111.37828 
L 156.078 110.721243 
L 158.031 108.9585 
L 158.589 108.711045 
L 159.147 108.679626 
L 159.705 108.897995 
L 160.263 109.374124 
L 161.1 110.534039 
L 161.937 112.126859 
L 165.006 118.522052 
L 165.843 119.659491 
L 166.68 120.403396 
L 167.517 120.834398 
L 170.028 121.756165 
L 170.865 122.484116 
L 171.702 123.60576 
L 172.539 125.135474 
L 173.655 127.665504 
L 176.724 135.004011 
L 177.84 136.935521 
L 178.956 138.351187 
L 180.63 139.938612 
L 181.746 141.06717 
L 182.862 142.549748 
L 183.978 144.494173 
L 185.373 147.475367 
L 187.884 153.034259 
L 189 155.00717 
L 190.116 156.512579 
L 191.232 157.635654 
L 194.58 160.618667 
L 195.696 162.01726 
L 197.649 164.93196 
L 199.323 167.297222 
L 200.439 168.497418 
L 201.276 169.132748 
L 202.113 169.550357 
L 203.229 169.843205 
L 207.135 170.503099 
L 209.367 171.406659 
L 210.762 171.833295 
L 211.878 171.891917 
L 212.715 171.722331 
L 213.831 171.210711 
L 214.947 170.439265 
L 220.806 165.922843 
L 222.48 164.637744 
L 223.875 163.244456 
L 225.27 161.470876 
L 227.223 158.503249 
L 230.85 152.863373 
L 235.593 145.883959 
L 237.825 141.947732 
L 242.01 134.411845 
L 244.521 130.525651 
L 249.543 122.939629 
L 252.054 119.23159 
L 253.728 117.108557 
L 255.402 115.32712 
L 257.634 113.326066 
L 260.703 110.897666 
L 262.656 109.596967 
L 264.051 108.900335 
L 265.446 108.457545 
L 266.841 108.268215 
L 268.236 108.294527 
L 270.189 108.587769 
L 272.142 109.095946 
L 273.816 109.724177 
L 275.49 110.606957 
L 276.885 111.578243 
L 278.559 113.033192 
L 280.512 115.044276 
L 283.302 118.277359 
L 286.092 121.839425 
L 288.603 125.447258 
L 291.393 129.907945 
L 307.017 155.612185 
L 309.807 159.448805 
L 312.597 162.929284 
L 314.829 165.415362 
L 316.782 167.267136 
L 318.456 168.575922 
L 320.13 169.624688 
L 321.804 170.434654 
L 323.478 171.02784 
L 325.152 171.399191 
L 326.826 171.526602 
L 328.221 171.426172 
L 329.616 171.128601 
L 331.29 170.517468 
L 332.964 169.652856 
L 334.917 168.362435 
L 336.87 166.790692 
L 338.823 164.932276 
L 340.776 162.777916 
L 342.45 160.708965 
L 342.45 160.708965 
" clip-path="url(#pd3a5ebb592)" style="fill: none; stroke: #ff7f0e; stroke-width: 0.7; stroke-linecap: square"/>
   </g>
   <g id="line2d_71">
    <path d="M 63.45 139.892137 
L 64.008 131.659955 
L 65.124 118.690729 
L 65.961 113.958182 
L 66.24 113.626059 
L 66.798 115.039225 
L 67.077 115.941958 
L 67.356 117.702754 
L 68.472 128.996878 
L 69.867 146.971551 
L 70.425 153.205498 
L 71.262 160.01102 
L 71.541 161.173977 
L 72.378 162.214717 
L 72.657 161.508799 
L 73.494 156.771887 
L 74.052 151.559705 
L 76.284 128.535194 
L 76.842 124.331708 
L 77.679 120.837421 
L 77.958 120.697589 
L 78.795 122.373866 
L 79.074 123.74393 
L 80.469 134.958673 
L 81.585 145.243503 
L 82.143 149.686431 
L 83.259 155.473145 
L 83.538 155.656037 
L 84.096 156.274769 
L 84.375 155.661819 
L 85.491 150.543321 
L 86.328 144.277675 
L 86.886 139.529832 
L 87.444 135.353251 
L 88.56 128.493594 
L 89.118 126.71239 
L 89.397 125.862656 
L 89.676 125.881001 
L 90.234 126.734343 
L 90.513 127.056208 
L 90.792 128.139783 
L 91.35 131.256943 
L 91.629 132.471062 
L 92.187 136.478661 
L 93.582 145.875031 
L 94.698 150.874552 
L 94.977 151.274584 
L 95.256 151.329405 
L 95.814 151.940938 
L 96.093 151.383142 
L 96.651 149.586224 
L 96.93 148.937118 
L 97.488 145.796477 
L 99.999 132.206921 
L 101.115 129.539529 
L 101.394 129.678132 
L 101.673 130.160057 
L 102.231 130.456418 
L 102.51 131.347658 
L 103.068 133.670291 
L 103.347 134.443759 
L 103.905 137.573062 
L 104.463 139.992064 
L 105.021 143.012425 
L 105.3 144.399864 
L 105.858 145.922012 
L 106.416 148.031915 
L 106.695 148.186529 
L 106.974 148.164968 
L 107.532 148.772455 
L 107.811 148.246455 
L 108.09 147.396453 
L 108.648 146.538032 
L 110.043 141.051267 
L 110.601 138.180248 
L 111.159 136.533897 
L 111.717 134.158713 
L 112.275 133.498336 
L 112.833 132.232703 
L 113.112 132.468533 
L 113.391 132.888292 
L 113.949 132.936083 
L 115.344 136.928005 
L 115.902 139.339806 
L 116.181 139.939252 
L 117.297 143.696497 
L 117.576 144.274202 
L 118.134 145.935807 
L 118.692 145.859905 
L 119.25 146.456582 
L 120.087 145.018024 
L 120.366 144.803227 
L 122.598 138.164476 
L 122.877 137.44568 
L 123.435 135.610268 
L 123.714 135.505474 
L 123.993 135.271055 
L 124.551 134.213901 
L 125.109 134.866317 
L 125.667 134.74109 
L 126.504 136.637246 
L 126.783 136.905404 
L 127.62 139.550248 
L 127.899 139.876927 
L 128.178 140.660169 
L 128.457 141.791607 
L 128.736 142.456969 
L 129.015 142.620457 
L 129.294 143.06703 
L 129.573 143.917252 
L 129.852 144.390022 
L 130.41 144.184035 
L 130.689 144.592527 
L 130.968 144.764463 
L 131.526 143.702885 
L 132.084 143.545843 
L 132.921 141.475528 
L 133.2 141.240837 
L 134.037 138.858947 
L 134.316 138.687194 
L 134.595 138.105946 
L 134.874 137.172435 
L 135.153 136.694414 
L 135.432 136.751032 
L 135.711 136.557145 
L 135.99 135.941605 
L 136.269 135.67223 
L 136.827 136.304665 
L 137.106 136.093096 
L 137.385 136.059631 
L 137.943 137.361168 
L 138.501 137.646128 
L 139.338 139.672717 
L 139.617 139.816067 
L 140.454 141.817184 
L 140.733 141.818121 
L 141.012 142.191783 
L 141.291 142.934282 
L 141.57 143.239441 
L 141.849 142.991571 
L 142.128 142.967916 
L 142.407 143.39192 
L 142.686 143.515163 
L 143.244 142.582817 
L 143.523 142.666096 
L 143.802 142.625258 
L 144.36 141.223618 
L 144.918 140.945496 
L 145.755 139.10645 
L 146.034 139.083285 
L 146.313 138.581974 
L 146.592 137.793032 
L 146.871 137.507856 
L 147.15 137.672253 
L 147.429 137.489258 
L 147.708 136.916736 
L 147.987 136.750842 
L 148.266 137.148286 
L 148.545 137.342343 
L 148.824 137.059979 
L 149.103 137.029254 
L 149.661 138.143347 
L 150.219 138.181819 
L 150.777 139.577674 
L 151.056 139.738413 
L 151.335 139.764567 
L 152.172 141.328309 
L 152.451 141.221358 
L 152.73 141.564663 
L 153.009 142.217985 
L 153.288 142.384981 
L 153.567 142.078449 
L 153.846 142.095911 
L 154.125 142.531312 
L 154.404 142.596975 
L 154.962 141.77867 
L 155.241 141.968827 
L 155.52 141.956031 
L 156.078 140.761476 
L 156.636 140.733567 
L 157.194 139.424901 
L 157.473 139.311237 
L 157.752 139.379218 
L 158.031 138.920015 
L 158.31 138.246046 
L 158.589 138.121736 
L 158.868 138.353324 
L 159.147 138.157029 
L 159.426 137.623159 
L 159.705 137.551931 
L 159.984 137.969721 
L 160.263 138.083753 
L 160.542 137.750148 
L 160.821 137.744051 
L 161.379 138.699348 
L 161.658 138.56135 
L 161.937 138.575706 
L 162.495 139.766468 
L 163.053 139.723492 
L 163.611 140.896926 
L 163.89 140.95038 
L 164.169 140.78154 
L 164.448 141.119141 
L 164.727 141.698092 
L 165.006 141.741667 
L 165.285 141.402537 
L 165.564 141.471545 
L 165.843 141.908364 
L 166.122 141.912324 
L 166.401 141.414462 
L 166.68 141.205731 
L 166.959 141.472397 
L 167.238 141.456003 
L 167.796 140.436451 
L 168.354 140.574699 
L 168.912 139.443556 
L 169.47 139.595419 
L 170.028 138.579537 
L 170.307 138.587751 
L 170.586 138.853606 
L 170.865 138.629337 
L 171.144 138.134122 
L 171.423 138.15357 
L 171.702 138.578288 
L 171.981 138.611411 
L 172.26 138.245684 
L 172.539 138.277959 
L 172.818 138.822155 
L 173.097 139.094313 
L 173.376 138.863 
L 173.655 138.871233 
L 174.213 139.895246 
L 174.771 139.695943 
L 175.329 140.731051 
L 175.608 140.654614 
L 175.887 140.456932 
L 176.445 141.315642 
L 176.724 141.253729 
L 177.003 140.903159 
L 177.282 141.02929 
L 177.561 141.456611 
L 177.84 141.397036 
L 178.119 140.911079 
L 178.398 140.802381 
L 178.677 141.122206 
L 178.956 141.081607 
L 179.235 140.520336 
L 179.514 140.212791 
L 179.793 140.433183 
L 180.072 140.454845 
L 180.63 139.470091 
L 181.188 139.754573 
L 181.746 138.83174 
L 182.025 138.949805 
L 182.304 139.224503 
L 182.583 138.961997 
L 182.862 138.509946 
L 183.141 138.611659 
L 183.42 139.028589 
L 183.699 138.982815 
L 183.978 138.601532 
L 184.257 138.681095 
L 184.536 139.201763 
L 184.815 139.364854 
L 185.094 139.067738 
L 185.373 139.094924 
L 185.931 139.973756 
L 186.21 139.747181 
L 186.489 139.679354 
L 187.047 140.599118 
L 187.605 140.220484 
L 188.163 141.031056 
L 188.442 140.878145 
L 188.721 140.536421 
L 189 140.721246 
L 189.279 141.13136 
L 189.558 141.005297 
L 189.837 140.540086 
L 190.116 140.523717 
L 190.395 140.875762 
L 190.674 140.796886 
L 190.953 140.260732 
L 191.232 140.065345 
L 191.511 140.356213 
L 191.79 140.35961 
L 192.348 139.502586 
L 192.906 139.866862 
L 193.464 139.024041 
L 194.022 139.493921 
L 194.58 138.78557 
L 194.859 138.962583 
L 195.138 139.359062 
L 195.417 139.237348 
L 195.696 138.857854 
L 195.975 138.990854 
L 196.254 139.486092 
L 196.533 139.546499 
L 196.812 139.208577 
L 197.091 139.269557 
L 197.37 139.802933 
L 197.649 140.016006 
L 197.928 139.719648 
L 198.207 139.67433 
L 198.765 140.490904 
L 199.323 140.050964 
L 199.881 140.816909 
L 200.439 140.269144 
L 200.997 140.892961 
L 201.276 140.703289 
L 201.555 140.266911 
L 201.834 140.337851 
L 202.113 140.701446 
L 202.392 140.57535 
L 202.671 140.066101 
L 202.95 139.974598 
L 203.229 140.311273 
L 203.508 140.279623 
L 203.787 139.761418 
L 204.066 139.539988 
L 204.345 139.848763 
L 204.624 139.941293 
L 205.182 139.173812 
L 205.74 139.685841 
L 206.298 138.990118 
L 206.856 139.597399 
L 207.135 139.406123 
L 207.414 139.041221 
L 207.693 139.231077 
L 207.972 139.694114 
L 208.251 139.662175 
L 208.53 139.30368 
L 208.809 139.41063 
L 209.088 139.920855 
L 209.367 140.032252 
L 209.646 139.689 
L 209.925 139.682398 
L 210.204 140.1767 
L 210.483 140.400855 
L 210.762 140.077789 
L 211.041 139.936389 
L 211.599 140.653794 
L 212.157 140.079738 
L 212.715 140.716553 
L 213.273 140.067913 
L 213.552 140.218044 
L 213.831 140.576652 
L 214.11 140.397839 
L 214.389 139.919974 
L 214.668 139.924023 
L 214.947 140.285175 
L 215.226 140.207578 
L 215.505 139.70592 
L 215.784 139.581145 
L 216.063 139.935323 
L 216.342 139.984206 
L 216.621 139.518189 
L 216.9 139.293717 
L 217.458 139.81815 
L 218.016 139.145989 
L 218.574 139.768984 
L 219.132 139.177074 
L 219.411 139.422419 
L 219.69 139.846359 
L 219.969 139.729489 
L 220.248 139.369437 
L 220.527 139.527873 
L 220.806 140.010646 
L 221.085 140.027558 
L 221.364 139.657796 
L 221.643 139.700784 
L 221.922 140.187649 
L 222.201 140.321009 
L 222.48 139.954508 
L 222.759 139.862588 
L 223.038 140.299036 
L 223.317 140.524313 
L 223.875 139.947594 
L 224.433 140.582556 
L 224.991 139.92652 
L 225.549 140.485837 
L 225.828 140.25335 
L 226.107 139.813115 
L 226.386 139.904476 
L 226.665 140.271635 
L 226.944 140.140753 
L 227.223 139.660467 
L 227.502 139.627238 
L 227.781 140.008122 
L 228.06 140.003468 
L 228.339 139.535622 
L 228.618 139.394331 
L 228.897 139.771502 
L 229.176 139.905217 
L 229.734 139.269191 
L 230.292 139.88749 
L 230.85 139.280607 
L 231.408 139.954962 
L 231.687 139.761265 
L 231.966 139.416254 
L 232.245 139.628573 
L 232.524 140.077633 
L 232.803 140.007185 
L 233.082 139.629178 
L 233.361 139.728075 
L 233.64 140.20092 
L 233.919 140.247349 
L 234.198 139.85492 
L 234.477 139.820638 
L 234.756 140.268332 
L 235.035 140.417788 
L 235.314 140.03275 
L 235.593 139.86081 
L 236.151 140.476814 
L 236.709 139.828713 
L 237.267 140.41651 
L 237.825 139.737324 
L 238.104 139.907492 
L 238.383 140.263733 
L 238.662 140.076767 
L 238.941 139.624776 
L 239.22 139.677747 
L 239.499 140.068077 
L 239.778 140.00353 
L 240.057 139.541141 
L 240.336 139.482465 
L 240.615 139.885247 
L 240.894 139.9571 
L 241.173 139.528958 
L 241.452 139.369876 
L 242.01 139.964901 
L 242.568 139.362704 
L 243.126 140.029045 
L 243.684 139.452481 
L 244.242 140.125646 
L 244.521 139.9754 
L 244.8 139.605732 
L 245.079 139.763128 
L 245.358 140.214039 
L 245.637 140.177571 
L 245.916 139.774796 
L 246.195 139.803849 
L 246.474 140.254367 
L 246.753 140.326123 
L 247.032 139.915976 
L 247.311 139.808653 
L 247.59 140.218094 
L 247.869 140.389299 
L 248.427 139.765552 
L 248.985 140.360193 
L 249.543 139.68587 
L 250.101 140.256728 
L 250.38 140.014807 
L 250.659 139.598961 
L 250.938 139.730998 
L 251.217 140.115211 
L 251.496 139.988615 
L 251.775 139.540902 
L 252.054 139.56242 
L 252.333 139.975981 
L 252.612 139.981365 
L 252.891 139.542961 
L 253.17 139.456453 
L 253.449 139.870613 
L 253.728 140.010706 
L 254.007 139.61881 
L 254.286 139.431904 
L 254.844 140.075605 
L 255.402 139.483861 
L 255.96 140.157247 
L 256.518 139.588424 
L 256.797 139.804805 
L 257.076 140.225388 
L 257.355 140.109972 
L 257.634 139.711988 
L 257.913 139.806739 
L 258.192 140.249733 
L 258.471 140.244676 
L 258.75 139.822533 
L 259.029 139.783895 
L 259.308 140.210513 
L 259.587 140.313837 
L 259.866 139.900003 
L 260.145 139.730153 
L 260.703 140.310806 
L 261.261 139.65531 
L 261.819 140.247917 
L 262.377 139.582204 
L 262.656 139.786818 
L 262.935 140.150367 
L 263.214 139.96179 
L 263.493 139.538397 
L 263.772 139.636667 
L 264.051 140.047084 
L 264.33 139.984066 
L 264.609 139.546283 
L 264.888 139.53369 
L 265.167 139.961243 
L 265.446 140.030975 
L 265.725 139.615317 
L 266.004 139.493404 
L 266.283 139.903415 
L 266.562 140.099566 
L 267.12 139.513865 
L 267.678 140.174283 
L 268.236 139.578875 
L 268.794 140.231838 
L 269.073 140.044318 
L 269.352 139.664795 
L 269.631 139.824552 
L 269.91 140.249536 
L 270.189 140.169241 
L 270.468 139.748534 
L 270.747 139.780864 
L 271.026 140.213231 
L 271.305 140.244991 
L 271.584 139.815295 
L 271.863 139.716718 
L 272.142 140.122327 
L 272.421 140.264445 
L 272.979 139.642115 
L 273.537 140.234914 
L 274.095 139.575154 
L 274.653 140.173605 
L 275.211 139.53704 
L 275.49 139.706998 
L 275.769 140.101222 
L 276.048 139.970252 
L 276.327 139.544484 
L 276.606 139.605668 
L 276.885 140.034071 
L 277.164 140.03135 
L 277.443 139.604079 
L 277.722 139.551652 
L 278.001 139.980198 
L 278.28 140.105435 
L 278.559 139.709441 
L 278.838 139.545718 
L 279.396 140.178727 
L 279.954 139.577949 
L 280.512 140.232786 
L 281.07 139.631972 
L 281.349 139.853639 
L 281.628 140.250099 
L 281.907 140.098351 
L 282.186 139.691485 
L 282.465 139.794032 
L 282.744 140.220198 
L 283.023 140.179546 
L 283.302 139.746177 
L 283.581 139.720818 
L 283.86 140.143047 
L 284.139 140.21758 
L 284.418 139.793176 
L 284.697 139.643235 
L 284.976 140.029715 
L 285.255 140.216122 
L 285.813 139.576983 
L 286.371 140.185601 
L 286.929 139.538817 
L 287.487 140.140176 
L 287.766 139.944123 
L 288.045 139.541563 
L 288.324 139.673981 
L 288.603 140.091172 
L 288.882 140.016377 
L 289.161 139.590041 
L 289.44 139.608874 
L 289.719 140.044342 
L 289.998 140.09636 
L 290.277 139.679151 
L 290.556 139.581056 
L 290.835 139.998807 
L 291.114 140.171719 
L 291.672 139.58545 
L 292.23 140.227061 
L 292.788 139.61184 
L 293.346 140.248424 
L 293.625 140.030124 
L 293.904 139.649399 
L 294.183 139.819602 
L 294.462 140.22775 
L 294.741 140.116093 
L 295.02 139.690847 
L 295.299 139.738842 
L 295.578 140.165089 
L 295.857 140.169574 
L 296.136 139.734464 
L 296.415 139.657237 
L 296.694 140.069101 
L 296.973 140.191252 
L 297.252 139.782632 
L 297.531 139.588175 
L 298.089 140.187113 
L 298.647 139.545835 
L 299.205 140.165566 
L 299.763 139.540614 
L 300.042 139.740151 
L 300.321 140.134177 
L 300.6 139.98951 
L 300.879 139.576269 
L 301.158 139.665881 
L 301.437 140.096731 
L 301.716 140.074752 
L 301.995 139.64898 
L 302.274 139.620306 
L 302.553 140.052587 
L 302.832 140.153941 
L 303.111 139.74795 
L 303.39 139.601375 
L 303.948 140.21385 
L 304.506 139.603715 
L 305.064 140.242466 
L 305.622 139.6209 
L 305.901 139.854409 
L 306.18 140.233182 
L 306.459 140.053741 
L 306.738 139.648368 
L 307.017 139.767941 
L 307.296 140.185733 
L 307.575 140.119409 
L 307.854 139.685197 
L 308.133 139.681952 
L 308.412 140.106623 
L 308.691 140.160138 
L 308.97 139.73281 
L 309.249 139.608275 
L 309.528 140.007551 
L 309.807 140.17844 
L 310.365 139.559066 
L 310.923 140.178352 
L 311.481 139.543643 
L 312.039 140.164158 
L 312.318 139.953682 
L 312.597 139.565326 
L 312.876 139.723446 
L 313.155 140.137972 
L 313.434 140.04326 
L 313.713 139.621531 
L 313.992 139.663664 
L 314.271 140.099107 
L 314.55 140.126929 
L 314.829 139.704165 
L 315.108 139.625449 
L 315.387 140.046003 
L 315.666 140.192985 
L 315.945 139.801538 
L 316.224 139.606763 
L 316.782 140.230908 
L 317.34 139.605012 
L 317.898 140.234386 
L 318.456 139.617922 
L 318.735 139.805397 
L 319.014 140.202638 
L 319.293 140.066994 
L 319.572 139.645355 
L 319.851 139.715436 
L 320.13 140.14031 
L 320.409 140.1231 
L 320.688 139.688352 
L 320.967 139.63647 
L 321.246 140.056284 
L 321.525 140.160218 
L 321.804 139.748031 
L 322.083 139.579162 
L 322.641 140.179455 
L 323.199 139.552162 
L 323.757 140.181971 
L 324.315 139.559142 
L 324.594 139.781578 
L 324.873 140.168404 
L 325.152 140.004107 
L 325.431 139.598725 
L 325.71 139.710904 
L 325.989 140.137835 
L 326.268 140.092075 
L 326.547 139.665058 
L 326.826 139.656957 
L 327.105 140.089272 
L 327.384 140.164826 
L 327.663 139.749178 
L 327.942 139.620266 
L 328.221 140.022712 
L 328.5 140.21297 
L 329.058 139.600925 
L 329.616 140.229861 
L 330.174 139.598982 
L 330.732 140.214097 
L 331.011 140.012692 
L 331.29 139.615086 
L 331.569 139.755937 
L 331.848 140.168584 
L 332.127 140.080612 
L 332.406 139.650162 
L 332.685 139.671751 
L 332.964 140.099762 
L 333.243 140.133379 
L 333.522 139.705037 
L 333.801 139.606085 
L 334.08 140.016212 
L 334.359 140.169632 
L 334.917 139.566973 
L 335.475 140.188228 
L 336.033 139.559073 
L 336.591 140.188198 
L 336.87 139.959342 
L 337.149 139.582038 
L 337.428 139.761373 
L 337.707 140.168227 
L 337.986 140.050783 
L 338.265 139.631978 
L 338.544 139.695184 
L 338.823 140.12751 
L 339.102 140.130054 
L 339.381 139.702345 
L 339.66 139.643246 
L 339.939 140.066186 
L 340.218 140.188248 
L 340.497 139.785102 
L 340.776 139.607856 
L 341.334 140.218856 
L 341.892 139.591022 
L 342.45 140.219114 
L 342.45 140.219114 
" clip-path="url(#pd3a5ebb592)" style="fill: none; stroke: #2ca02c; stroke-width: 0.7; stroke-linecap: square"/>
   </g>
   <g id="patch_3">
    <path d="M 49.5 251.937 
L 49.5 28.7928 
" style="fill: none; stroke: #000000; stroke-width: 0.5; stroke-linejoin: miter; stroke-linecap: square"/>
   </g>
   <g id="patch_4">
    <path d="M 356.4 251.937 
L 356.4 28.7928 
" style="fill: none; stroke: #000000; stroke-width: 0.5; stroke-linejoin: miter; stroke-linecap: square"/>
   </g>
   <g id="patch_5">
    <path d="M 49.5 251.937 
L 356.4 251.937 
" style="fill: none; stroke: #000000; stroke-width: 0.5; stroke-linejoin: miter; stroke-linecap: square"/>
   </g>
   <g id="patch_6">
    <path d="M 49.5 28.7928 
L 356.4 28.7928 
" style="fill: none; stroke: #000000; stroke-width: 0.5; stroke-linejoin: miter; stroke-linecap: square"/>
   </g>
   <g id="legend_1">
    <g id="patch_7">
     <path d="M 280 246.937 
L 349.4 246.937 
Q 351.4 246.937 351.4 244.937 
L 351.4 201.902625 
Q 351.4 199.902625 349.4 199.902625 
L 280 199.902625 
Q 278 199.902625 278 201.902625 
L 278 244.937 
Q 278 246.937 280 246.937 
z
" style="fill: #ffffff; opacity: 0.8; stroke: #cccccc; stroke-linejoin: miter"/>
    </g>
    <g id="line2d_72">
     <path d="M 282 208.001062 
L 302 208.001062 
" style="fill: none; stroke: #1f77b4; stroke-width: 0.7; stroke-linecap: square"/>
    </g>
    <g id="line2d_73"/>
    <g id="text_18">
     <!-- $\omega_d$=0.7 -->
     <g transform="translate(310 211.501062) scale(0.1 -0.1)">
      <defs>
       <path id="DejaVuSans-Oblique-3c9" d="M 1369 -91 
Q 72 -91 434 1766 
Q 575 2500 1256 3500 
L 1875 3500 
Q 1231 2500 1088 1750 
Q 819 397 1519 397 
Q 2166 397 2478 2078 
L 3009 2078 
Q 2669 388 3316 397 
Q 4013 403 4275 1750 
Q 4419 2500 4169 3500 
L 4788 3500 
Q 5075 2500 4934 1766 
Q 4578 -94 3278 -91 
Q 2428 -88 2503 844 
Q 2194 -91 1369 -91 
z
" transform="scale(0.015625)"/>
       <path id="DejaVuSans-Oblique-64" d="M 2675 525 
Q 2444 222 2128 65 
Q 1813 -91 1428 -91 
Q 903 -91 598 267 
Q 294 625 294 1247 
Q 294 1766 478 2236 
Q 663 2706 1013 3078 
Q 1244 3325 1534 3454 
Q 1825 3584 2144 3584 
Q 2481 3584 2739 3421 
Q 2997 3259 3138 2956 
L 3513 4863 
L 4091 4863 
L 3144 0 
L 2566 0 
L 2675 525 
z
M 891 1350 
Q 891 897 1095 644 
Q 1300 391 1663 391 
Q 1931 391 2161 520 
Q 2391 650 2566 903 
Q 2750 1166 2856 1509 
Q 2963 1853 2963 2188 
Q 2963 2622 2758 2865 
Q 2553 3109 2194 3109 
Q 1922 3109 1687 2981 
Q 1453 2853 1288 2613 
Q 1106 2353 998 2009 
Q 891 1666 891 1350 
z
" transform="scale(0.015625)"/>
       <path id="DejaVuSans-3d" d="M 678 2906 
L 4684 2906 
L 4684 2381 
L 678 2381 
L 678 2906 
z
M 678 1631 
L 4684 1631 
L 4684 1100 
L 678 1100 
L 678 1631 
z
" transform="scale(0.015625)"/>
       <path id="DejaVuSans-2e" d="M 684 794 
L 1344 794 
L 1344 0 
L 684 0 
L 684 794 
z
" transform="scale(0.015625)"/>
       <path id="DejaVuSans-37" d="M 525 4666 
L 3525 4666 
L 3525 4397 
L 1831 0 
L 1172 0 
L 2766 4134 
L 525 4134 
L 525 4666 
z
" transform="scale(0.015625)"/>
      </defs>
      <use xlink:href="#DejaVuSans-Oblique-3c9" transform="translate(0 0.78125)"/>
      <use xlink:href="#DejaVuSans-Oblique-64" transform="translate(83.740234 -15.625) scale(0.7)"/>
      <use xlink:href="#DejaVuSans-3d" transform="translate(130.908203 0.78125)"/>
      <use xlink:href="#DejaVuSans-30" transform="translate(214.697266 0.78125)"/>
      <use xlink:href="#DejaVuSans-2e" transform="translate(278.320312 0.78125)"/>
      <use xlink:href="#DejaVuSans-37" transform="translate(302.357422 0.78125)"/>
     </g>
    </g>
    <g id="line2d_74">
     <path d="M 282 222.679187 
L 302 222.679187 
" style="fill: none; stroke: #ff7f0e; stroke-width: 0.7; stroke-linecap: square"/>
    </g>
    <g id="line2d_75"/>
    <g id="text_19">
     <!-- $\omega_d$=0.1 -->
     <g transform="translate(310 226.179187) scale(0.1 -0.1)">
      <use xlink:href="#DejaVuSans-Oblique-3c9" transform="translate(0 0.78125)"/>
      <use xlink:href="#DejaVuSans-Oblique-64" transform="translate(83.740234 -15.625) scale(0.7)"/>
      <use xlink:href="#DejaVuSans-3d" transform="translate(130.908203 0.78125)"/>
      <use xlink:href="#DejaVuSans-30" transform="translate(214.697266 0.78125)"/>
      <use xlink:href="#DejaVuSans-2e" transform="translate(278.320312 0.78125)"/>
      <use xlink:href="#DejaVuSans-31" transform="translate(310.107422 0.78125)"/>
     </g>
    </g>
    <g id="line2d_76">
     <path d="M 282 237.357312 
L 302 237.357312 
" style="fill: none; stroke: #2ca02c; stroke-width: 0.7; stroke-linecap: square"/>
    </g>
    <g id="line2d_77"/>
    <g id="text_20">
     <!-- $\omega_d$=10 -->
     <g transform="translate(310 240.857312) scale(0.1 -0.1)">
      <use xlink:href="#DejaVuSans-Oblique-3c9" transform="translate(0 0.78125)"/>
      <use xlink:href="#DejaVuSans-Oblique-64" transform="translate(83.740234 -15.625) scale(0.7)"/>
      <use xlink:href="#DejaVuSans-3d" transform="translate(130.908203 0.78125)"/>
      <use xlink:href="#DejaVuSans-31" transform="translate(214.697266 0.78125)"/>
      <use xlink:href="#DejaVuSans-30" transform="translate(278.320312 0.78125)"/>
     </g>
    </g>
   </g>
  </g>
 </g>
 <defs>
  <clipPath id="pd3a5ebb592">
   <rect x="49.5" y="28.7928" width="306.9" height="223.1442"/>
  </clipPath>
 </defs>
</svg>
